<svg width="31" height="39" viewBox="0 0 31 39" fill="none" xmlns="http://www.w3.org/2000/svg">
<path d="M24.4712 0H5.64865C4.15104 0 2.71476 0.594925 1.65579 1.6539C0.596817 2.71287 0.00189209 4.14914 0.00189209 5.64676V34.9911C0.0137738 35.49 0.124729 35.9815 0.328304 36.4371C0.531879 36.8928 0.824012 37.3034 1.18771 37.6451C1.88967 38.3236 2.82776 38.7028 3.80404 38.7028C4.78032 38.7028 5.71842 38.3236 6.42037 37.6451L14.834 29.2502L15.0599 29.1561L15.2858 29.2502L23.6995 37.6451C24.2259 38.1683 24.8952 38.5243 25.6234 38.6683C26.3515 38.8123 27.106 38.7377 27.7919 38.4541C28.4779 38.1705 29.0646 37.6904 29.4785 37.0742C29.8923 36.4581 30.1148 35.7333 30.1179 34.9911V5.64676C30.1179 4.14914 29.523 2.71287 28.464 1.6539C27.4051 0.594925 25.9688 0 24.4712 0ZM26.3534 34.9911L17.9586 26.5774C17.1845 25.8187 16.1438 25.3937 15.0599 25.3937C13.976 25.3937 12.9353 25.8187 12.1612 26.5774L3.7664 34.9723V11.2935H26.3534V34.9911ZM26.3534 7.52901H3.7664V5.64676C3.7664 5.14755 3.96471 4.6688 4.3177 4.3158C4.67069 3.96281 5.14945 3.76451 5.64865 3.76451H24.4712C24.9704 3.76451 25.4491 3.96281 25.8021 4.3158C26.1551 4.6688 26.3534 5.14755 26.3534 5.64676V7.52901Z" fill="url(#paint0_linear_530_6593)"/>
<defs>
<linearGradient id="paint0_linear_530_6593" x1="0.021947" y1="31.2899" x2="31.9332" y2="30.5468" gradientUnits="userSpaceOnUse">
<stop stop-color="#2F8848"/>
<stop offset="1" stop-color="#D0E355"/>
</linearGradient>
</defs>
</svg>
