<svg width="20" height="20" viewBox="0 0 20 20" fill="none" xmlns="http://www.w3.org/2000/svg">
<g clip-path="url(#clip0_526_6287)">
<path d="M20 10.0002C20 9.9985 20 9.99683 20 9.99517C20 7.036 18.7117 4.3785 16.6658 2.551L16.6558 2.54267C16.63 2.51517 16.6025 2.491 16.5717 2.47017L16.57 2.46933C14.8242 0.936 12.5208 0.000999451 9.99833 0.000999451C7.47167 0.000999451 5.165 0.939333 3.40667 2.48767L3.4175 2.4785C3.39583 2.49517 3.37667 2.51267 3.35917 2.53267C1.29417 4.37017 0 7.036 0 10.0027C0 12.961 1.28667 15.6185 3.33083 17.4468L3.34083 17.4552C3.34083 17.4577 3.3425 17.4593 3.345 17.4593C3.37083 17.4885 3.39917 17.5135 3.42917 17.536L3.43083 17.5368C5.17583 19.0677 7.47833 20.0018 9.99833 20.0018C12.525 20.0018 14.8325 19.0635 16.5908 17.5152L16.58 17.5243C16.605 17.506 16.6267 17.4868 16.6467 17.466C18.7092 15.631 20.0017 12.9702 20.0017 10.0068C20.0017 10.0052 20.0017 10.0027 20.0017 10.001L20 10.0002ZM16.2817 16.5043C15.8017 16.1143 15.2625 15.7568 14.6908 15.4527L14.6367 15.426C15.1475 13.9535 15.455 12.256 15.4842 10.4902V10.4768H19.035C18.905 12.8535 17.8758 14.9668 16.2842 16.5018L16.2817 16.5043ZM10.4767 15.2502C11.5458 15.3077 12.545 15.5427 13.4667 15.9252L13.4067 15.9035C12.6683 17.5868 11.6292 18.7435 10.4767 18.9977V15.2502ZM10.4767 14.2968V10.4768H14.5333C14.4975 12.111 14.2142 13.6668 13.72 15.1252L13.7525 15.016C12.7883 14.6127 11.6708 14.3535 10.5 14.2977L10.4775 14.2968H10.4767ZM10.4767 9.5235V5.7035C11.6692 5.646 12.7867 5.38767 13.8158 4.961L13.75 4.98517C14.2125 6.33433 14.4967 7.88933 14.5333 9.506V9.5235H10.4767ZM10.4767 4.75017V1.00433C11.6292 1.2585 12.6683 2.41017 13.4067 4.0985C12.545 4.45683 11.5458 4.691 10.5008 4.74933L10.4767 4.75017ZM12.855 1.41683C13.8867 1.766 14.7817 2.25767 15.57 2.87683L15.5508 2.86183C15.1817 3.15183 14.7675 3.42517 14.3308 3.66267L14.2842 3.686C13.91 2.8135 13.43 2.0635 12.8475 1.40517L12.855 1.41433V1.41683ZM9.52167 1.00683V4.75017C8.4525 4.69267 7.45333 4.4585 6.53167 4.07517L6.59167 4.09683C7.33333 2.4135 8.37083 1.25767 9.52333 1.0035L9.52167 1.00683ZM5.715 3.6835C5.23167 3.421 4.8175 3.1485 4.42833 2.84433L4.44833 2.85933C5.2175 2.25433 6.11167 1.7635 7.08 1.43267L7.14333 1.4135C6.56917 2.06183 6.08917 2.81183 5.73583 3.6285L5.715 3.6835ZM9.52333 5.70267V9.52267H5.46667C5.50333 7.8885 5.7875 6.3335 6.2825 4.87517L6.25 4.98433C7.21333 5.38683 8.33083 5.646 9.50083 5.70183L9.52333 5.70267ZM9.52333 10.476V14.296C8.33083 14.3535 7.21333 14.6118 6.18417 15.0385L6.25 15.0143C5.7875 13.666 5.50333 12.1102 5.46667 10.4935V10.476H9.52333ZM9.52333 15.2493V18.9952C8.37083 18.741 7.33167 17.5893 6.59333 15.901C7.455 15.5427 8.45417 15.3093 9.49917 15.251L9.52333 15.2493ZM7.14833 18.5827C6.11667 18.2343 5.2225 17.7443 4.43333 17.126L4.45333 17.141C4.8225 16.851 5.23667 16.5777 5.67333 16.3402L5.72 16.3168C6.09083 17.1893 6.57167 17.9393 7.15583 18.5943L7.14833 18.586V18.5827ZM14.285 16.316C14.7683 16.5785 15.1825 16.851 15.5717 17.1552L15.5517 17.1402C14.7825 17.7452 13.8883 18.236 12.92 18.5668L12.8567 18.586C13.4308 17.9377 13.9108 17.1885 14.2642 16.3718L14.285 16.3177V16.316ZM19.035 9.5235H15.4842C15.455 7.74433 15.1475 6.04683 14.6025 4.4585L14.6367 4.5735C15.2625 4.241 15.8008 3.8835 16.3008 3.48017L16.2808 3.49517C17.875 5.03267 18.9042 7.146 19.0333 9.49933L19.0342 9.52267L19.035 9.5235ZM3.71833 3.496C4.19833 3.886 4.7375 4.2435 5.30917 4.54767L5.36333 4.57433C4.8525 6.04683 4.545 7.74433 4.51583 9.51017V9.5235H0.964167C1.09417 7.14683 2.12333 5.0335 3.715 3.4985L3.71833 3.496ZM0.965 10.4768H4.51583C4.545 12.256 4.8525 13.9535 5.3975 15.5418L5.36333 15.4268C4.7375 15.7593 4.19917 16.1168 3.69917 16.5202L3.71917 16.5052C2.125 14.9677 1.09583 12.8543 0.966667 10.501L0.965833 10.4777L0.965 10.4768Z" fill="black"/>
</g>
<defs>
<clipPath id="clip0_526_6287">
<rect width="20" height="20" fill="white"/>
</clipPath>
</defs>
</svg>
