<svg width="49" height="23" viewBox="0 0 49 23" fill="none" xmlns="http://www.w3.org/2000/svg">
<path d="M45.6075 3.36772C41.0841 -1.10982 33.7348 -1.10982 29.2114 3.36772L24.5048 8.04617L19.7886 3.36772C17.5992 1.19592 14.6865 0 11.5905 0C8.49459 0 5.58188 1.19592 3.39253 3.36772C-1.13084 7.85483 -1.13084 15.1452 3.39253 19.6323C5.58188 21.8041 8.49459 23 11.5905 23C14.6865 23 17.5992 21.8041 19.7886 19.6323L26.2505 13.2221C26.2795 13.1934 26.2891 13.1552 26.3084 13.1265L32.6739 6.80241C35.278 4.21922 39.5313 4.20965 42.1354 6.80241C44.7394 9.39517 44.7394 13.6048 42.1354 16.188C39.5217 18.7808 35.278 18.7712 32.6739 16.188C31.7191 15.2408 30.1663 15.2408 29.2114 16.188C28.2566 17.1352 28.2566 18.6755 29.2114 19.6227C31.4683 21.8615 34.4389 22.9809 37.4095 22.9809C40.38 22.9809 43.341 21.8615 45.6075 19.6227C50.1308 15.1452 50.1308 7.85483 45.6075 3.36772ZM16.3261 16.188C13.7992 18.6947 9.39155 18.6947 6.86463 16.188C4.26056 13.5953 4.26056 9.38561 6.86463 6.80241C8.12809 5.54908 9.80627 4.86023 11.5905 4.86023C13.3748 4.86023 15.0626 5.54908 16.3261 6.80241L21.0617 11.5L16.3261 16.188Z" fill="url(#paint0_linear_530_6605)"/>
<defs>
<linearGradient id="paint0_linear_530_6605" x1="0.0326301" y1="18.5769" x2="51.7709" y2="15.2752" gradientUnits="userSpaceOnUse">
<stop stop-color="#2F8848"/>
<stop offset="1" stop-color="#D0E355"/>
</linearGradient>
</defs>
</svg>
