<svg width="39" height="39" viewBox="0 0 39 39" fill="none" xmlns="http://www.w3.org/2000/svg">
<path d="M38.3717 11.4617L27.5383 0.628333C27.1231 0.23241 26.5737 0.00798089 26 0H6.5C4.77609 0 3.12279 0.68482 1.90381 1.90381C0.68482 3.12279 0 4.77609 0 6.5V32.5C0 34.2239 0.68482 35.8772 1.90381 37.0962C3.12279 38.3152 4.77609 39 6.5 39H32.5C34.2239 39 35.8772 38.3152 37.0962 37.0962C38.3152 35.8772 39 34.2239 39 32.5V13C38.992 12.4263 38.7676 11.8769 38.3717 11.4617ZM13 34.6667V30.3333C13 29.7587 13.2283 29.2076 13.6346 28.8013C14.0409 28.3949 14.592 28.1667 15.1667 28.1667H23.8333C24.408 28.1667 24.9591 28.3949 25.3654 28.8013C25.7717 29.2076 26 29.7587 26 30.3333V34.6667H13ZM32.5 34.6667H30.3333V30.3333C30.3333 28.6094 29.6485 26.9561 28.4295 25.7371C27.2105 24.5182 25.5572 23.8333 23.8333 23.8333H15.1667C13.4428 23.8333 11.7895 24.5182 10.5705 25.7371C9.35149 26.9561 8.66667 28.6094 8.66667 30.3333V34.6667H6.5C5.92536 34.6667 5.37426 34.4384 4.96794 34.0321C4.56161 33.6257 4.33333 33.0746 4.33333 32.5V6.5C4.33333 5.92536 4.56161 5.37426 4.96794 4.96794C5.37426 4.56161 5.92536 4.33333 6.5 4.33333H25.1117L34.6667 13.8883V32.5C34.6667 33.0746 34.4384 33.6257 34.0321 34.0321C33.6257 34.4384 33.0746 34.6667 32.5 34.6667ZM21.6667 10.8333C21.6667 11.408 21.4384 11.9591 21.0321 12.3654C20.6257 12.7717 20.0746 13 19.5 13H10.8333C10.2587 13 9.7076 12.7717 9.30127 12.3654C8.89494 11.9591 8.66667 11.408 8.66667 10.8333C8.66667 10.2587 8.89494 9.7076 9.30127 9.30127C9.7076 8.89494 10.2587 8.66667 10.8333 8.66667H19.5C20.0746 8.66667 20.6257 8.89494 21.0321 9.30127C21.4384 9.7076 21.6667 10.2587 21.6667 10.8333Z" fill="url(#paint0_linear_530_6585)"/>
<defs>
<linearGradient id="paint0_linear_530_6585" x1="0.0259709" y1="31.5" x2="41.336" y2="30.2626" gradientUnits="userSpaceOnUse">
<stop stop-color="#2F8848"/>
<stop offset="1" stop-color="#D0E355"/>
</linearGradient>
</defs>
</svg>
