<svg width="18" height="18" viewBox="0 0 18 18" fill="none" xmlns="http://www.w3.org/2000/svg">
<path d="M5.0625 2.25V3.9375M12.9375 2.25V3.9375M2.25 14.0625V5.625C2.25 4.69302 3.00552 3.9375 3.9375 3.9375H14.0625C14.9945 3.9375 15.75 4.69302 15.75 5.625V14.0625M2.25 14.0625C2.25 14.9945 3.00552 15.75 3.9375 15.75H14.0625C14.9945 15.75 15.75 14.9945 15.75 14.0625M2.25 14.0625V8.4375C2.25 7.50552 3.00552 6.75 3.9375 6.75H14.0625C14.9945 6.75 15.75 7.50552 15.75 8.4375V14.0625M9 9.5625H9.00563V9.56813H9V9.5625ZM9 11.25H9.00563V11.2556H9V11.25ZM9 12.9375H9.00563V12.9431H9V12.9375ZM7.3125 11.25H7.31813V11.2556H7.3125V11.25ZM7.3125 12.9375H7.31813V12.9431H7.3125V12.9375ZM5.625 11.25H5.63063V11.2556H5.625V11.25ZM5.625 12.9375H5.63063V12.9431H5.625V12.9375ZM10.6875 9.5625H10.6931V9.56813H10.6875V9.5625ZM10.6875 11.25H10.6931V11.2556H10.6875V11.25ZM10.6875 12.9375H10.6931V12.9431H10.6875V12.9375ZM12.375 9.5625H12.3806V9.56813H12.375V9.5625ZM12.375 11.25H12.3806V11.2556H12.375V11.25Z" stroke="#858C97" stroke-width="1.125" stroke-linecap="round" stroke-linejoin="round"/>
</svg>
