<svg width="32" height="32" viewBox="0 0 32 32" fill="none" xmlns="http://www.w3.org/2000/svg">
<path d="M26.3963 5.90657C24.4842 5.0241 22.4337 4.37394 20.2899 4.00156C20.2508 3.99438 20.2118 4.01234 20.1917 4.04826C19.928 4.52001 19.6359 5.13545 19.4314 5.61919C17.1255 5.27196 14.8315 5.27196 12.5729 5.61919C12.3683 5.1247 12.0656 4.52001 11.8007 4.04826C11.7806 4.01353 11.7416 3.99557 11.7026 4.00156C9.55989 4.37275 7.50945 5.02291 5.59617 5.90657C5.57961 5.91376 5.56541 5.92574 5.55599 5.9413C1.66674 11.7856 0.601312 17.4863 1.12398 23.1164C1.12634 23.1439 1.14171 23.1703 1.163 23.187C3.72901 25.0824 6.21463 26.2331 8.6541 26.9958C8.69314 27.0078 8.73451 26.9934 8.75935 26.9611C9.33641 26.1685 9.8508 25.3327 10.2918 24.4538C10.3179 24.4023 10.293 24.3413 10.2398 24.3209C9.42391 24.0096 8.647 23.63 7.89966 23.199C7.84055 23.1643 7.83582 23.0792 7.8902 23.0385C8.04746 22.92 8.20477 22.7966 8.35494 22.6721C8.38211 22.6494 8.41997 22.6446 8.45192 22.6589C13.3616 24.9136 18.6769 24.9136 23.5287 22.6589C23.5606 22.6434 23.5985 22.6482 23.6268 22.6709C23.7771 22.7954 23.9343 22.92 24.0928 23.0385C24.1472 23.0792 24.1436 23.1643 24.0845 23.199C23.3372 23.6384 22.5602 24.0096 21.7431 24.3197C21.6899 24.3401 21.6663 24.4023 21.6923 24.4538C22.1428 25.3315 22.6572 26.1672 23.2236 26.9599C23.2473 26.9934 23.2898 27.0078 23.3289 26.9958C25.7802 26.2331 28.2658 25.0824 30.8318 23.187C30.8543 23.1703 30.8685 23.1451 30.8708 23.1176C31.4964 16.6086 29.8231 10.9547 26.4353 5.94249C26.427 5.92574 26.4128 5.91376 26.3963 5.90657ZM11.025 19.6883C9.54687 19.6883 8.32892 18.3233 8.32892 16.647C8.32892 14.9706 9.52325 13.6057 11.025 13.6057C12.5386 13.6057 13.7448 14.9826 13.7211 16.647C13.7211 18.3233 12.5268 19.6883 11.025 19.6883ZM20.9934 19.6883C19.5153 19.6883 18.2974 18.3233 18.2974 16.647C18.2974 14.9706 19.4917 13.6057 20.9934 13.6057C22.507 13.6057 23.7132 14.9826 23.6896 16.647C23.6896 18.3233 22.507 19.6883 20.9934 19.6883Z" fill="#8C8C8C"/>
</svg>
