<svg width="28" height="28" viewBox="0 0 28 28" fill="none" xmlns="http://www.w3.org/2000/svg">
<path d="M21.4611 8.19248C20.5339 8.19429 19.78 7.44357 19.7782 6.5164C19.7764 5.58922 20.5271 4.83533 21.4547 4.83352C22.3823 4.83171 23.1362 5.58287 23.138 6.51004C23.1394 7.43722 22.3887 8.19066 21.4611 8.19248Z" fill="#8C8C8C"/>
<path fill-rule="evenodd" clip-rule="evenodd" d="M14.0134 21.1878C10.0439 21.1956 6.81928 17.984 6.81159 14.0136C6.80386 10.0441 10.0162 6.81895 13.9857 6.81124C17.9561 6.80352 21.1812 10.0169 21.1889 13.9859C21.1966 17.9564 17.9833 21.1801 14.0134 21.1878ZM13.9907 9.33374C11.4143 9.33829 9.3286 11.4317 9.33314 14.0086C9.33812 16.586 11.432 18.6712 14.0084 18.6663C16.5858 18.6613 18.6714 16.5683 18.6664 13.9909C18.6614 11.4135 16.5676 9.32876 13.9907 9.33374Z" fill="#8C8C8C"/>
<path fill-rule="evenodd" clip-rule="evenodd" d="M4.80574 0.754225C5.6948 0.405855 6.71222 0.167256 8.20185 0.0969479C9.69513 0.0252847 10.1718 0.00894952 13.973 0.00169472C17.7751 -0.00556007 18.2518 0.00894672 19.7451 0.0751723C21.2352 0.139584 22.2531 0.374557 23.1439 0.719301C24.0656 1.07447 24.8476 1.55258 25.6269 2.3287C26.4062 3.10572 26.8861 3.88503 27.2458 4.80539C27.5938 5.69537 27.8323 6.7119 27.9031 8.20245C27.9739 9.69527 27.9911 10.1715 27.9984 13.9732C28.0056 17.7745 27.9902 18.2517 27.9249 19.7458C27.86 21.235 27.6255 22.2534 27.2808 23.1438C26.9247 24.0655 26.4475 24.8475 25.6714 25.6268C24.8953 26.4066 24.1151 26.8861 23.1947 27.2462C22.3048 27.5937 21.2882 27.8323 19.7986 27.9035C18.3054 27.9743 17.8286 27.991 14.0261 27.9983C10.2254 28.0056 9.74864 27.991 8.25539 27.9253C6.76529 27.86 5.74697 27.6254 4.85654 27.2812C3.93483 26.9246 3.15282 26.4479 2.37353 25.6713C1.5938 24.8947 1.11345 24.115 0.754201 23.1946C0.405834 22.3051 0.168125 21.2881 0.0969181 19.7989C0.0257085 18.3052 0.00893091 17.828 0.00167891 14.0268C-0.00560109 10.2251 0.00937611 9.7488 0.0746861 8.25552C0.140467 6.76497 0.374076 5.74707 0.718818 4.85574C1.07488 3.93446 1.55207 3.1529 2.32909 2.37315C3.1052 1.59386 3.88539 1.11302 4.80574 0.754225ZM5.76513 24.9292C6.25909 25.1193 7.00027 25.3461 8.36516 25.4055C9.84208 25.4694 10.2843 25.4835 14.0216 25.4762C17.7601 25.4694 18.2024 25.4536 19.6789 25.3842C21.0424 25.3193 21.7836 25.0898 22.2762 24.8974C22.9298 24.642 23.3952 24.3368 23.8842 23.8473C24.3732 23.3561 24.6757 22.8893 24.9288 22.2357C25.1193 21.7412 25.3457 20.9996 25.4051 19.6347C25.47 18.1587 25.4836 17.7159 25.4763 13.9778C25.4695 10.2405 25.4536 9.79778 25.3834 8.32129C25.3189 6.95729 25.0899 6.2161 24.8971 5.72394C24.6417 5.06939 24.3373 4.6049 23.8466 4.11545C23.3557 3.62601 22.889 3.32435 22.2345 3.07125C21.7414 2.88028 20.9993 2.65438 19.6353 2.59496C18.1584 2.5301 17.7157 2.51693 13.9776 2.5242C10.2403 2.53146 9.79809 2.54642 8.32161 2.61628C6.95718 2.68114 6.2169 2.91021 5.72337 3.103C5.07019 3.35838 4.60479 3.66184 4.11537 4.1531C3.62682 4.64435 3.32428 5.1102 3.07118 5.76521C2.88159 6.25875 2.6534 7.00084 2.5949 8.36484C2.53048 9.84178 2.51688 10.2845 2.52414 14.0218C2.53095 17.7599 2.54681 18.2027 2.61622 19.6782C2.68018 21.0431 2.91104 21.7834 3.10293 22.2774C3.3583 22.9301 3.66268 23.3955 4.15302 23.885C4.64427 24.3726 5.11103 24.6761 5.76513 24.9292Z" fill="#8C8C8C"/>
</svg>
