<svg width="224" height="230" viewBox="0 0 224 230" fill="none" xmlns="http://www.w3.org/2000/svg">
<g clip-path="url(#clip0_6246_5112)">
<path d="M98.1928 87.2877C82.9617 81.8348 68.8275 67.1321 73.4913 48.4381C74.8858 43.6233 77.5844 40.2325 80.3256 37.3161C86.5264 31.1065 93.2569 26.6925 101.965 23.8904C116.111 19.7294 131.792 17.9359 146.868 21.9313C162.499 25.8842 176.516 36.5258 184.888 49.9681C188.982 56.3064 191.851 63.3826 193.789 70.3171C193.977 70.9826 194.159 71.6471 194.334 72.3103C200.21 93.8839 196.728 116.677 188.816 136.372C180.673 156.849 168.569 174.999 155.897 192.281C151.819 197.829 147.653 203.297 143.497 208.741C143.159 209.186 142.813 209.604 142.462 210.009C142.286 210.21 142.109 210.409 141.933 210.602C141.845 210.699 141.758 210.794 141.674 210.885C141.633 210.93 141.591 210.975 141.558 211.011C141.541 211.029 141.526 211.046 141.523 211.048C141.522 211.048 141.523 211.048 141.546 211.016C141.554 211.004 141.583 210.968 141.645 210.867C141.669 210.825 141.713 210.755 141.774 210.61C141.805 210.535 141.842 210.44 141.878 210.283C141.887 210.243 141.896 210.199 141.903 210.151C141.905 210.139 141.936 209.961 141.925 209.74C141.946 209.336 141.571 208.39 140.836 208.057C140.146 207.726 139.694 207.852 139.515 207.878C139.436 207.894 139.373 207.912 139.318 207.929C139.211 207.963 139.139 207.995 139.082 208.021C138.97 208.074 138.913 208.109 138.869 208.136C144.484 204.959 150.403 204.768 155.382 202.78C155.827 202.603 156.164 202.58 156.54 202.604C156.731 202.621 156.925 202.648 157.198 202.752C157.339 202.81 157.496 202.876 157.718 203.059C157.924 203.226 158.259 203.626 158.294 204.18C158.327 204.723 158.107 205.074 157.983 205.249C157.845 205.436 157.736 205.529 157.635 205.612C157.447 205.76 157.314 205.829 157.185 205.896C156.941 206.017 156.743 206.086 156.549 206.149C156.217 206.255 155.902 206.352 155.576 206.452C151.609 207.641 147.287 208.799 143.182 208.731C143.102 208.743 142.882 208.728 142.803 208.71C142.586 208.665 142.248 208.487 142.073 208.291C141.886 208.093 141.802 207.928 141.733 207.786C141.602 207.501 141.547 207.286 141.49 207.069C141.385 206.646 141.319 206.26 141.256 205.87C141.133 205.095 141.038 204.339 140.945 203.575C140.862 202.89 140.767 202.181 140.674 201.488C140.027 196.789 139.345 192.078 138.819 187.349C138.746 186.692 138.742 186.052 138.811 185.572C138.879 185.092 139.014 184.811 139.186 184.789C139.359 184.768 139.56 185.007 139.752 185.452C139.943 185.896 140.109 186.51 140.221 187.157C141.031 191.857 141.997 196.529 142.933 201.241C143.062 201.896 143.19 202.556 143.31 203.216C143.446 203.958 143.584 204.694 143.74 205.397C143.818 205.747 143.901 206.093 143.99 206.368C144.031 206.501 144.085 206.626 144.091 206.621C144.089 206.616 144.08 206.564 143.957 206.431C143.847 206.297 143.538 206.138 143.433 206.122L142.835 206.089C146.15 205.921 148.739 205.169 151.716 204.206C152.685 204.645 153.893 204.84 155.935 204.391C155.975 204.382 156.013 204.373 156.05 204.365C156.164 204.336 156.28 204.302 156.38 204.259C156.428 204.239 156.475 204.214 156.499 204.199C156.535 204.185 156.479 204.178 156.5 204.342C156.558 204.487 156.588 204.437 156.552 204.43C156.523 204.415 156.471 204.4 156.417 204.393C156.308 204.379 156.181 204.391 156.092 204.426C155.406 204.704 154.703 204.987 154.124 205.262C153.152 205.723 152.439 206.155 151.76 206.564C151.049 206.99 150.369 207.385 149.455 207.709C147.907 208.259 146.503 208.962 145.15 209.77C144.658 210.064 144.173 210.372 143.696 210.694C142.833 211.088 142.023 211.525 141.29 212.018C141.228 212.056 141.151 212.104 141.004 212.173C140.929 212.207 140.835 212.248 140.696 212.292C140.626 212.314 140.544 212.337 140.443 212.358C140.212 212.391 139.632 212.553 138.749 212.129C137.808 211.702 137.328 210.491 137.355 209.973C137.34 209.69 137.381 209.461 137.382 209.446C137.392 209.383 137.403 209.327 137.414 209.276C137.461 209.074 137.51 208.95 137.549 208.852C137.629 208.664 137.688 208.569 137.722 208.51C137.807 208.37 137.86 208.303 137.878 208.278C137.929 208.209 137.951 208.181 137.974 208.152C138.015 208.101 138.041 208.069 138.068 208.036C138.117 207.976 138.159 207.924 138.2 207.875C138.281 207.775 138.356 207.684 138.43 207.592C138.578 207.409 138.721 207.228 138.86 207.048C139.138 206.688 139.4 206.328 139.638 205.972C141.32 203.48 143.014 200.971 144.699 198.458C145.886 196.922 146.991 195.468 147.836 194.218C148.598 193.09 149.2 191.969 149.755 190.843C150.182 190.192 150.61 189.538 151.037 188.882C153.79 184.655 156.493 180.397 159.102 176.102C161.382 172.915 163.735 169.532 166.51 164.981C167.705 163.018 168.917 161.102 170.058 159.244C171.744 156.501 173.273 153.882 174.369 151.467C175.103 149.852 176.004 148.227 176.882 146.584C178.057 144.388 179.187 142.157 179.795 139.978C180.179 138.605 180.466 137.322 180.715 136.137C181.112 134.251 181.423 132.599 181.895 131.183C182.786 128.509 183.285 126.123 183.675 124.017C184.143 121.49 184.456 119.366 185.075 117.585C185.169 117.314 185.281 117.005 185.406 116.656C186.058 114.826 187.1 111.842 187.392 107.401C187.493 105.823 187.413 104.329 187.3 102.877C187.136 100.76 186.906 98.7407 187.025 96.5748C187.043 96.2522 187.121 95.9142 187.191 95.6053C187.28 95.2128 187.354 94.8678 187.275 94.6673C187.045 94.0798 186.775 93.1455 186.457 92.1483C186.224 91.4172 185.966 90.6474 185.693 89.9453C185.156 85.0774 184.168 80.2821 182.738 75.6077C182.552 74.9978 182.362 74.3924 182.167 73.7915C181.377 71.3556 180.507 68.9974 179.518 66.7275C179.331 65.4355 179.065 64.1311 178.657 62.8018C178.12 61.0659 177.106 58.9553 175.547 56.374C175.516 56.3222 175.484 56.2701 175.453 56.2178C174.297 54.3276 172.894 52.2234 171.115 49.8625C167.747 45.3337 163.136 41.744 159.948 39.9515C159.273 39.563 158.589 39.1913 157.849 38.8139C155.02 37.4342 151.472 35.6318 144.213 33.9116C137.328 32.3562 131.219 32.1336 126.65 32.2478C124.31 32.3103 122.367 32.4671 120.875 32.6387C118.332 32.9289 115.208 33.4066 112.096 34.0692C109.687 34.5783 107.302 35.1868 105.168 35.8108C103.414 36.3347 101.738 37.1044 100.588 37.7095C99.7709 38.1388 98.9252 38.6288 98.0314 39.1934C95.5893 40.7624 92.564 42.8976 89.5229 46.1875C87.2803 48.6675 86.3632 50.5053 85.9735 51.6825C85.7567 52.3979 85.6027 53.0482 85.4896 53.7414C85.3318 54.7201 85.0822 55.6082 84.9259 56.5994C84.7118 57.9888 84.6804 59.64 85.7337 61.559C85.9799 62.003 86.2945 62.458 86.6442 62.9185C87.2884 63.7685 88.0541 64.6413 88.7682 65.6199C89.0175 65.9615 89.204 66.2949 89.3954 66.6216C89.606 66.9804 89.8229 67.3316 90.1393 67.6657C91.3221 68.9159 92.6344 70.0205 93.8493 70.9156C95.4225 72.0783 96.8473 72.9065 97.6856 73.4435C99.1965 74.4137 101.045 75.1291 102.748 75.4955C103.994 75.792 105.349 75.7677 105.389 75.7269C105.411 75.7392 105.009 75.7611 104.38 76.3627C103.719 76.9838 103.506 77.9577 103.52 78.1258C103.553 74.7595 102.553 70.9375 100.354 67.5295C99.2038 65.7488 98.2708 64.168 96.7833 62.2201C95.8529 61.0182 94.6931 59.6807 93.0016 58.2049C92.0513 57.3776 91.0607 56.8655 90.1585 56.4366C89.3208 56.0378 88.5258 55.689 87.803 55.1949C87.1609 54.7575 86.846 54.3009 86.5375 53.8654C86.1962 53.3836 85.8647 52.9286 85.0839 52.608C84.6691 52.4385 84.1183 52.3218 83.4703 52.2018C83.2134 52.154 82.9391 52.1045 82.6503 52.0509C82.6838 52.0092 82.7049 51.9682 82.7186 51.9362C82.816 51.7102 82.0732 51.256 81.3254 50.8359C81.0277 50.6678 80.7284 50.5037 80.4866 50.3556C79.5985 49.8043 77.7515 49.1654 76.3105 48.7944C75.7013 48.6345 75.167 48.421 74.5371 48.1826C73.9782 47.9716 73.3436 47.7405 72.5126 47.5282C72.0391 47.4076 71.6829 47.273 71.3872 47.1627C71.1732 47.0829 70.9904 47.0161 70.817 46.9791C70.6673 46.9471 70.5326 46.9979 70.3832 47.0559C70.2755 47.0977 70.1589 47.1432 70.0212 47.1644C69.692 47.2149 69.2843 47.1907 69.0041 47.1254C68.8748 47.0952 68.7744 47.0557 68.6746 47.0167C68.5583 46.9713 68.4426 46.926 68.2792 46.8971C67.5315 46.7653 66.7779 46.7819 66.0116 46.8185C65.1702 46.859 64.2913 46.9209 63.3237 46.845C63.019 46.8211 62.6948 46.7715 62.3807 46.7267C62.0529 46.6797 61.7258 46.6385 61.453 46.6352C60.34 46.6218 59.3251 46.877 58.4002 47.142C57.7868 47.3181 57.2255 47.4967 56.6923 47.6036C55.7095 47.8024 55.2353 48.1196 54.8913 48.35C54.7129 48.4703 54.5707 48.5696 54.4095 48.6267C54.2551 48.6558 54.0989 48.6853 53.9464 48.7144C53.8044 48.7328 53.6579 48.7527 53.5261 48.7918C53.516 48.7947 53.5063 48.7982 53.4964 48.8011C52.6467 48.9667 51.8234 49.1378 51.005 49.3442C49.1913 49.8001 47.413 50.4284 45.8227 51.4971C45.4822 51.7264 45.1755 52.0267 44.8784 52.3366C44.5134 52.7168 44.1614 53.1122 43.7441 53.4321C42.7485 54.1951 41.7376 54.9531 40.8037 55.8026C40.6642 55.9295 40.5263 56.0585 40.3906 56.1897C39.0622 57.495 37.8949 58.8992 37.2055 60.4305C36.9531 60.9907 36.7637 61.5732 36.593 62.1537C36.4977 62.4777 36.4071 62.8036 36.3122 63.1281C36.2411 63.013 36.1618 62.93 36.0879 62.8525C35.936 62.6927 35.8049 62.5551 35.8232 62.195C35.8636 61.3457 35.8923 60.3218 35.5326 60.2256C35.4345 60.2002 35.3518 60.1264 35.2696 60.0501C35.0644 59.8598 34.851 59.6582 34.364 60.2599C34.0341 60.6627 33.2396 61.7436 33.0698 62.6021C33.0323 62.7874 33.0673 62.9269 33.1068 63.0813C33.1788 63.3594 33.2599 63.6845 32.998 64.4241C32.9541 64.5489 32.9058 64.6838 32.8556 64.8241C32.6548 65.3821 32.4489 66.0138 32.5006 66.2959C32.5598 66.6206 32.762 66.628 32.996 66.6394C33.3021 66.653 33.6587 66.6778 33.8539 67.3722C33.8927 67.5096 33.8465 67.7281 33.8132 67.8936C33.7896 68.0102 33.7726 68.0996 33.7933 68.116C33.8172 68.1346 33.8853 68.1177 33.9717 68.0963C34.2793 68.0206 34.7972 67.8981 34.4499 69.0432C34.3577 69.3541 34.2298 69.7037 34.1191 70.0196C33.9556 70.4848 33.8292 70.8773 33.8887 70.9488C33.9114 70.9758 33.9379 70.9978 33.9661 71.0175C33.8593 71.3939 33.7577 71.7727 33.6613 72.154C33.4613 72.625 33.3179 73.326 33.1731 74.2008C33.1379 74.4137 33.102 74.6385 33.0655 74.8726C32.9225 75.6428 32.7994 76.4205 32.6955 77.2002C32.5901 77.8161 32.468 78.4792 32.3222 79.1776C32.0309 80.5758 31.6764 81.8232 31.366 83.0582C31.2355 83.5798 31.1133 84.1037 31.0104 84.6366C30.988 84.4322 30.9647 84.2455 30.9364 84.103C30.745 83.127 30.4207 82.7347 30.1184 82.3684C29.9184 82.1246 29.7303 81.8936 29.6153 81.508C29.4067 80.7993 29.1458 80.8595 28.9495 80.9063C28.8481 80.9303 28.7651 80.9486 28.7191 80.8521C28.6822 80.7742 28.6696 80.5965 28.6577 80.4132C28.6473 80.2534 28.6372 80.0883 28.6106 79.9817C28.2946 78.6869 28.0543 79.0476 27.6973 79.598C27.5017 79.9008 27.2763 80.2596 26.9853 80.4191C26.6792 80.554 26.5892 80.5028 26.5014 79.8024C26.3263 80.3362 26.1588 80.8758 25.9989 81.4208C26.0043 81.6363 26.095 81.7984 26.2474 82.0269C26.5174 82.4344 26.6207 83.7464 26.7399 84.7707C26.7933 85.2416 26.8459 85.6514 26.9008 85.8813C27.1978 87.1032 27.4929 86.7182 27.7472 86.3897C27.8881 86.2081 28.0196 86.0428 28.1348 86.1591C28.1841 86.2085 28.2254 86.1311 28.2679 86.0534C28.3006 85.9932 28.3341 85.9317 28.3718 85.9272C28.6454 85.8967 28.8885 86.595 29.1295 87.2365C29.267 87.6051 29.4024 87.9503 29.5299 88.1363C29.5687 88.1929 29.6072 88.2371 29.6444 88.2785C29.6987 88.3388 29.7506 88.3976 29.7997 88.4926C29.9113 88.709 30.0191 89.1661 30.1447 89.6661C30.209 89.9225 30.2778 90.19 30.3526 90.4415C30.4496 90.7672 30.574 90.8698 30.7039 90.9798C30.7958 91.0572 30.8906 91.1383 30.9826 91.2984C31.1486 91.5883 31.2862 92.2014 31.424 92.7701C31.4838 93.0177 31.5436 93.257 31.6027 93.4573C31.6267 93.5385 31.6523 93.5746 31.6791 93.5788C31.933 94.5009 32.2003 95.3775 32.4763 96.227C33.887 100.473 35.3186 104.02 37.2608 109.439C37.6335 110.462 38.116 111.531 38.6536 112.584C40.1571 116.055 41.8921 119.441 43.8413 122.694C44.0395 123.462 44.3655 124.339 44.8548 125.338C45.7705 127.205 46.9748 128.952 48.5005 130.938C49.6249 132.397 50.9203 133.984 52.4776 135.824C53.868 137.465 55.3877 139.075 57.0591 140.603C58.649 142.042 60.2092 143.427 61.8955 144.872C65.6078 148.052 69.8113 151.521 72.8848 153.957C74.5641 155.29 76.1443 156.788 77.726 158.247C79.8582 160.231 81.8407 162.015 83.3575 162.648C83.8533 162.859 84.3785 162.98 84.882 163.091C85.2405 163.169 85.5894 163.245 85.9083 163.342C86.6153 163.885 87.3411 164.434 88.0194 164.944C89.1545 166.037 91.0388 167.641 93.1335 168.632C93.9127 169.165 94.5826 169.619 95.3561 170.122C96.8982 171.129 98.5319 172.125 100.138 173.002C100.67 173.293 101.199 173.572 101.753 173.849C101.758 173.852 101.763 173.855 101.768 173.857C102.855 174.404 103.994 174.92 105.119 175.38C105.606 175.578 106.089 175.768 106.585 175.954C107.837 176.426 109.128 176.865 110.416 177.317C111.085 177.553 111.78 177.801 112.465 178.056C113.579 178.471 114.689 178.914 115.792 179.392C117.577 180.164 119.279 180.998 120.968 181.895C121.243 182.041 121.499 182.212 121.675 182.369C121.851 182.526 121.933 182.656 121.896 182.729C121.86 182.802 121.706 182.815 121.475 182.772C121.244 182.729 120.953 182.634 120.67 182.513C118.925 181.765 117.179 181.085 115.369 180.47C114.249 180.09 113.132 179.747 112.008 179.429C111.317 179.233 110.616 179.044 109.934 178.866C108.625 178.521 107.289 178.183 105.964 177.801C105.44 177.65 104.925 177.495 104.403 177.328C103.195 176.945 101.955 176.494 100.772 176.012C100.765 176.009 100.758 176.006 100.751 176.003C100.152 175.758 99.5832 175.514 99.0078 175.256C97.2623 174.473 95.4911 173.567 93.8257 172.654C92.8815 172.133 92.0691 171.674 91.1097 171.109C90.6286 170.827 90.1415 170.538 89.6476 170.239C89.3793 170.077 89.0969 169.904 88.8225 169.735C82.6567 165.938 76.7952 161.831 70.8919 157.554C65.1241 153.368 59.4092 149.046 53.7237 144.661C53.6788 144.626 53.634 144.591 53.5892 144.557C47.6402 139.91 42.6014 134.312 38.2788 128.214C23.3987 106.835 13.5923 74.6108 32.6192 49.7385C49.4862 30.9307 75.9933 34.5707 94.6272 44.7503C100.999 48.4187 107.103 53.5706 111.26 60.4572C114.465 65.728 116.306 72.0484 116.195 78.3886C116.185 80.3526 115.515 83.065 113.519 85.1488C111.601 87.166 109.31 87.9092 107.725 88.2135C103.427 88.8823 100.874 88.055 98.1928 87.2877Z" fill="#FFADE5"/>
</g>
<defs>
<clipPath id="clip0_6246_5112">
<rect width="230" height="230" fill="white"/>
</clipPath>
</defs>
</svg>
