<svg width="162" height="168" viewBox="0 0 162 168" fill="none" xmlns="http://www.w3.org/2000/svg">
<path d="M147.101 131.568C139.288 134.006 131.222 135.932 123.26 137.812C116.732 139.353 112.133 139.344 108.298 139.184C107.021 139.131 107.137 138.703 107.406 138.484C108.988 137.197 114.343 137.621 122.165 135.685C130.476 133.628 141.278 130.091 147.848 124.501C152.524 120.523 156.289 115.981 159.142 110.562C160.084 108.772 158.983 115.04 157.912 119.268C154.809 131.521 151.5 143.699 148.253 155.912C146.633 162.002 145.698 164.939 145.483 165.211C145.158 165.621 144.197 160.988 144.09 154.782C144.03 151.325 144.221 146.184 142.999 142.481C142.53 141.06 137.591 146.776 137.223 147.17C125.013 160.257 98.5428 164.024 82.095 163.32C22.7725 160.782 -7.15251 102.902 5.2724 62.2816C18.2724 19.7816 60.2725 -7.21836 113.772 5.78163" stroke="#A181ED" stroke-width="5" stroke-linecap="round"/>
</svg>
