<svg width="230" height="230" viewBox="0 0 230 230" fill="none" xmlns="http://www.w3.org/2000/svg">
<path d="M68.0587 181.124C59.2404 172.806 50.6377 167.053 43.5997 153.464C37.3922 139.63 37.6408 137.034 34.6149 120.225C32.9082 108.406 34.7147 96.3977 37.0577 88.0295C38.0795 84.2524 39.1435 81.2082 39.8642 78.9339C42.4518 71.6488 44.1112 71.5145 50.059 62.562C56.4556 53.8313 61.8531 49.684 69.8478 44.8932C77.5899 39.3428 104.252 29.5279 114.055 26.5239C114.805 26.2522 115.551 25.9942 116.29 25.7493C125.508 22.5961 136.355 22.6032 142.83 23.6261C142.9 23.6354 142.968 23.6448 143.035 23.6541C145.239 23.947 146.951 24.4811 148.175 25.0135C148.696 25.2374 148.901 25.4328 148.866 25.5372C148.866 25.5373 148.866 25.5374 148.865 25.5374C148.819 25.6692 148.4 25.66 147.717 25.4678C146.353 25.0764 144.675 24.8038 142.728 24.7237C139.946 24.5942 136.67 24.7364 133.138 25.3005C125.682 26.6135 122.701 27.1429 117.094 28.5583C114.306 29.3132 110.869 30.2748 106.061 31.9645C91.6145 37.3362 83.1863 41.2322 68.3251 50.9452C54.5078 61.9563 51.9753 66.0089 42.6819 88.642C42.5922 88.9071 42.5049 89.171 42.4201 89.4339C36.5756 112.883 39.6198 116.895 47.0098 139.479C55.1703 162.803 79.3171 185.335 93.8538 188.747C97.5133 189.926 101.615 190.823 106.009 191.103C118.547 191.994 133.663 189.183 146.315 180.537C148.451 179.097 150.547 177.453 152.557 175.617C155.511 172.917 158.391 169.856 161.408 166.631C161.621 166.405 161.842 166.169 162.126 165.889C162.455 165.6 162.612 165.304 163.698 164.7C163.985 164.561 164.405 164.363 165.099 164.283C165.774 164.187 166.814 164.378 167.483 164.813C168.832 165.733 168.932 166.408 169.15 166.807C169.472 167.621 169.516 168.022 169.599 168.441C169.854 170.005 169.914 171.175 170.016 172.453C170.568 180.086 170.878 187.953 171.672 195.305C171.795 196.341 171.994 197.443 172.185 197.968C172.219 198.078 172.273 198.148 172.166 197.978C172.105 197.894 172.002 197.728 171.683 197.471C171.385 197.222 170.69 196.855 169.917 196.848C169.145 196.832 168.619 197.094 168.368 197.245C168.105 197.407 168.018 197.507 167.967 197.556C167.881 197.652 167.95 197.585 168.015 197.477C170.424 193.593 172.542 189.31 174.531 185.111C177.796 178.19 181.08 170.068 184.067 161.746C185.552 157.605 186.986 153.346 188.246 149.225C188.875 147.159 189.477 145.077 189.983 143.074C190.225 142.121 190.473 141.041 190.627 140.171C190.671 139.915 190.706 139.683 190.729 139.5C190.755 139.318 190.768 139.076 190.77 139.043C190.778 139.011 190.751 139.057 190.876 139.37C190.898 139.472 191.363 140.349 192.341 140.494C192.553 140.533 192.807 140.521 192.921 140.503C193.039 140.487 193.143 140.462 193.233 140.433C193.414 140.376 193.538 140.309 193.628 140.254C193.972 140.013 193.864 140.049 193.871 140.053C193.852 140.07 193.804 140.127 193.741 140.215C186.835 148.236 178.508 149.72 173.202 151.717C159.822 155.645 155.168 156.308 144.373 158.963C143.28 159.206 142.206 160.474 141.866 162.039C141.443 163.872 142.16 165.67 144.272 165.789C151.653 166.736 160.112 165.182 167.774 164.559C172.906 164.203 171.8 164.821 166.753 165.804C159.405 167.361 153.175 168.125 149.174 168.608C147.23 168.896 145.545 169.04 143.961 169.095C142.621 169.108 141.014 168.702 139.781 167.511C138.547 166.334 138.002 164.683 137.958 163.209C138.017 160.387 138.866 156.844 143.609 155.457C144.627 155.289 145.738 155.117 146.948 154.936C156.629 153.473 160.651 150.693 166.067 149.27C168.574 148.587 169.972 148.424 173.364 147.385C176.342 146.144 183.557 144.997 189.876 137.62C189.988 137.45 190.102 137.287 190.231 137.123C190.296 137.041 190.365 136.958 190.442 136.873C190.483 136.828 190.513 136.796 190.573 136.735C190.656 136.652 190.75 136.566 190.862 136.476C191.089 136.299 191.385 136.084 191.906 135.929C192.036 135.891 192.18 135.86 192.337 135.841C192.521 135.816 192.829 135.809 193.1 135.855C193.665 135.938 194.218 136.246 194.556 136.578C194.897 136.9 195.099 137.277 195.181 137.461C195.245 137.6 195.291 137.726 195.327 137.841C195.398 138.071 195.433 138.261 195.458 138.435C195.569 139.524 195.469 139.954 195.417 140.571C195.291 141.681 195.101 142.746 194.89 143.844C188.179 172.691 181.586 187.341 176.518 197.609C175.92 198.76 175.204 200.05 174.376 201.392C174.151 201.752 173.895 202.142 173.457 202.624C172.984 203.062 172.477 203.841 170.587 204.255C169.653 204.44 168.429 204.197 167.691 203.758C166.931 203.329 166.521 202.865 166.22 202.492C165.654 201.748 165.452 201.228 165.258 200.752C164.601 198.938 164.477 197.63 164.3 196.198C163.605 189.084 163.512 180.998 163.085 172.906C163.018 171.724 162.943 170.46 162.812 169.601C162.79 169.423 162.716 169.211 162.801 169.441C162.896 169.557 162.843 169.919 163.882 170.661C164.397 171.011 165.264 171.186 165.791 171.113C166.329 171.055 166.602 170.916 166.759 170.842C167.071 170.678 167.067 170.646 167.062 170.657C167.046 170.669 166.984 170.724 166.91 170.796C166.76 170.94 166.564 171.143 166.36 171.356C163.956 173.881 161.534 176.468 159.144 178.86C158.55 179.455 157.918 180.073 157.244 180.709C146.914 191.781 122.717 200.431 105.474 198.37C99.8458 198.002 95.0789 196.82 91.6081 195.796C76.8509 190.573 77.4602 188.933 68.0587 181.124Z" fill="#A181ED"/>
</svg>
