<svg width="253" height="263" viewBox="0 0 253 263" fill="none" xmlns="http://www.w3.org/2000/svg">
<g clip-path="url(#clip0_5862_9698)">
<g transform="translate(4, 32)">
<path d="M158.243 186.392C157.255 186.444 156.263 186.479 155.277 186.546C154.755 186.56 154.237 186.632 153.731 186.761C152.402 187.166 151.093 187.603 149.708 188.006L149.181 188.156L148.615 188.3L148.472 188.336L148.436 188.344L148.508 188.335L148.639 188.311C148.785 188.28 148.821 188.267 148.768 188.296C148.619 188.368 148.464 188.43 148.306 188.481C147.912 188.612 147.499 188.681 147.083 188.683C146.942 188.683 146.801 188.676 146.661 188.661C146.522 188.646 146.385 188.624 146.249 188.595C146.035 188.548 145.826 188.486 145.621 188.407C145.211 188.247 144.829 188.021 144.49 187.739C143.979 187.309 143.57 186.772 143.292 186.165C142.991 185.501 142.807 184.79 142.747 184.064C142.37 180.708 142.169 177.337 141.948 173.968C141.959 173.427 142.088 172.895 142.326 172.409C142.527 171.91 143.318 171.537 144.369 171.263C145.901 170.864 147.582 171.021 148.028 171.672C148.28 172.068 148.373 172.546 148.287 173.008C148.022 175.076 148.254 177.177 148.964 179.138C149.16 179.691 149.459 180.259 149.285 180.825C149.051 181.695 148.98 182.6 149.076 183.496L149.091 183.674C149.096 183.704 149.101 183.729 149.101 183.729L148.892 183.781C148.807 183.801 148.721 183.824 148.636 183.85C148.472 183.896 148.32 183.945 148.176 183.999C147.939 184.082 147.71 184.191 147.496 184.323C147.151 184.53 147.116 184.724 147.161 184.59L147.163 184.58L147.163 184.576L147.163 184.574C147.137 184.698 147.222 184.294 147.105 184.853L147.105 184.852L147.106 184.841C147.109 184.821 147.109 184.8 147.109 184.78C147.103 184.652 147.084 184.525 147.05 184.401L147.001 184.205L146.924 183.944C146.89 183.83 146.852 183.717 146.812 183.605L146.581 182.938L146.463 182.622L146.468 182.623L146.481 182.624C146.505 182.619 146.518 182.619 146.556 182.608C146.655 182.585 146.825 182.528 147.087 182.468L147.3 182.424L147.421 182.405C147.463 182.398 147.509 182.392 147.506 182.394L147.614 182.389C147.758 182.381 147.902 182.371 148.046 182.357C148.357 182.319 148.658 182.277 148.975 182.22C149.601 182.111 150.235 181.983 150.88 181.9C153.183 181.6 155.519 181.324 157.841 180.999C158.768 180.871 159.736 181.144 160.806 182.228C161.294 182.705 161.567 183.916 161.271 184.476L161.11 184.764C161.056 184.839 160.995 184.909 160.928 184.974C160.803 185.103 160.675 185.223 160.543 185.334C160.289 185.549 160.016 185.74 159.727 185.905C159.248 186.108 158.742 186.24 158.225 186.296L158.243 186.392Z" fill="#FFADE5"/>
</g>
<path d="M194.951 149.03C197.456 144.481 199.862 139.886 202.052 135.21C204.215 130.528 206.217 125.786 207.916 120.969C209.597 116.202 210.92 111.315 211.873 106.35C212.06 105.118 212.308 103.902 212.451 102.653L212.804 98.8817C213.045 96.3742 213.151 93.8556 213.123 91.3368C213.148 90.0068 213.097 88.6765 212.97 87.3524L212.839 85.3625C212.815 84.6986 212.753 84.0366 212.654 83.3798L212.055 79.4493L211.907 78.4655L211.672 77.503L211.203 75.5765L210.737 73.6483C210.585 73.0039 210.33 72.3941 210.131 71.7649L209.498 69.8901C209.306 69.2595 209.08 68.6394 208.822 68.0326L207.234 64.4153C206.66 63.232 205.989 62.0976 205.372 60.9374C201.826 54.8329 197.287 49.3625 191.941 44.7513C189.262 42.4088 186.415 40.2664 183.422 38.3416C183.051 38.105 182.674 37.831 182.308 37.6244L181.21 36.9944L180.115 36.3601L178.969 35.8109C178.214 35.424 177.439 35.0785 176.647 34.7759C175.848 34.4832 175.081 34.1131 174.254 33.8905C161.315 29.5698 145.959 31.8358 135.217 40.2504C132.521 42.3587 130.086 44.7808 127.963 47.4655C125.859 50.1643 124.067 53.093 122.623 56.1955C119.716 62.3144 118.374 69.0593 118.717 75.8249C118.752 77.3446 118.977 78.8539 119.388 80.3176C119.613 81.4067 120.103 82.4234 120.815 83.2777C120.957 83.4341 121.113 83.5774 121.28 83.7058C121.432 83.822 121.595 83.9233 121.766 84.0084C122.151 84.2097 122.568 84.3404 122.999 84.3946C124.136 84.5072 125.283 84.337 126.338 83.8991C127.51 83.4443 128.568 82.7388 129.438 81.832C130.313 80.8742 130.974 79.7411 131.377 78.508C132.312 75.8971 132.304 72.6775 131.636 69.518C131.197 67.5344 130.541 65.6051 129.68 63.7648C128.794 61.9067 127.715 60.1465 126.462 58.5131C123.889 55.1846 120.733 52.3503 117.148 50.1478C113.485 47.904 109.506 46.2219 105.344 45.1576C103.251 44.614 101.118 44.2444 98.9647 44.0526C96.8148 43.8325 94.6513 43.775 92.4927 43.8807C88.1868 44.0642 83.9344 44.9062 79.8834 46.3773C77.8767 47.1727 75.913 48.0724 74.0003 49.0729L71.2117 50.7607L70.5131 51.1809C70.2864 51.3306 70.0714 51.4988 69.8499 51.6571L68.5287 52.6177C64.9923 55.1977 61.8129 58.2344 59.0732 61.6485C58.3604 62.4822 57.6921 63.3529 57.0711 64.257C56.4042 65.1291 55.7815 66.0341 55.2055 66.9687C54.6329 67.9063 54.0302 68.8256 53.4789 69.7757L51.9381 72.692C49.9956 76.6408 48.4555 80.7751 47.3412 85.0323C46.2984 89.2939 45.7032 93.6526 45.5652 98.0377C45.327 106.772 47.4718 115.468 51.0565 123.565C54.6254 131.692 59.7531 139.145 65.5455 145.981C71.4371 152.795 78.022 158.977 85.1939 164.427C93.7627 171.165 103 177.006 112.762 181.858C122.031 186.409 128.187 189.176 131.953 191.325C134.698 192.882 134.529 193.623 131.77 193.526C131.081 193.502 130.23 193.425 129.224 193.295C128.227 193.136 127.08 192.912 125.785 192.632C122.625 191.9 119.515 190.967 116.474 189.84C111.797 188.077 107.232 186.03 102.805 183.712C98.3145 181.339 93.9594 178.718 89.7598 175.862C80.216 169.423 71.5058 161.828 63.8281 153.249C56.1886 144.668 49.5961 135.022 45.1248 124.286C42.8674 118.897 41.2956 113.246 40.4465 107.466C39.6375 101.646 39.677 95.7407 40.5635 89.9328C42.3104 78.284 47.091 67.2997 54.4255 58.0827L55.9902 56.2071C56.2561 55.8977 56.5044 55.572 56.7859 55.2749L57.6414 54.3914C58.7583 53.1797 59.9385 52.0278 61.1772 50.9408L63.0347 49.2908C63.6523 48.7376 64.3471 48.2753 65.0015 47.7643L66.9975 46.2689C67.691 45.8104 68.4043 45.38 69.1079 44.936C69.8174 44.5017 70.5128 44.0437 71.2351 43.6338L73.4588 42.5082C74.2077 42.1463 74.9242 41.7391 75.6987 41.4215C76.4749 41.1121 77.2338 40.7563 78.0225 40.4933C81.1022 39.3683 84.2968 38.5874 87.5481 38.1647C90.0899 37.8216 92.6549 37.6815 95.219 37.7457C97.7768 37.7956 100.328 38.0314 102.851 38.4513C107.924 39.2649 112.848 40.8255 117.464 43.0824C119.788 44.2257 122.01 45.5648 124.107 47.0851C126.217 48.6312 128.178 50.3711 129.964 52.2821C133.604 56.1696 136.359 60.7992 138.039 65.8525C138.917 68.4522 139.423 71.1629 139.542 73.9042C139.676 76.8221 139.202 79.7358 138.151 82.4611C137.577 83.9031 136.812 85.2613 135.876 86.4992C133.92 88.9791 131.305 90.8572 128.33 91.9182C126.796 92.4721 125.183 92.7778 123.553 92.8239C121.782 92.8574 120.023 92.5224 118.389 91.8402C117.54 91.4789 116.735 91.0224 115.989 90.4795C115.271 89.9451 114.613 89.3354 114.025 88.6608C112.932 87.393 112.062 85.9492 111.451 84.3906C110.893 83.002 110.501 81.5522 110.284 80.0714C110.065 78.715 109.946 77.3442 109.929 75.9702L109.874 73.9746C109.887 73.3111 109.929 72.6489 109.957 71.9863C110.084 69.3472 110.447 66.7248 111.044 64.1509C111.938 60.3614 113.246 56.6819 114.946 53.179C115.393 52.3189 115.791 51.4333 116.281 50.598L117.752 48.0937L119.377 45.6882C119.915 44.8844 120.546 44.146 121.128 43.3738C123.545 40.3434 126.288 37.588 129.308 35.1574C132.349 32.7333 135.664 30.6741 139.185 29.0219C146.23 25.7533 153.916 24.099 161.682 24.1796C165.561 24.1957 169.425 24.678 173.189 25.6161C176.982 26.545 180.645 27.9377 184.098 29.7627L186.375 31.0637C187.109 31.5083 187.786 31.9746 188.494 32.4297C189.913 33.3165 191.243 34.3455 192.611 35.3125C193.94 36.3366 195.26 37.3787 196.546 38.4607L198.431 40.1404L199.373 40.9817C199.679 41.2709 199.972 41.576 200.271 41.8727C205.132 46.5984 209.26 52.0237 212.518 57.9689C215.753 63.9266 218.097 70.3258 219.476 76.9628C220.709 83.5553 221.185 90.2671 220.893 96.9675L220.479 101.934C220.397 102.762 220.367 103.588 220.242 104.417L219.862 106.901C219.645 108.567 219.272 110.187 218.926 111.815C218.613 113.454 218.155 115.042 217.734 116.643C215.963 122.967 213.744 129.158 211.093 135.167C205.816 147.031 199.641 158.475 192.621 169.399C189.876 173.767 187.031 177.977 184.13 182.033C181.239 186.096 178.271 189.99 175.271 193.722C169.581 200.856 163.436 207.614 156.875 213.955C153.989 216.688 152.357 217.7 152.065 217.055C151.978 216.889 152.038 216.678 152.083 216.274C152.212 215.792 152.382 215.321 152.589 214.867C152.838 214.291 153.169 213.612 153.581 212.828C153.787 212.436 154.014 212.018 154.262 211.576C154.39 211.358 154.508 211.12 154.657 210.897C154.813 210.68 154.973 210.456 155.139 210.225C162.701 199.822 170.412 188.766 177.685 177.57C183.665 168.368 189.76 158.908 195.038 149.187C195.007 149.136 194.979 149.088 194.951 149.03Z" fill="#FFADE5"/>
</g>
<defs>
<clipPath id="clip0_5862_9698">
<rect width="230" height="230" fill="white" transform="translate(0 38.0571) rotate(-12.3153)"/>
</clipPath>
</defs>
</svg>
