<svg width="96" height="100" viewBox="0 0 96 100" fill="none" xmlns="http://www.w3.org/2000/svg">
<path d="M69.9448 65.464C69.5078 65.4868 69.0694 65.5025 68.6336 65.5322C68.403 65.5382 68.1737 65.57 67.9501 65.6269C67.3628 65.8062 66.7841 65.9992 66.1719 66.1774L65.939 66.2435L65.6888 66.3074L65.6257 66.323L65.6099 66.3269L65.6416 66.3228L65.6995 66.3123C65.7642 66.2983 65.7802 66.2926 65.7567 66.3053C65.6906 66.3373 65.6223 66.3646 65.5524 66.3872C65.3781 66.4453 65.1957 66.4755 65.0119 66.4766C64.9495 66.4767 64.8872 66.4735 64.8251 66.467C64.764 66.4604 64.7033 66.4506 64.6432 66.4376C64.5487 66.4171 64.456 66.3893 64.3658 66.3546C64.1843 66.2837 64.0155 66.1841 63.8658 66.0594C63.64 65.8695 63.459 65.6319 63.3359 65.3637C63.2033 65.0701 63.1219 64.7559 63.0953 64.4349C62.9285 62.9514 62.8398 61.4616 62.7419 59.9726C62.747 59.7334 62.8041 59.4982 62.9091 59.2833C62.998 59.0629 63.3477 58.8981 63.8123 58.777C64.4893 58.6006 65.2324 58.6697 65.4293 58.9576C65.541 59.1328 65.582 59.3438 65.5441 59.5481C65.427 60.4622 65.5295 61.391 65.8432 62.2575C65.9299 62.502 66.0621 62.7533 65.9851 63.0034C65.8815 63.3878 65.8502 63.788 65.8928 64.1838L65.8993 64.2626C65.9015 64.2757 65.9039 64.287 65.9039 64.287L65.8114 64.3097C65.7736 64.3187 65.7359 64.3289 65.6984 64.3403C65.6256 64.3609 65.5586 64.3824 65.495 64.4064C65.3899 64.443 65.2891 64.491 65.1944 64.5494C65.0418 64.6409 65.0263 64.7265 65.0462 64.6673L65.047 64.6632L65.0472 64.6612L65.0473 64.6602C65.0357 64.7153 65.0734 64.5366 65.0213 64.7836L65.0213 64.7831L65.0221 64.7785C65.0231 64.7695 65.0234 64.7604 65.0231 64.7514C65.0208 64.6948 65.0122 64.6387 64.9974 64.584L64.9756 64.4972L64.9415 64.382C64.9263 64.3315 64.9098 64.2815 64.8919 64.232L64.7898 63.9371L64.7375 63.7978L64.7399 63.7982L64.7459 63.7986C64.7563 63.7964 64.7619 63.7962 64.779 63.7916C64.8224 63.7813 64.8979 63.7561 65.0134 63.7294L65.1079 63.7102L65.1613 63.7015C65.1797 63.6986 65.2003 63.6958 65.1986 63.6966L65.2464 63.6945C65.3102 63.6912 65.3737 63.6865 65.4376 63.6806C65.575 63.6635 65.708 63.645 65.8479 63.6198C66.1249 63.5718 66.405 63.515 66.6901 63.4786C67.7081 63.3458 68.7404 63.2239 69.7667 63.08C70.1767 63.0238 70.6046 63.1445 71.0775 63.6233C71.293 63.8343 71.414 64.3693 71.2829 64.6172L71.2119 64.7446C71.1878 64.7777 71.1608 64.8087 71.1313 64.8371C71.0762 64.8941 71.0195 64.9471 70.9614 64.9961C70.8491 65.0913 70.7282 65.1759 70.6004 65.2489C70.3888 65.3386 70.1652 65.3967 69.9367 65.4214L69.9448 65.464Z" fill="#FFADE5"/>
<path d="M76.9023 44.9526C77.6102 43.6672 78.29 42.3684 78.9091 41.0471C79.5203 39.7236 80.0863 38.3835 80.5664 37.0223C81.0416 35.6748 81.4154 34.2938 81.6847 32.8906C81.7377 32.5422 81.8077 32.1985 81.8482 31.8457L81.948 30.7798C82.0159 30.0712 82.046 29.3594 82.0381 28.6475C82.0451 28.2716 82.0306 27.8957 81.9948 27.5214L81.9577 26.959C81.951 26.7714 81.9335 26.5843 81.9055 26.3987L81.7362 25.2879L81.6942 25.0098L81.6278 24.7378L81.4954 24.1933L81.3635 23.6484C81.3207 23.4663 81.2485 23.2939 81.1925 23.1161L81.0135 22.5862C80.9591 22.408 80.8953 22.2328 80.8224 22.0613L80.3737 21.039C80.2115 20.7045 80.0218 20.3839 79.8475 20.056C78.8452 18.3308 77.5623 16.7847 76.0515 15.4815C75.2945 14.8195 74.4898 14.214 73.644 13.67C73.5391 13.6031 73.4326 13.5257 73.3292 13.4673L73.0189 13.2893L72.7092 13.11L72.3855 12.9548C72.1721 12.8454 71.953 12.7478 71.729 12.6623C71.5035 12.5795 71.2865 12.475 71.0529 12.412C67.3961 11.1909 63.056 11.8313 60.0202 14.2095C59.2582 14.8053 58.57 15.4898 57.9701 16.2486C57.3753 17.0113 56.869 17.839 56.4609 18.7159C55.6393 20.4452 55.26 22.3514 55.357 24.2635C55.3669 24.693 55.4306 25.1196 55.5465 25.5332C55.6102 25.841 55.7488 26.1284 55.95 26.3698C55.9901 26.4141 56.034 26.4545 56.0814 26.4908C56.1243 26.5237 56.1703 26.5523 56.2187 26.5763C56.3274 26.6332 56.4454 26.6702 56.5672 26.6855C56.8885 26.7173 57.2126 26.6692 57.5108 26.5455C57.842 26.4169 58.141 26.2175 58.3869 25.9613C58.6342 25.6906 58.821 25.3703 58.9348 25.0218C59.1991 24.2839 59.197 23.374 59.0082 22.4811C58.8841 21.9205 58.6987 21.3752 58.4554 20.8551C58.2049 20.33 57.9001 19.8325 57.5459 19.3709C56.8186 18.4302 55.9267 17.6292 54.9135 17.0067C53.8782 16.3725 52.7536 15.8971 51.5774 15.5963C50.9861 15.4427 50.3831 15.3382 49.7746 15.2841C49.167 15.2218 48.5555 15.2056 47.9455 15.2355C46.7285 15.2873 45.5267 15.5253 44.3818 15.9411C43.8147 16.1658 43.2597 16.4201 42.7191 16.7029L41.931 17.1799L41.7336 17.2986C41.6695 17.341 41.6088 17.3885 41.5461 17.4332L41.1727 17.7047C40.1733 18.4339 39.2747 19.2921 38.5004 20.257C38.299 20.4926 38.1101 20.7387 37.9346 20.9942C37.7461 21.2407 37.5701 21.4965 37.4074 21.7606C37.2455 22.0256 37.0752 22.2854 36.9194 22.5539L36.4839 23.3781C35.9349 24.4941 35.4997 25.6625 35.1847 26.8657C34.89 28.0701 34.7218 29.302 34.6828 30.5413C34.6155 33.0099 35.2217 35.4674 36.2348 37.7558C37.2434 40.0528 38.6926 42.1589 40.3296 44.091C41.9947 46.0167 43.8558 47.7639 45.8827 49.3042C48.3044 51.2086 50.9152 52.8594 53.674 54.2307C56.2937 55.5167 58.0335 56.2987 59.0979 56.9061C59.8734 57.3463 59.8258 57.5556 59.046 57.5283C58.8512 57.5214 58.6107 57.4997 58.3265 57.463C58.0448 57.4181 57.7205 57.3546 57.3545 57.2755C56.4614 57.0686 55.5825 56.8051 54.723 56.4864C53.4013 55.9882 52.1112 55.4098 50.8598 54.7545C49.5908 54.0838 48.36 53.3432 47.1731 52.536C44.4758 50.7163 42.0141 48.5696 39.8443 46.1451C37.6852 43.7199 35.822 40.9939 34.5583 37.9597C33.9203 36.4367 33.4761 34.8396 33.2362 33.2058C33.0075 31.5612 33.0187 29.8921 33.2692 28.2507C33.7629 24.9585 35.114 21.8541 37.1869 19.2492L37.6291 18.7192C37.7043 18.6317 37.7744 18.5397 37.854 18.4557L38.0958 18.206C38.4114 17.8635 38.745 17.538 39.0951 17.2308L39.62 16.7645C39.7946 16.6081 39.9909 16.4775 40.1759 16.333L40.74 15.9104C40.936 15.7808 41.1376 15.6592 41.3364 15.5337C41.537 15.411 41.7335 15.2815 41.9376 15.1657L42.5661 14.8476C42.7777 14.7453 42.9802 14.6302 43.1991 14.5404C43.4185 14.453 43.633 14.3524 43.8559 14.2781C44.7263 13.9602 45.6291 13.7395 46.548 13.62C47.2664 13.523 47.9913 13.4834 48.716 13.5016C49.4388 13.5157 50.1597 13.5823 50.8729 13.701C52.3066 13.9309 53.6983 14.372 55.0027 15.0098C55.6595 15.333 56.2877 15.7114 56.8803 16.1411C57.4767 16.578 58.0309 17.0698 58.5357 17.6099C59.5644 18.7086 60.3429 20.017 60.8178 21.4451C61.0659 22.1799 61.2089 22.946 61.2427 23.7207C61.2803 24.5453 61.1464 25.3688 60.8493 26.139C60.6871 26.5466 60.4709 26.9304 60.2063 27.2803C59.6536 27.9812 58.9144 28.512 58.0737 28.8118C57.6401 28.9684 57.1844 29.0548 56.7236 29.0678C56.2231 29.0772 55.7261 28.9826 55.2642 28.7898C55.0243 28.6877 54.7967 28.5587 54.5859 28.4052C54.3831 28.2542 54.197 28.0819 54.0308 27.8912C53.722 27.5329 53.476 27.1249 53.3035 26.6844C53.1457 26.2919 53.035 25.8822 52.9736 25.4637C52.9116 25.0803 52.8781 24.6929 52.8734 24.3046L52.8579 23.7406C52.8615 23.5531 52.8733 23.3659 52.8813 23.1787C52.917 22.4328 53.0198 21.6917 53.1883 20.9642C53.441 19.8932 53.8108 18.8533 54.2912 17.8633C54.4175 17.6202 54.5301 17.37 54.6686 17.1339L55.0842 16.4261L55.5436 15.7463C55.6956 15.5191 55.8739 15.3104 56.0383 15.0922C56.7215 14.2358 57.4968 13.457 58.3503 12.7701C59.2097 12.085 60.1466 11.503 61.1415 11.0361C63.1326 10.1123 65.3048 9.64476 67.4997 9.66754C68.5961 9.6721 69.6879 9.8084 70.7518 10.0735C71.8237 10.336 72.8592 10.7296 73.8348 11.2454L74.4785 11.6131C74.686 11.7388 74.8773 11.8706 75.0773 11.9992C75.4784 12.2498 75.8542 12.5406 76.241 12.8139C76.6166 13.1033 76.9895 13.3979 77.353 13.7037L77.8859 14.1784L78.152 14.4161C78.2385 14.4979 78.3211 14.5841 78.4058 14.668C79.7796 16.0035 80.9463 17.5368 81.8671 19.2171C82.7811 20.9008 83.4436 22.7094 83.8335 24.5851C84.182 26.4483 84.3164 28.3452 84.234 30.2389L84.117 31.6425C84.0939 31.8765 84.0852 32.11 84.0499 32.3441L83.9426 33.0462C83.8812 33.5172 83.7757 33.975 83.6781 34.435C83.5896 34.8983 83.4603 35.3472 83.3413 35.7995C82.8406 37.5869 82.2134 39.3364 81.4644 41.0348C79.9729 44.3879 78.2276 47.6222 76.2436 50.7095C75.468 51.944 74.6639 53.1338 73.8441 54.2801C73.0269 55.4283 72.188 56.5288 71.3403 57.5837C69.7322 59.5997 67.9956 61.5098 66.1412 63.302C65.3254 64.0742 64.8643 64.3602 64.7816 64.178C64.7573 64.1309 64.7742 64.0715 64.7868 63.9573C64.8234 63.821 64.8713 63.6879 64.9299 63.5595C65.0002 63.3968 65.0937 63.2048 65.2102 62.9834C65.2684 62.8725 65.3326 62.7545 65.4028 62.6294C65.439 62.5678 65.4723 62.5006 65.5143 62.4376C65.5583 62.3762 65.6037 62.3129 65.6505 62.2477C67.7876 59.3076 69.967 56.1831 72.0225 53.0186C73.7126 50.4179 75.4351 47.7444 76.9267 44.9973C76.918 44.9828 76.9102 44.9692 76.9023 44.9526Z" fill="#FFADE5"/>
</svg>
