<svg width="230" height="230" viewBox="0 0 230 230" fill="none" xmlns="http://www.w3.org/2000/svg">
<path d="M152.503 154.174C158.012 152.474 163.486 150.681 168.862 148.662C171.57 147.702 174.248 146.67 176.858 145.5L177.843 145.074L178.814 144.622L180.755 143.719C181.408 143.427 182.031 143.089 182.669 142.774C183.307 142.459 183.935 142.126 184.566 141.797L184.612 141.774C185.015 141.564 185.47 141.474 185.923 141.516C186.376 141.557 186.807 141.728 187.166 142.007C187.524 142.286 187.795 142.663 187.946 143.092C188.097 143.521 188.122 143.984 188.017 144.426C186.513 150.451 184.571 156.357 182.205 162.098C180.437 166.506 178.536 170.85 176.603 175.163C175.634 177.314 174.665 179.464 173.697 181.614L172.973 183.222L172.221 184.815L170.735 188C169.695 190.25 168.667 192.499 167.679 194.753C167.169 195.879 166.713 197.01 166.228 198.138C165.751 199.267 165.324 200.4 164.869 201.531L164.845 201.591C164.623 202.142 164.202 202.588 163.665 202.842C163.128 203.096 162.516 203.137 161.95 202.959C161.383 202.78 160.905 202.395 160.611 201.879C160.317 201.364 160.228 200.756 160.362 200.178C161.7 194.415 162.972 188.62 163.631 182.746C163.801 181.28 163.956 179.812 164.072 178.342L164.161 176.133L164.207 173.926C164.243 170.997 164.132 168.067 163.873 165.149L167.968 166.239C165.592 169.844 162.835 173.184 159.744 176.198C153.494 182.182 146.113 186.859 138.034 189.956C134.01 191.507 129.844 192.663 125.595 193.405C121.348 194.148 117.043 194.51 112.732 194.486C108.415 194.44 104.113 193.984 99.882 193.125C95.6476 192.262 91.5139 190.963 87.5471 189.248C83.5885 187.559 79.8018 185.492 76.2394 183.077C69.6287 178.592 63.7684 173.092 58.8753 166.777C53.9632 160.512 50.016 153.547 47.1647 146.113C45.7447 142.399 44.6098 138.582 43.7699 134.696C43.34 132.755 43.0178 130.791 42.7413 128.821C42.6003 127.836 42.5136 126.844 42.3982 125.856C42.3257 124.865 42.2796 123.873 42.2198 122.882C41.8024 114.948 42.5317 106.996 44.3853 99.2709C48.2139 83.8447 55.9431 69.6614 66.8312 58.0822C67.1535 57.7075 67.5089 57.3641 67.8611 57.0177L68.9154 55.9762L71.0256 53.8954L73.2548 51.9407L74.37 50.9642C74.74 50.6366 75.1106 50.3098 75.507 50.0153L77.8441 48.1973L79.013 47.289C79.4012 46.9843 79.8193 46.7211 80.2211 46.435C81.8541 45.3289 83.4361 44.1438 85.1434 43.1543C91.8382 38.9884 98.9971 35.6197 106.474 33.1168C107.585 32.6964 108.739 32.4045 109.875 32.0567L111.586 31.5553L112.442 31.3058C112.729 31.2276 113.02 31.1647 113.308 31.0937L116.778 30.2703L117.646 30.0663L118.521 29.9018L120.272 29.5791L122.022 29.2589L122.896 29.0997L123.776 28.9813L127.289 28.5153L128.165 28.4003L129.045 28.3271L130.801 28.1817L132.553 28.0374L133.427 27.9655L134.302 27.9333C135.419 27.9 136.487 27.868 137.507 27.8375C138.017 27.8307 138.514 27.8026 139.001 27.8181L140.426 27.8627C142.279 27.9396 143.947 27.9694 145.442 28.1698C146.938 28.3387 148.263 28.4985 149.43 28.6892C150.595 28.9192 151.605 29.146 152.475 29.3677C155.008 30.0132 154.93 30.4332 152.704 30.6013C152.148 30.6432 151.457 30.6693 150.638 30.6785C150.229 30.6788 149.788 30.6792 149.314 30.6797C148.841 30.6813 148.335 30.7096 147.8 30.7187C146.728 30.7446 145.536 30.7582 144.224 30.7593L139.947 30.9116C131.837 31.2353 123.781 32.3777 115.901 34.3213C106.91 36.5292 98.2666 39.9639 90.2127 44.5287C89.2169 45.1108 88.2421 45.7288 87.2558 46.3269L85.7804 47.2311C85.2988 47.5479 84.8303 47.8843 84.3546 48.2099L81.5106 50.1788L78.7838 52.3039L77.4229 53.3695L76.127 54.5106C75.2654 55.2738 74.3938 56.0259 73.5404 56.7977L71.0902 59.2318C70.6857 59.6412 70.2649 60.0347 69.8737 60.4566L68.7229 61.7443C56.3024 75.3364 48.3377 93.0105 46.7397 111.237C46.6578 112.495 46.5756 113.759 46.493 115.028C46.4696 116.298 46.4922 117.573 46.4879 118.849L46.489 119.806L46.4906 120.284L46.5242 120.762L46.657 122.672C46.756 123.944 46.794 125.223 46.9768 126.481C47.108 127.745 47.3228 128.997 47.5143 130.247C47.7574 131.489 47.9669 132.733 48.2617 133.953C48.5175 135.182 48.8516 136.386 49.1546 137.589C49.5067 138.778 49.8197 139.971 50.2126 141.129C51.4044 144.857 52.8946 148.484 54.6689 151.973C56.4572 155.465 58.5165 158.812 60.8279 161.982C61.3875 162.789 62.0171 163.542 62.6081 164.326C63.2181 165.094 63.8553 165.84 64.4836 166.593C65.7871 168.06 67.1184 169.502 68.5325 170.861C71.3385 173.596 74.371 176.089 77.5973 178.313C87.2458 185.028 98.6232 188.825 110.371 189.25C114.257 189.387 118.147 189.192 121.999 188.665C123.044 188.545 124.075 188.33 125.115 188.169C126.143 187.948 127.18 187.763 128.2 187.505L129.733 187.128C130.247 187.01 130.748 186.848 131.256 186.71C132.274 186.439 133.274 186.108 134.275 185.78C135.278 185.459 136.256 185.064 137.246 184.707L138.706 184.102C139.194 183.904 139.683 183.707 140.159 183.482L141.601 182.833C142.079 182.612 142.545 182.365 143.018 182.133C143.97 181.679 144.883 181.153 145.808 180.647C149.475 178.562 152.911 176.093 156.058 173.283C159.197 170.465 162.007 167.302 164.436 163.854L164.476 163.797C164.716 163.456 165.056 163.199 165.449 163.06C165.841 162.921 166.268 162.907 166.668 163.021C167.069 163.136 167.424 163.371 167.685 163.696C167.946 164.021 168.099 164.419 168.123 164.835C168.312 168.166 168.322 171.505 168.153 174.837C168.097 176.499 167.922 178.15 167.826 179.805C167.72 181.46 167.57 183.11 167.396 184.756C167.095 187.519 166.713 190.269 166.306 193.015C166.105 194.389 165.857 195.754 165.591 197.115C165.323 198.476 165.047 199.835 164.741 201.187L160.659 199.96C162.492 195.065 164.596 190.366 166.706 185.688C168.786 180.998 171.068 176.425 173.194 171.793C175.331 167.168 177.412 162.528 179.28 157.823C181.183 153.163 182.767 148.38 184.022 143.506L186.514 145.404C182.714 147.399 178.838 149.19 174.919 150.857C171.026 152.59 167.045 154.083 163.057 155.538C155.075 158.432 146.968 160.912 138.831 163.236C134.725 164.406 130.667 165.495 126.657 166.5L126.242 163.353C129.34 163.381 132.402 163.507 135.417 163.559C138.433 163.623 141.402 163.707 144.323 163.812C150.159 164.03 155.792 164.34 161.16 164.858C164.449 165.18 165.962 165.716 165.707 166.137C165.45 166.568 163.444 166.886 159.641 166.975L126.242 167.912C125.524 167.932 124.822 167.689 124.271 167.229C123.719 166.768 123.354 166.122 123.245 165.412C123.137 164.701 123.291 163.976 123.68 163.371C124.069 162.767 124.665 162.325 125.357 162.13L125.475 162.097L125.497 162.091C134.405 159.598 143.559 157.144 152.45 154.28C152.466 154.244 152.484 154.208 152.503 154.174Z" fill="#A181ED"/>
</svg>
