<svg width="103" height="103" viewBox="0 0 103 103" fill="none" xmlns="http://www.w3.org/2000/svg">
<path d="M68.2948 69.043C70.7618 68.2818 73.2133 67.4786 75.6208 66.5747C76.8333 66.1447 78.0325 65.6825 79.2017 65.1588L79.6428 64.9678L80.0773 64.7655L80.9466 64.361C81.2391 64.2303 81.5182 64.079 81.804 63.9378C82.0897 63.7969 82.371 63.6476 82.6535 63.5006L82.6739 63.49C82.8545 63.396 83.0583 63.3559 83.2611 63.3744C83.4639 63.393 83.657 63.4693 83.8176 63.5944C83.9783 63.7196 84.0996 63.8882 84.1671 64.0803C84.2347 64.2723 84.2457 64.4798 84.1988 64.6779C83.5255 67.3758 82.6555 70.0209 81.5959 72.5917C80.8044 74.5657 79.9529 76.5109 79.0873 78.4424C78.6533 79.4058 78.2195 80.3688 77.7859 81.3316L77.4618 82.0517L77.1249 82.7651L76.4596 84.1915C75.9938 85.199 75.5336 86.206 75.0907 87.2156C74.8627 87.7195 74.6581 88.2261 74.4412 88.7313C74.2274 89.2369 74.0363 89.7444 73.8324 90.2509L73.8217 90.2776C73.7224 90.5242 73.5338 90.7243 73.2934 90.8379C73.0531 90.9514 72.7787 90.9701 72.5252 90.8902C72.2716 90.8103 72.0576 90.6376 71.9258 90.4067C71.7941 90.1758 71.7543 89.9037 71.8144 89.6448C72.4135 87.0641 72.983 84.4689 73.2779 81.8384C73.3543 81.1817 73.4237 80.5244 73.4757 79.8661L73.5157 78.8769L73.5363 77.8888C73.5523 76.5768 73.5024 75.2649 73.3867 73.958L75.2202 74.4461C74.1565 76.0607 72.9218 77.5561 71.5376 78.9062C68.7386 81.5858 65.4333 83.6803 61.815 85.0671C60.013 85.762 58.1474 86.2793 56.2448 86.6116C54.3429 86.9447 52.415 87.1068 50.4843 87.0959C48.5511 87.0754 46.6242 86.8713 44.7297 86.4862C42.8334 86.0997 40.9822 85.518 39.2058 84.7503C37.433 83.9937 35.7372 83.0682 34.1419 81.9865C31.1815 79.9783 28.5571 77.5149 26.3658 74.6873C24.1661 71.8814 22.3984 68.7622 21.1215 65.4334C20.4856 63.7701 19.9774 62.0608 19.6012 60.3203C19.4087 59.451 19.2644 58.5714 19.1406 57.6892C19.0774 57.2484 19.0386 56.804 18.9869 56.3615C18.9545 55.9178 18.9338 55.4737 18.9071 55.0296C18.7201 51.4768 19.0467 47.9156 19.8768 44.4561C21.5914 37.5478 25.0527 31.1961 29.9287 26.0107C30.073 25.8429 30.2322 25.6891 30.3899 25.534L30.862 25.0676L31.807 24.1357L32.8053 23.2604L33.3047 22.8231C33.4705 22.6764 33.6364 22.53 33.8139 22.3981L34.8605 21.584L35.384 21.1772C35.5578 21.0408 35.7451 20.9229 35.925 20.7948C36.6563 20.2994 37.3648 19.7687 38.1294 19.3256C41.1274 17.46 44.3334 15.9514 47.6819 14.8305C48.1794 14.6422 48.696 14.5115 49.2048 14.3558L49.9711 14.1312L50.3545 14.0195C50.4829 13.9845 50.6131 13.9563 50.7424 13.9245L52.2963 13.5558L52.6847 13.4644L53.0768 13.3908L53.861 13.2462L54.6444 13.1029L55.0358 13.0316L55.4299 12.9786L57.003 12.7699L57.3954 12.7184L57.7895 12.6856L58.5761 12.6205L59.3605 12.5558L59.7519 12.5236L60.144 12.5092C60.6441 12.4943 61.1224 12.48 61.5789 12.4663C61.8073 12.4633 62.0301 12.4507 62.248 12.4576L62.8862 12.4776C63.7161 12.512 64.4634 12.5254 65.1328 12.6151C65.8025 12.6908 66.3959 12.7624 66.9187 12.8477C67.4404 12.9507 67.8926 13.0523 68.2822 13.1516C69.4164 13.4406 69.3816 13.6287 68.3849 13.704C68.1357 13.7228 67.8262 13.7345 67.4595 13.7386C67.2764 13.7387 67.0788 13.7389 66.8668 13.7391C66.6549 13.7398 66.4283 13.7525 66.1884 13.7566C65.7084 13.7682 65.1747 13.7743 64.5872 13.7748L62.6718 13.843C59.0401 13.988 55.4323 14.4995 51.9034 15.3699C47.8772 16.3587 44.0063 17.8969 40.3995 19.9411C39.9536 20.2018 39.5171 20.4785 39.0753 20.7464L38.4146 21.1513C38.199 21.2932 37.9891 21.4438 37.7761 21.5896L36.5025 22.4713L35.2813 23.423L34.6719 23.9002L34.0916 24.4112C33.7057 24.753 33.3154 25.0898 32.9332 25.4355L31.836 26.5255C31.6548 26.7088 31.4664 26.8851 31.2912 27.074L30.7758 27.6507C25.2136 33.7376 21.6468 41.6525 20.9312 49.8147C20.8945 50.3781 20.8577 50.944 20.8207 51.5125C20.8102 52.0813 20.8203 52.6523 20.8184 53.2234L20.8189 53.652L20.8196 53.8663L20.8347 54.0802L20.8941 54.9357C20.9385 55.5054 20.9555 56.0779 21.0373 56.6414C21.0961 57.2077 21.1923 57.7683 21.2781 58.3281C21.3869 58.8843 21.4808 59.4411 21.6128 59.9877C21.7273 60.5379 21.8769 61.0771 22.0126 61.6158C22.1703 62.1484 22.3105 62.6827 22.4864 63.2013C23.0201 64.8709 23.6875 66.4948 24.4821 68.0572C25.2829 69.6212 26.2051 71.12 27.2402 72.5398C27.4908 72.901 27.7728 73.2385 28.0375 73.5892C28.3106 73.9332 28.596 74.2675 28.8774 74.6048C29.4611 75.2614 30.0573 75.9075 30.6906 76.5158C31.9472 77.7407 33.3052 78.8571 34.75 79.853C39.0708 82.8605 44.166 84.5608 49.427 84.7509C51.167 84.8126 52.9092 84.7249 54.6343 84.489C55.1022 84.4352 55.5641 84.3393 56.0295 84.2668C56.49 84.168 56.9544 84.0853 57.4114 83.9697L58.0979 83.8006C58.3278 83.7478 58.5523 83.6752 58.7798 83.6136C59.2357 83.4924 59.6834 83.344 60.1316 83.197C60.581 83.0535 61.0187 82.8766 61.4625 82.7164L62.1161 82.4456C62.3348 82.3571 62.5536 82.2686 62.7669 82.168L63.4123 81.8772C63.6266 81.7783 63.8351 81.668 64.047 81.564C64.4734 81.3605 64.8823 81.1251 65.2964 80.8984C66.9388 79.9645 68.4775 78.8591 69.8868 77.6008C71.2924 76.3388 72.551 74.9222 73.6387 73.3779L73.6566 73.3524C73.764 73.1999 73.9162 73.0846 74.0921 73.0223C74.268 72.9601 74.4589 72.9542 74.6383 73.0052C74.8177 73.0563 74.9768 73.1619 75.0936 73.3074C75.2104 73.453 75.279 73.6312 75.29 73.8174C75.3745 75.3091 75.379 76.8042 75.3034 78.2964C75.278 79.0407 75.1996 79.7803 75.1569 80.5214C75.1094 81.2624 75.0422 82.0013 74.9644 82.7386C74.8296 83.9758 74.6582 85.2074 74.476 86.4372C74.3863 87.0525 74.2752 87.6638 74.1558 88.2734C74.0361 88.8828 73.9121 89.4912 73.7754 90.0967L71.947 89.5475C72.7681 87.355 73.7101 85.2509 74.6551 83.1559C75.5866 81.0555 76.6087 79.0076 77.5605 76.9333C78.5179 74.8624 79.4495 72.7841 80.2863 70.6771C81.1383 68.5903 81.8478 66.4482 82.41 64.2655L83.5259 65.1157C81.8241 66.0093 80.0882 66.811 78.333 67.5577C76.5896 68.3336 74.8072 69.0026 73.0212 69.6539C69.4464 70.9502 65.8159 72.0607 62.1719 73.1012C60.3331 73.6255 58.5159 74.1127 56.7203 74.5631L56.5344 73.1537C57.9216 73.1661 59.2928 73.2227 60.6434 73.2458C61.994 73.2745 63.3233 73.3123 64.6314 73.3591C67.2452 73.4571 69.7678 73.5956 72.1716 73.8276C73.6445 73.9721 74.322 74.2121 74.2077 74.4005C74.0926 74.5934 73.1946 74.7357 71.4913 74.7757L56.5344 75.1953C56.2126 75.2044 55.8987 75.0956 55.6515 74.8894C55.4044 74.6832 55.2412 74.3938 55.1925 74.0757C55.1438 73.7575 55.213 73.4325 55.3872 73.1618C55.5613 72.8912 55.8284 72.6935 56.1381 72.6059L56.1908 72.5914L56.2008 72.5886C60.1902 71.4722 64.2892 70.3732 68.2712 69.0908C68.2783 69.0745 68.2861 69.0585 68.2948 69.043Z" fill="#A181ED"/>
</svg>
