<svg width="164" height="187" viewBox="0 0 164 187" fill="none" xmlns="http://www.w3.org/2000/svg">
<path d="M113.551 155.366C113.551 155.517 113.702 156.277 114.084 158.446C115.512 166.561 116.345 176.632 112.749 184.356C112.313 185.292 117.579 181.387 118.235 180.905C122.664 177.649 127.518 174.621 132.908 173.23C135.878 172.464 128.735 175.946 126.859 176.861C124.769 177.882 121.683 179.081 120.265 179.579C112.97 182.142 111.459 183.256 117.301 176.032C117.746 175.481 118.293 174.963 120.426 172.001C122.559 169.039 126.278 163.661 132.596 150.286C143.688 126.804 157.795 99.9285 161.066 73.7876C164.161 49.0515 150.451 22.2689 128.365 10.1349C105.547 -2.4005 83.0125 0.511406 65.6161 18.7869C59.8564 24.8377 53.3567 39.7516 58.2082 54.8821C61.6942 65.7542 73.3538 69.6719 78.6887 67.4938C88.2753 63.5799 90.454 45.6084 77.8172 38.3567C55.9105 25.7855 24.2063 17.1475 8.37971 43.067C-1.49006 59.2309 2.86748 86.1936 8.37971 97.0657C24.385 128.634 52.0479 142.152 85.729 148.186" stroke="#FFADE5" stroke-width="5" stroke-linecap="round"/>
</svg>
