<svg width="1280" height="1163" viewBox="0 0 1280 1163" preserveAspectRatio="none" fill="none" xmlns="http://www.w3.org/2000/svg">
<path d="M1303.7 454.285C1326.2 480.959 1342.82 507.311 1349.31 534.352C1355.64 560.724 1352.64 588.941 1333.52 620.59C1314.03 652.855 1281.91 682.8 1240.09 711.743C1198.35 740.626 1147.84 767.912 1092.48 795.21C982.527 849.419 852.623 903.932 741.213 969.622C629.861 1035.28 548.672 1097.44 473.211 1148.73C397.531 1200.18 326.696 1241.39 233.669 1267.63C139.525 1294.17 50.5881 1306.3 -23.9844 1302.06C-98.2578 1297.83 -156.345 1277.52 -192.121 1241.3L-192.962 1240.44C-226.325 1206.1 -225.586 1154.2 -208.341 1088.24C-199.862 1055.81 -187.831 1021.56 -175.446 986.356C-163.145 951.397 -150.502 915.527 -141.279 880.815C-123.675 814.554 -104.307 781.495 -82.3375 743.192C-59.8936 704.061 -35.1608 660.153 -8.52762 573.621C5.06544 529.457 11.3034 478.476 15.2937 426.298C17.2935 400.148 18.7441 373.436 20.2354 346.98C21.7304 320.458 23.2678 294.164 25.4445 268.542C29.8101 217.153 36.6855 169.407 50.4532 129.286C64.1763 89.2947 84.3693 57.974 114.695 37.947C144.972 17.9527 181.45 11.9616 223.3 15.4236C265.306 18.8987 311.541 31.8014 360.215 48.3642C384.484 56.6224 409.116 65.7024 433.985 74.8666C458.791 84.0078 483.83 93.2322 508.627 101.657C558.092 118.465 607.529 132.431 653.893 136.384C745.278 144.174 807.074 130.478 857.971 119.354C908.761 108.253 946.312 100.441 993.496 115.622C1042.27 131.315 1064.79 149.651 1083.86 175.897C1093.84 189.629 1102.93 205.632 1114.28 225.559C1125.51 245.3 1138.66 268.34 1156.35 295.091C1174.69 322.833 1200.77 349.581 1227.18 375.565C1253.98 401.947 1281.17 427.59 1303.7 454.285Z" stroke="#CFF2B3" stroke-width="29"/>
</svg>
