<svg width="512" height="465" viewBox="0 0 512 465" fill="none" xmlns="http://www.w3.org/2000/svg">
<path d="M521.479 181.714C530.481 192.383 537.128 202.924 539.725 213.74C542.258 224.289 541.056 235.577 533.408 248.236C525.612 261.142 512.765 273.12 496.035 284.698C479.341 296.251 459.137 307.164 436.991 318.083C393.011 339.767 341.049 361.572 296.485 387.848C251.944 414.111 219.468 438.977 189.284 459.494C159.012 480.07 130.678 496.558 93.4678 507.051C55.8104 517.67 20.2355 522.519 -9.59344 520.823C-39.5367 519.12 -62.9035 510.881 -77.1848 496.178C-90.53 482.439 -90.2345 461.678 -83.3362 435.296C-79.9447 422.326 -75.1327 408.622 -70.1786 394.542C-65.2584 380.559 -60.2012 366.211 -56.5123 352.326C-49.4707 325.822 -41.7232 312.598 -32.9354 297.277C-23.9578 281.624 -14.0641 264.061 -3.41077 229.448C2.02636 211.782 4.52175 191.39 6.11786 170.519C6.91778 160.059 7.49799 149.375 8.09449 138.792C8.69248 128.183 9.3072 117.666 10.1779 107.417C11.9241 86.8612 14.6738 67.7628 20.1809 51.7144C25.6701 35.7179 33.7478 23.1899 45.8781 15.179C57.9887 7.18134 72.58 4.78477 89.32 6.16959C106.123 7.55962 124.616 12.7203 144.086 19.3453C153.794 22.6486 163.646 26.2814 173.594 29.9472C183.516 33.6036 193.532 37.2926 203.451 40.6628C223.237 47.3856 243.012 52.9724 261.557 54.5533C298.111 57.6693 322.83 52.1915 343.188 47.7417C363.504 43.3013 378.525 40.1769 397.399 46.2494C416.909 52.5266 425.917 59.86 433.544 70.3583C437.535 75.8512 441.173 82.2529 445.71 90.2234C450.205 98.1198 455.464 107.336 462.54 118.037C469.877 129.133 480.31 139.832 490.871 150.225C501.594 160.778 512.469 171.036 521.479 181.714Z" stroke="#CFF2B3" stroke-width="11.6"/>
</svg>
