<svg width="898" height="1080" viewBox="0 0 898 1080" fill="none" xmlns="http://www.w3.org/2000/svg">
<path d="M-18.4623 1139.09C-46.3892 1136.46 -71.7115 1130.63 -91.7919 1118.04C-111.712 1105.56 -126.769 1086.24 -133.937 1055.94C-141.151 1025.43 -139.43 989.517 -131.766 949.475C-124.107 909.462 -110.573 865.622 -94.4128 819.381C-62.1714 727.127 -19.3649 625.122 7.02928 526.548C33.4187 427.992 44.6798 348.478 58.9484 277.169C73.2313 205.788 90.5704 142.312 129.108 74.8877C167.803 7.18578 211.756 -49.7158 256.973 -89.3742C302.25 -129.085 348.378 -151.154 391.522 -150.121C433.739 -149.11 463.911 -115.844 490.773 -68.8841C504.126 -45.5416 516.44 -19.2192 528.915 7.47993C541.36 34.1153 553.963 61.1193 567.809 85.5464C595.056 133.615 602.629 163.796 611.491 197.809C620.42 232.076 630.61 270.023 663.15 333.017C679.539 364.744 703.805 396.494 730.368 428.099C743.66 443.914 757.576 459.748 771.403 475.547C785.243 491.36 799 507.145 812.036 522.923C838.133 554.509 861.167 585.873 876.021 617.03C890.858 648.152 897.396 678.783 890.916 709.065C884.439 739.332 865.903 764.299 839.583 786.211C813.23 808.15 779.321 826.82 742.556 844.519C724.191 853.359 705.179 861.928 686.09 870.534C667.018 879.132 647.87 887.768 629.315 896.71C592.238 914.579 557.275 933.79 529.646 956.676C474.674 1002.21 447.89 1043.43 425.423 1077.81C402.972 1112.16 385.158 1139.07 348.124 1157.67C310.68 1176.47 286.225 1178.97 259.186 1174.42C245.461 1172.11 231.036 1167.98 213.719 1163.04C196.458 1158.12 176.491 1152.45 151.962 1147.2C127.112 1141.88 98.3154 1141.21 68.9881 1141.17C39.5037 1141.13 9.47206 1141.73 -18.4623 1139.09Z" stroke="#F7F3F1" stroke-width="8"/>
</svg>
