<svg width="187" height="576" viewBox="0 0 187 576" fill="none" xmlns="http://www.w3.org/2000/svg">
<path d="M-45.1216 628.004C-57.2728 639.624 -69.2556 648.055 -81.3048 650.451C-93.1976 652.816 -105.668 649.399 -118.903 636.04C-132.239 622.578 -143.864 601.88 -154.523 576.005C-165.169 550.161 -174.752 519.403 -184.099 486.043C-202.736 419.524 -220.472 342.449 -243.691 275.089C-266.904 207.744 -289.727 158.12 -308.464 111.73C-327.226 65.2796 -342.002 21.8364 -349.528 -33.7813C-357.095 -89.6938 -358.798 -142.013 -354.08 -185.282C-349.343 -228.728 -338.235 -262.164 -320.873 -281.377C-312.587 -290.545 -302.813 -294.208 -291.591 -293.894C-280.271 -293.577 -267.7 -289.203 -254.252 -282.534C-240.829 -275.877 -226.793 -267.073 -212.515 -258.104C-198.288 -249.168 -183.825 -240.072 -169.736 -232.999C-142.22 -219.186 -128.82 -206.043 -113.509 -191.311C-98.0562 -176.441 -80.7865 -160.085 -45.767 -140.357C-28.06 -130.381 -7.1494 -124.155 14.5706 -119.112C25.4409 -116.589 36.5704 -114.35 47.631 -112.094C58.707 -109.834 69.7217 -107.555 80.4366 -104.94C123.56 -94.4162 160.561 -78.681 176.045 -39.1069C191.516 0.431818 180.158 50.7957 162.377 105.426C157.959 119 153.184 132.731 148.381 146.546C143.585 160.341 138.761 174.218 134.284 187.99C125.34 215.505 117.686 242.865 114.304 268.837C107.598 320.347 110.914 356.081 113.614 385.835C116.318 415.64 118.283 438.717 109.757 466.136C101.095 493.991 92.2309 506.454 80.1192 516.33C73.8656 521.429 66.6956 525.877 57.9188 531.334C49.2001 536.755 39.0687 543.072 27.2131 551.794C15.0473 560.744 2.94554 574.172 -8.98635 587.995C-21.0485 601.97 -32.9551 616.368 -45.1216 628.004Z" stroke="#F7F3F1" stroke-width="8"/>
</svg>
