<svg width="960" height="872" viewBox="0 0 960 872" fill="none" xmlns="http://www.w3.org/2000/svg">
<path d="M977.771 340.714C994.651 360.719 1007.12 380.483 1011.98 400.764C1016.73 420.543 1014.48 441.706 1000.14 465.442C985.521 489.641 961.434 512.1 930.066 533.807C898.763 555.47 860.882 575.933 819.358 596.407C736.895 637.064 639.467 677.949 555.909 727.217C472.395 776.458 411.503 823.082 354.908 861.551C298.148 900.131 245.022 931.046 175.252 950.72C104.644 970.631 37.9406 979.724 -17.9888 976.543C-74.1326 973.35 -117.946 957.901 -144.723 930.334C-169.745 904.573 -169.19 865.646 -156.256 816.18C-149.897 791.861 -140.874 766.167 -131.585 739.767C-122.359 713.548 -112.876 686.645 -105.96 660.611C-92.7566 610.916 -78.2313 586.122 -61.7543 557.394C-44.9213 528.046 -26.3707 495.115 -6.39577 430.216C3.79903 397.093 8.47667 358.857 11.4694 319.723C12.9693 300.111 14.0575 280.077 15.176 260.235C16.2972 240.344 17.4504 220.623 19.0828 201.407C22.3571 162.865 27.5138 127.055 37.8395 96.9645C48.1319 66.9709 63.2771 43.4802 86.0217 28.4599C108.729 13.4643 136.087 8.97106 167.474 11.5675C198.979 14.1737 233.655 23.8506 270.161 36.2727C288.363 42.4663 306.837 49.2765 325.488 56.1497C344.093 63.0056 362.873 69.9237 381.47 76.2427C418.569 88.848 455.647 99.3233 490.419 102.288C558.958 108.13 605.306 97.8592 643.478 89.5159C681.57 81.19 709.734 75.3307 745.122 86.7167C781.703 98.4864 798.593 112.237 812.895 131.922C820.378 142.221 827.2 154.224 835.707 169.168C844.135 183.974 853.995 201.254 867.262 221.318C881.02 242.124 900.581 262.186 920.383 281.673C940.489 301.46 960.878 320.693 977.771 340.714Z" stroke="#CFF2B3" stroke-width="21.75"/>
</svg>
