<svg width="375" height="386" viewBox="0 0 375 386" fill="none" xmlns="http://www.w3.org/2000/svg">
<path d="M377.163 137.123C383.508 144.643 387.659 151.475 389.227 158.008C390.68 164.058 390.121 170.646 385.328 178.581C380.265 186.961 371.659 195.135 359.749 203.377C347.903 211.575 333.431 219.409 317.297 227.364C285.596 242.994 246.866 259.292 213.977 278.684C181.131 298.051 156.894 316.574 135.121 331.373C113.189 346.28 93.0799 357.936 66.7606 365.358C39.6323 373.008 14.292 376.413 -6.67209 375.221C-27.8431 374.017 -43.1343 368.232 -52.0478 359.055C-59.2666 351.624 -60.0112 339.609 -54.9889 320.402C-52.5822 311.197 -49.1501 301.411 -45.503 291.046C-41.9173 280.856 -38.1247 270.108 -35.3481 259.657C-30.4036 241.046 -25.0567 231.927 -18.6993 220.843C-11.9983 209.16 -4.51288 195.85 3.47669 169.892C7.67163 156.262 9.53788 140.756 10.7146 125.369C11.3064 117.631 11.735 109.732 12.1705 102.006C12.6087 94.2322 13.055 86.6108 13.6842 79.2038C14.9516 64.2846 16.9171 50.9156 20.6951 39.9059C24.4409 28.9903 29.6931 21.1911 37.0471 16.3345C44.3653 11.5016 53.5016 9.806 64.9039 10.7492C76.42 11.7019 89.3736 15.2751 103.518 20.0881C110.541 22.4777 117.682 25.1098 124.982 27.7998C132.236 30.4732 139.648 33.2041 147.001 35.7024C161.614 40.6676 176.679 44.9617 191.039 46.1858C218.787 48.5512 237.65 44.3626 252.694 41.0745C267.66 37.8033 277.113 35.9533 289.149 39.8256C302.336 44.0683 307.766 48.7193 312.479 55.2068C315.157 58.892 317.642 63.2488 321.015 69.1745C324.312 74.9659 328.252 81.8744 333.559 89.9009C339.341 98.644 347.43 106.898 355.14 114.485C363.142 122.361 370.806 129.589 377.163 137.123Z" stroke="#CFF2B3" stroke-width="21"/>
</svg>
