<svg width="1199" height="1440" viewBox="0 0 1199 1440" preserveAspectRatio="none" fill="none" xmlns="http://www.w3.org/2000/svg">
<path d="M-24.7779 1520.12C-62.1551 1516.6 -96.2159 1508.79 -123.293 1491.85C-150.208 1475.01 -170.519 1448.95 -180.168 1408.22C-189.863 1367.29 -187.531 1319.19 -177.279 1265.71C-167.033 1212.27 -148.935 1153.74 -127.347 1092.07C-84.2516 968.948 -27.1397 833.089 8.09165 701.717C43.3182 570.363 58.3335 464.458 77.4048 369.295C96.4906 274.06 119.68 189.267 171.246 99.189C222.971 8.8328 281.753 -67.1646 342.279 -120.167C402.864 -173.221 464.781 -202.884 522.875 -201.495C580.042 -200.128 620.667 -155.137 656.551 -92.5042C674.415 -61.3242 690.883 -26.1752 707.537 9.41294C724.161 44.9373 740.97 80.8926 759.43 113.408C795.903 177.654 806.05 218.029 817.894 263.412C829.804 309.05 843.381 359.543 886.774 443.414C908.589 485.58 940.915 527.819 976.373 569.943C994.114 591.018 1012.69 612.118 1031.15 633.188C1049.64 654.271 1068.02 675.33 1085.44 696.384C1120.31 738.522 1151.16 780.441 1171.06 822.135C1190.96 863.796 1199.79 904.944 1191.06 945.702C1182.32 986.444 1157.34 1019.97 1122.05 1049.31C1086.73 1078.67 1041.33 1103.62 992.207 1127.23C967.665 1139.02 942.259 1150.45 916.77 1161.93C891.299 1173.39 865.744 1184.9 840.983 1196.81C791.495 1220.63 744.925 1246.19 708.157 1276.59C634.907 1337.17 599.229 1392 569.241 1437.81C539.27 1483.6 515.311 1519.78 465.497 1544.75C415.27 1569.94 382.325 1573.32 345.9 1567.2C327.483 1564.11 308.143 1558.58 285.038 1552C261.99 1545.44 235.363 1537.9 202.654 1530.91C169.625 1523.85 131.302 1522.95 92.1299 1522.9C52.801 1522.84 12.6066 1523.64 -24.7779 1520.12Z" stroke="#F7F3F1" stroke-width="8"/>
</svg>
