<svg width="479" height="576" viewBox="0 0 479 576" fill="none" xmlns="http://www.w3.org/2000/svg">
<path d="M-10.0152 829.95C-24.7006 828.055 -37.6611 823.9 -47.8454 815.168C-57.9209 806.529 -65.8648 792.899 -69.6792 770.835C-73.5137 748.655 -72.6032 722.482 -68.5149 693.261C-64.4313 664.074 -57.2153 632.095 -48.5971 598.359C-31.4049 531.06 -8.56997 456.617 5.50807 384.689C19.5833 312.775 25.5906 254.75 33.1994 202.728C40.8169 150.647 50.062 104.353 70.6012 55.1912C91.235 5.80336 114.651 -35.6517 138.698 -64.5048C162.889 -93.5306 187.106 -109.073 209.188 -108.35C219.556 -108.01 228.572 -102.319 236.953 -92.1716C245.416 -81.9246 252.941 -67.4564 260.06 -50.4305C267.161 -33.4491 273.714 -14.2864 280.371 5.20503C287.005 24.6285 293.739 44.3727 301.144 62.2428C315.624 97.1914 319.65 119.125 324.377 143.945C329.141 168.961 334.587 196.711 351.976 242.764C360.766 266.042 373.772 289.314 387.963 312.413C395.064 323.971 402.496 335.542 409.867 347.064C417.248 358.602 424.574 370.099 431.512 381.587C459.381 427.735 480.307 472.67 473.395 516.857C466.489 561.005 433.893 589.409 394.63 615.266C384.855 621.704 374.731 627.945 364.548 634.226C354.379 640.498 344.149 646.81 334.233 653.348C314.416 666.414 295.672 680.498 280.849 697.295C251.45 730.609 237.134 760.761 225.156 785.833C213.141 810.985 203.714 830.391 184.244 843.766C174.287 850.606 166.215 854.356 158.981 856.035C151.811 857.699 145.279 857.372 138.284 855.762C131.169 854.124 123.655 851.186 114.37 847.565C105.161 843.974 94.4247 839.804 81.2325 835.942C67.6227 831.957 51.9677 831.479 36.3524 831.449C20.5279 831.419 4.70503 831.85 -10.0152 829.95Z" stroke="#F7F3F1" stroke-width="8"/>
</svg>
