<svg width="468" height="1379" viewBox="0 0 468 1379" preserveAspectRatio="none" fill="none" xmlns="http://www.w3.org/2000/svg">
<path d="M-110.559 1330.94C-141.345 1352.42 -172.371 1368.5 -203.98 1373.09C-235.402 1377.65 -267.746 1370.91 -301.448 1346.08C-335.311 1321.13 -364.639 1282.93 -391.403 1235.52C-418.153 1188.12 -442.198 1131.78 -465.617 1070.78C-512.369 949.001 -556.668 808.441 -614.756 685.454C-672.835 562.484 -729.872 471.997 -776.869 387.079C-823.9 302.097 -861.049 222.425 -879.973 120.371C-898.955 18.0022 -903.268 -77.9786 -891.379 -157.548C-879.479 -237.196 -851.436 -299.863 -806.227 -336.373C-761.74 -372.301 -701.658 -364.258 -633.782 -339.692C-599.993 -327.463 -564.701 -311.303 -528.983 -294.929C-493.329 -278.584 -457.256 -262.03 -422.148 -249.168C-352.78 -223.753 -318.929 -199.519 -280.546 -172.563C-241.948 -145.456 -198.937 -115.724 -111.6 -79.8145C-67.6912 -61.7612 -15.7191 -50.4491 38.5683 -41.2513C65.7288 -36.6496 93.5402 -32.566 121.253 -28.4395C148.984 -24.3103 176.625 -20.1366 203.528 -15.345C257.375 -5.75473 308.012 6.27013 350.161 25.1972C392.275 44.1089 425.625 69.7808 445.321 106.517C465.009 143.239 467.639 184.967 459.693 230.163C451.739 275.402 433.243 323.795 411.046 373.569C399.955 398.438 387.97 423.588 375.949 448.823C363.936 474.041 351.886 499.343 340.705 524.444C318.359 574.613 299.367 624.224 290.988 671.195C274.293 764.772 282.537 829.663 289.292 883.999C296.043 938.305 301.166 981.396 279.323 1032.66C257.299 1084.35 234.361 1108.24 202.621 1127.13C186.573 1136.68 168.244 1144.97 146.369 1154.89C124.547 1164.8 99.3573 1176.26 69.8884 1192.08C40.1312 1208.06 10.3205 1232.16 -19.5921 1257.45C-49.6247 1282.84 -79.768 1309.44 -110.559 1330.94Z" stroke="#F7F3F1" stroke-width="8"/>
</svg>
