<svg width="351" height="1034" viewBox="0 0 351 1034" fill="none" xmlns="http://www.w3.org/2000/svg">
<path d="M-83.3629 997.381C-106.365 1013.46 -129.445 1025.42 -152.888 1028.82C-176.143 1032.2 -200.1 1027.22 -225.137 1008.75C-250.333 990.16 -272.211 961.649 -292.22 926.144C-312.215 890.663 -330.201 848.46 -347.732 802.723C-382.709 711.475 -415.923 605.944 -459.441 513.662C-502.95 421.397 -545.703 353.454 -580.865 289.822C-616.061 226.126 -643.822 166.481 -657.964 90.0927C-672.165 13.39 -675.382 -58.4793 -666.5 -118.016C-657.607 -177.632 -636.674 -224.343 -603.098 -251.501C-570.244 -278.075 -525.75 -272.246 -474.939 -253.828C-449.682 -244.672 -423.293 -232.57 -396.538 -220.286C-369.848 -208.031 -342.799 -195.598 -316.465 -185.935C-264.645 -166.919 -239.381 -148.805 -210.659 -128.602C-181.723 -108.249 -149.448 -85.9052 -83.9538 -58.9344C-50.9666 -45.3503 -11.9574 -36.8509 28.7108 -29.9498C49.0615 -26.4965 69.8989 -23.4331 90.6473 -20.3389C111.414 -17.2419 132.099 -14.1126 152.229 -10.5217C192.529 -3.33286 230.35 5.66889 261.798 19.8126C293.211 33.9407 317.975 53.0682 332.585 80.3624C347.188 107.642 349.171 138.691 343.245 172.452C337.311 206.256 323.502 242.458 306.888 279.771C298.589 298.409 289.62 317.26 280.617 336.188C271.622 355.1 262.593 374.089 254.214 392.929C237.472 430.574 223.21 467.872 216.913 503.223C204.385 573.56 210.575 622.352 215.636 663.126C220.693 703.87 224.482 735.934 208.243 774.106C191.824 812.702 174.78 830.442 151.218 844.486C139.258 851.615 125.588 857.807 109.192 865.259C92.8496 872.686 73.9605 881.295 51.8613 893.179C29.4734 905.218 7.07663 923.358 -15.3184 942.323C-37.8334 961.39 -60.3549 981.297 -83.3629 997.381Z" stroke="#F7F3F1" stroke-width="8"/>
</svg>
