<svg width="474" height="9" viewBox="0 0 474 9" fill="none" xmlns="http://www.w3.org/2000/svg">
<path d="M40.226 0.264508C43.9645 -0.0752275 51.1804 -0.00536466 55.1501 0.033869C55.2228 0.0344515 55.2956 0.0350339 55.3684 0.0356164C56.3102 0.0448692 57.2011 0.0423586 58.2452 0.0391126C60.7352 0.0314724 64.098 0.0208433 71.1184 0.167691C73.1607 0.145743 75.204 0.127316 77.2456 0.113081C99.3028 -0.0407526 121.359 0.0893626 143.421 0.317219C143.699 0.314611 143.982 0.311946 144.268 0.309262C149.8 0.257114 156.663 0.197289 160.971 0.299917C166.453 0.430148 170.178 0.556951 173.232 0.667126C188.749 0.862324 204.252 1.06403 219.769 1.20591C221.777 1.22428 223.786 1.24166 225.794 1.25787C231.286 1.3022 236.779 1.33758 242.269 1.36093C247.327 1.38243 252.382 1.3972 257.442 1.40622C260.387 1.35482 263.186 1.29093 265.785 1.23246C269.422 1.1502 272.691 1.07883 275.361 1.06657C281.837 1.03709 289.153 1.2066 294.605 1.33568C295.492 1.35672 296.327 1.37667 297.11 1.39446C301.441 1.38745 305.77 1.3792 310.084 1.37147C310.374 1.39979 310.666 1.42924 310.962 1.45942C314.657 1.83605 319.174 1.87279 326.331 1.93688C329.42 1.9646 333.032 1.99799 337.289 2.0674C340.024 2.11207 341.411 2.26314 342.571 2.38667C342.91 2.42299 343.227 2.45695 343.547 2.4851C344.648 2.58155 345.793 2.50263 347.161 2.40975C348.962 2.28956 351.061 2.14467 353.885 2.32865C362.837 2.91479 366.816 2.6355 369.776 2.42277C370.664 2.36069 371.463 2.30462 372.276 2.27803C374.882 2.19143 378.653 2.35606 381.505 2.55374C383.755 2.71021 388.233 2.64133 391.68 2.52581C392.968 2.48189 394.708 2.50353 396.775 2.52996C398.858 2.55655 401.363 2.58931 404.001 2.55739C406.635 2.52496 408.848 2.50131 410.607 2.48102C413.405 2.45239 415.343 2.43388 417.039 2.41813C417.81 2.41019 418.632 2.40477 419.372 2.39747C421.729 2.37467 424.722 2.372 427.712 2.37083C431.303 2.3695 434.923 2.37108 437.695 2.34346C443.427 2.54213 449.069 2.59742 454.938 3.14131C456.397 3.27541 457.868 3.40308 459.34 3.5294C463.005 3.84359 466.513 4.37942 469.08 5.04373C471.645 5.70792 473.062 6.44166 473.018 7.0989C472.973 7.75604 471.468 8.29053 468.836 8.59894C466.202 8.9064 462.652 8.96051 458.967 8.75005C457.486 8.66485 456.006 8.57838 454.522 8.48381C448.774 8.11201 442.779 8.20867 436.856 8.14013C428.103 8.08602 419.316 8.029 410.531 7.90796C410.265 7.90434 409.999 7.90063 409.73 7.89685C403.421 7.80783 397.079 7.70544 390.753 7.59368C390.097 7.58212 389.424 7.57006 388.792 7.55861C383.441 7.65062 378.21 7.73198 374.423 7.73766C371.381 7.74336 369.071 7.62878 367.177 7.53193C365.859 7.46511 364.66 7.40571 363.48 7.39889C362.849 7.39527 361.985 7.39507 360.933 7.39477C356.633 7.39329 349.349 7.39348 342.715 7.16398C339.748 7.06177 336.339 6.88743 333.075 6.72183C328.392 6.4848 324.052 6.26631 321.834 6.29912C317.985 6.35714 313.552 6.23555 309.62 6.12933C305.908 6.02827 302.606 5.9409 300.766 6.03524C298.553 6.14793 296.634 6.07868 293.837 5.97726C291.89 5.90691 289.478 5.82099 286.233 5.76981C282.463 5.71062 279.818 5.60019 277.551 5.50644C274.359 5.37462 271.983 5.27623 268.403 5.40593C264.447 5.55019 260.296 5.63381 257.035 5.56284C255.546 5.53047 253.847 5.52746 252.08 5.52477C249.739 5.5212 247.272 5.51797 245.026 5.44729C243.174 5.38902 241.639 5.25467 240.286 5.13596C239.863 5.09893 239.458 5.06359 239.065 5.03239C237.59 5.02814 236.113 5.02492 234.636 5.02336C234.397 5.04308 234.146 5.06497 233.883 5.08756C232.567 5.20093 230.949 5.34015 228.946 5.40604C225.775 5.51033 222.993 5.43133 220.059 5.34862C219.96 5.34582 219.86 5.343 219.76 5.3402C217.564 5.27862 215.276 5.2185 212.673 5.23533C210.812 5.24733 208.696 5.29661 206.6 5.34604C203.484 5.41942 200.408 5.49312 198.272 5.44416C197.47 5.4258 196.781 5.34528 196.1 5.26523C196.097 5.26474 196.094 5.26425 196.091 5.26377C196.045 5.25833 195.998 5.25303 195.952 5.24762C190.749 5.30767 185.543 5.37736 180.336 5.45382C179.885 5.47492 179.429 5.49578 178.978 5.51633C176.773 5.61676 174.624 5.715 173.227 5.85229C171.715 6.00105 167.899 6.09265 163.889 6.19157C161.257 6.25629 158.54 6.32399 156.322 6.41143C155.024 6.46252 153.792 6.38339 152.526 6.30193C151.344 6.22594 150.133 6.14807 148.806 6.17265C148.141 6.18498 147.424 6.22166 146.658 6.26095C145.984 6.29554 145.272 6.33223 144.526 6.35585C143.834 6.37773 142.29 6.33823 140.309 6.28852C139.085 6.2578 137.696 6.22327 136.238 6.19631C132.379 6.26371 128.525 6.33033 124.668 6.39474C123.864 6.47113 123.167 6.56869 122.615 6.69228C122.219 6.78095 121.882 6.88629 121.536 6.99399C121.064 7.14056 120.577 7.29204 119.904 7.41428C119.379 7.50979 118.759 7.54996 118.342 7.51353C118.148 7.49654 117.999 7.46342 117.864 7.43347C117.709 7.39917 117.57 7.36866 117.402 7.37043C117.28 7.37177 117.153 7.39729 116.998 7.42819C116.75 7.47754 116.426 7.54127 115.935 7.54606C114.102 7.56389 112.019 7.55529 109.98 7.54704C107.713 7.53785 105.493 7.52948 103.728 7.55838C101.751 7.59073 98.9276 7.51535 96.1042 7.44089C94.1344 7.38894 92.1586 7.33762 90.4663 7.32234C88.8079 7.30737 87.0802 7.36978 85.4074 7.43075C83.3994 7.50394 81.4703 7.57483 79.8271 7.50518C79.495 7.49103 79.0821 7.3938 78.564 7.27219C78.1969 7.18601 77.7744 7.08749 77.2936 6.99732C75.2051 7.01188 73.1145 7.02258 71.0251 7.02999C70.9516 7.0441 70.8758 7.05846 70.7999 7.07312C70.7987 7.07345 70.7975 7.07379 70.7963 7.07412C69.0829 7.4049 66.7374 7.85745 63.4363 7.62211C62.5973 7.56229 62.0686 7.44423 61.5922 7.33799C61.1245 7.23366 60.706 7.1403 60.0946 7.12461C59.4001 7.10685 58.5809 7.17925 57.6881 7.25803C56.4342 7.36865 55.0347 7.49231 53.6276 7.39796C53.5315 7.39152 53.4281 7.38444 53.3206 7.37737C52.3006 7.3104 50.7908 7.21142 49.2879 7.00041C44.8332 6.9757 40.3778 6.94151 35.9225 6.90145C28.4962 6.83466 21.0685 6.75151 13.6427 6.66896C10.0296 6.62798 6.56311 6.35366 4.00458 5.88954C1.44602 5.42473 0.00542797 4.81192 1.55763e-05 4.16563C-0.00517696 3.5194 1.42493 2.88295 3.97518 2.37543C6.52561 1.86853 9.98697 1.53631 13.5991 1.43516C19.4882 1.27157 25.3806 1.10812 31.2706 0.954464C31.5793 0.938529 31.8893 0.923024 32.1979 0.908345C34.4945 0.799118 36.6228 0.600035 38.7542 0.400805C39.2437 0.355042 39.7342 0.309187 40.226 0.264508Z" fill="#FE7239"/>
</svg>
