<svg width="205" height="73" viewBox="0 0 205 73" fill="none" xmlns="http://www.w3.org/2000/svg">
<g clip-path="url(#clip0_5809_16893)">
<g clip-path="url(#clip1_5809_16893)">
<path fill-rule="evenodd" clip-rule="evenodd" d="M23.8236 3.5088L22.359 1.04883L20.7933 3.44578L0.609112 34.3472L0 35.2799L0.569357 36.2373L20.7536 70.1752L22.3607 72.8775L23.8591 70.1134L42.257 36.1754L42.7409 35.2828L42.2216 34.4103L23.8236 3.5088ZM20.3368 62.4856L4.20916 35.3685L13.5174 21.1176L20.3368 27.9369V35.0264L20.264 35.1066L20.3368 35.1727V41.104L17.1343 37.9016L14.6082 40.4277L20.3368 46.1562V62.4856ZM23.9092 62.5252L38.6325 35.3654L22.2186 7.79634L15.5136 18.0616L20.3368 22.8848V15.2293H23.9092V31.0876L27.2301 27.4259L29.8765 29.8259L23.9092 36.4053V44.6766L24.1005 44.868L23.9092 45.0593V62.5252Z" fill="url(#paint0_linear_5809_16893)"/>
<path d="M68.1436 51.4014C65.9906 51.4014 64.1188 51.1202 62.5284 50.5573C60.9379 49.9945 59.7147 49.2238 58.8583 48.2452C58.0265 47.2666 57.6105 46.1409 57.6105 44.8687C57.6105 42.8869 58.8583 41.8959 61.354 41.8959C61.403 43.8288 62.0146 45.2968 63.189 46.3C64.3878 47.3033 66.064 47.8048 68.217 47.8048C70.1011 47.8048 71.5568 47.4868 72.5844 46.8505C73.612 46.2143 74.1258 45.2968 74.1258 44.098C74.1258 43.3396 73.93 42.7277 73.5386 42.263C73.1472 41.7735 72.4866 41.3454 71.5568 40.9784C70.6269 40.587 69.2813 40.1954 67.5197 39.804C65.1708 39.2902 63.3114 38.6907 61.9412 38.0057C60.5956 37.3207 59.6167 36.5009 59.0051 35.5467C58.3935 34.5925 58.0876 33.4057 58.0876 31.9867C58.0876 30.6165 58.4913 29.4054 59.2987 28.3534C60.1061 27.3014 61.2438 26.4939 62.7119 25.9311C64.1799 25.3439 65.8805 25.0503 67.8133 25.0503C69.6483 25.0503 71.2999 25.3072 72.7679 25.821C74.2359 26.3104 75.386 27.0077 76.2178 27.913C77.0496 28.8182 77.4656 29.8581 77.4656 31.0325C77.4656 32.7208 76.2788 33.6016 73.9056 33.675C73.7098 31.9133 73.1226 30.6288 72.144 29.8214C71.1898 29.014 69.7461 28.6103 67.8133 28.6103C66.1007 28.6103 64.7794 28.9039 63.8496 29.4911C62.9198 30.0783 62.455 30.9101 62.455 31.9867C62.455 32.7208 62.6262 33.3323 62.9688 33.8218C63.3358 34.2866 63.9353 34.7026 64.7671 35.0696C65.5989 35.4122 66.798 35.7546 68.3638 36.0972C70.8594 36.6601 72.8413 37.296 74.3093 38.0057C75.7774 38.6907 76.8294 39.5227 77.4656 40.5013C78.1262 41.4555 78.4565 42.6543 78.4565 44.098C78.4565 45.5904 78.0284 46.8873 77.172 47.9883C76.3402 49.0893 75.1411 49.9334 73.5753 50.5206C72.0339 51.1078 70.2232 51.4014 68.1436 51.4014ZM85.0771 30.2985C84.2696 30.2985 83.5967 30.0539 83.0585 29.5645C82.5201 29.0507 82.2511 28.4144 82.2511 27.656C82.2511 26.8976 82.5201 26.2737 83.0585 25.7843C83.5967 25.295 84.2696 25.0503 85.0771 25.0503C85.8845 25.0503 86.5572 25.295 87.0956 25.7843C87.6338 26.2737 87.903 26.8976 87.903 27.656C87.903 28.4144 87.6338 29.0507 87.0956 29.5645C86.5572 30.0539 85.8845 30.2985 85.0771 30.2985ZM83.0218 35.0329C83.0218 34.1031 83.3642 33.4304 84.0494 33.0144C84.7344 32.5983 85.7621 32.3904 87.1323 32.3904V48.759C87.1323 49.6888 86.7897 50.3615 86.1047 50.7775C85.4194 51.1936 84.3918 51.4014 83.0218 51.4014V35.0329ZM92.5373 35.6568C92.5373 33.4791 93.8341 32.3904 96.4276 32.3904V34.6292C96.0362 35.0696 95.7546 35.4489 95.5834 35.7669L95.767 35.9137C96.55 34.7637 97.3695 33.8952 98.2259 33.308C99.0823 32.6964 100.098 32.3904 101.272 32.3904C103.401 32.3904 104.893 33.4424 105.75 35.5467C106.386 34.5435 107.169 33.7728 108.098 33.2346C109.028 32.6717 110.105 32.3904 111.328 32.3904C113.016 32.3904 114.338 32.99 115.292 34.1888C116.27 35.3876 116.76 36.917 116.76 38.7764V48.759C116.76 49.6888 116.429 50.3615 115.769 50.7775C115.108 51.1936 114.093 51.4014 112.723 51.4014V39.1067C112.723 38.1034 112.502 37.3207 112.062 36.7578C111.622 36.1706 110.949 35.877 110.044 35.877C109.089 35.877 108.282 36.2073 107.621 36.8679C106.985 37.5042 106.667 38.4584 106.667 39.7306V48.759C106.667 49.6888 106.337 50.3615 105.676 50.7775C105.016 51.1936 104.012 51.4014 102.667 51.4014V39.1067C102.667 36.9537 101.786 35.877 100.024 35.877C98.9722 35.877 98.1281 36.244 97.4919 36.978C96.8803 37.7121 96.5744 38.6663 96.5744 39.8407V48.759C96.5744 49.6888 96.2441 50.3615 95.5834 50.7775C94.9228 51.1936 93.9075 51.4014 92.5373 51.4014V35.6568ZM128.296 51.4014C126.069 51.4014 124.234 50.9734 122.791 50.1169C121.371 49.2605 120.662 48.1228 120.662 46.7037C120.662 45.3825 121.591 44.6852 123.451 44.6118C123.671 45.7862 124.21 46.6794 125.066 47.291C125.922 47.8782 126.962 48.1718 128.186 48.1718C129.507 48.1718 130.534 48.0006 131.268 47.658C132.002 47.291 132.369 46.7528 132.369 46.0431C132.369 45.3581 132.051 44.8197 131.415 44.4283C130.803 44.0123 129.617 43.5965 127.855 43.1805C126.118 42.7891 124.748 42.3731 123.745 41.9326C122.741 41.4922 121.983 40.9294 121.469 40.2444C120.98 39.5594 120.735 38.654 120.735 37.5286C120.735 36.0115 121.384 34.776 122.68 33.8218C124.002 32.8676 125.763 32.3904 127.965 32.3904C130.094 32.3904 131.88 32.7818 133.324 33.5649C134.767 34.3479 135.489 35.3876 135.489 36.6844C135.489 37.3207 135.244 37.7978 134.755 38.1158C134.29 38.4338 133.568 38.6052 132.59 38.6296C132.198 36.55 130.718 35.51 128.149 35.51C127.146 35.51 126.301 35.6935 125.616 36.0605C124.956 36.4275 124.626 36.9046 124.626 37.4919C124.626 38.1034 124.919 38.5806 125.506 38.9232C126.118 39.2412 127.133 39.5471 128.553 39.8407C131.244 40.4035 133.201 41.1619 134.425 42.1161C135.648 43.0704 136.26 44.3793 136.26 46.0431C136.26 47.6823 135.55 48.9915 134.131 49.9701C132.712 50.9243 130.767 51.4014 128.296 51.4014ZM142.465 29.2342H133.546C133.546 26.6651 134.733 25.3806 137.106 25.3806H155.75C155.75 26.6529 155.445 27.6193 154.833 28.28C154.246 28.9162 153.365 29.2342 152.19 29.2342H146.869V48.025C146.869 49.1016 146.49 49.9334 145.731 50.5206C144.972 51.1078 143.884 51.4014 142.465 51.4014V29.2342ZM163.712 35.9504C162.292 35.9504 161.13 36.3541 160.225 37.1615C159.32 37.9446 158.867 38.9109 158.867 40.0609V48.759C158.867 49.6888 158.524 50.3615 157.839 50.7775C157.179 51.1936 156.151 51.4014 154.757 51.4014V35.6568C154.757 33.4791 156.066 32.3904 158.684 32.3904V34.5925C158.341 34.9839 158.06 35.3755 157.839 35.7669L158.023 35.9137C159.613 33.5649 161.558 32.3904 163.858 32.3904C164.837 32.3904 165.583 32.6474 166.097 33.1612C166.611 33.6506 166.868 34.2745 166.868 35.0329C166.868 35.5957 166.721 36.0972 166.427 36.5376C165.718 36.1462 164.813 35.9504 163.712 35.9504ZM176.407 51.4014C174.915 51.4014 173.545 51.1078 172.297 50.5206C171.074 49.9334 170.107 49.126 169.398 48.0984C168.688 47.0464 168.333 45.8719 168.333 44.5751V39.5104C168.333 38.1648 168.7 36.9537 169.434 35.877C170.168 34.8004 171.159 33.9563 172.407 33.3447C173.655 32.7084 175 32.3904 176.444 32.3904C177.888 32.3904 179.197 32.6841 180.371 33.2713C181.57 33.8585 182.512 34.6903 183.197 35.7669C183.906 36.8189 184.261 38.0057 184.261 39.3269V41.4922C184.261 41.9817 184.078 42.3974 183.711 42.7401C183.344 43.0827 182.879 43.2539 182.316 43.2539H172.334V44.3182C172.334 45.4436 172.676 46.3491 173.361 47.0341C174.071 47.719 175.098 48.0617 176.444 48.0617C177.765 48.0617 178.756 47.7804 179.417 47.2176C180.078 46.6303 180.408 45.8596 180.408 44.9054C180.555 44.881 180.775 44.8687 181.068 44.8687C181.9 44.8687 182.561 45.0645 183.05 45.4559C183.564 45.8229 183.821 46.3491 183.821 47.0341C183.821 47.7681 183.491 48.4777 182.83 49.1627C182.169 49.8233 181.264 50.3615 180.114 50.7775C178.989 51.1936 177.753 51.4014 176.407 51.4014ZM180.481 40.2077V39.3269C180.481 38.2259 180.102 37.345 179.344 36.6844C178.609 35.9994 177.631 35.6568 176.407 35.6568C175.184 35.6568 174.193 35.9994 173.435 36.6844C172.701 37.345 172.334 38.2259 172.334 39.3269V40.2077H180.481ZM195.833 51.4014C194.34 51.4014 192.97 51.1078 191.722 50.5206C190.499 49.9334 189.533 49.126 188.823 48.0984C188.114 47.0464 187.759 45.8719 187.759 44.5751V39.5104C187.759 38.1648 188.126 36.9537 188.86 35.877C189.594 34.8004 190.585 33.9563 191.833 33.3447C193.08 32.7084 194.426 32.3904 195.87 32.3904C197.313 32.3904 198.622 32.6841 199.797 33.2713C200.996 33.8585 201.938 34.6903 202.623 35.7669C203.332 36.8189 203.687 38.0057 203.687 39.3269V41.4922C203.687 41.9817 203.503 42.3974 203.136 42.7401C202.769 43.0827 202.305 43.2539 201.742 43.2539H191.759V44.3182C191.759 45.4436 192.102 46.3491 192.787 47.0341C193.496 47.719 194.524 48.0617 195.87 48.0617C197.191 48.0617 198.182 47.7804 198.842 47.2176C199.503 46.6303 199.833 45.8596 199.833 44.9054C199.98 44.881 200.2 44.8687 200.494 44.8687C201.326 44.8687 201.987 45.0645 202.476 45.4559C202.99 45.8229 203.246 46.3491 203.246 47.0341C203.246 47.7681 202.916 48.4777 202.256 49.1627C201.595 49.8233 200.69 50.3615 199.54 50.7775C198.414 51.1936 197.179 51.4014 195.833 51.4014ZM199.907 40.2077V39.3269C199.907 38.2259 199.528 37.345 198.769 36.6844C198.035 35.9994 197.056 35.6568 195.833 35.6568C194.61 35.6568 193.619 35.9994 192.86 36.6844C192.126 37.345 191.759 38.2259 191.759 39.3269V40.2077H199.907Z" fill="#333333"/>
<path d="M93.2507 12.6408H88.1545C88.1545 11.1728 88.8327 10.4387 90.1888 10.4387H100.843C100.843 11.1658 100.668 11.718 100.318 12.0955C99.9827 12.459 99.4794 12.6408 98.8083 12.6408H95.7673V23.3784C95.7673 23.9935 95.5505 24.4689 95.1172 24.8045C94.6839 25.14 94.0615 25.3078 93.2507 25.3078V12.6408ZM101.463 12.1165C101.463 11.5153 101.658 11.0539 102.05 10.7324C102.455 10.4108 103.042 10.25 103.811 10.25V15.7237C103.602 15.9613 103.434 16.178 103.308 16.3738L103.434 16.4577C103.881 15.8285 104.412 15.3392 105.028 14.9896C105.657 14.6261 106.363 14.4444 107.146 14.4444C107.873 14.4444 108.509 14.6051 109.054 14.9267C109.6 15.2343 110.019 15.6677 110.313 16.227C110.62 16.7862 110.774 17.4084 110.774 18.0935V23.7978C110.774 24.3291 110.578 24.7136 110.187 24.9513C109.795 25.1889 109.208 25.3078 108.425 25.3078V18.4081C108.425 17.8348 108.25 17.3734 107.901 17.0239C107.565 16.6604 107.069 16.4786 106.412 16.4786C105.685 16.4786 105.07 16.7093 104.566 17.1707C104.063 17.6181 103.811 18.1704 103.811 18.8275V23.7978C103.811 24.3291 103.616 24.7136 103.224 24.9513C102.833 25.1889 102.246 25.3078 101.463 25.3078V12.1165ZM117.644 25.3078C116.791 25.3078 116.008 25.14 115.295 24.8045C114.596 24.4689 114.044 24.0075 113.638 23.4203C113.233 22.8191 113.03 22.148 113.03 21.407V18.5129C113.03 17.7439 113.24 17.0519 113.659 16.4367C114.079 15.8215 114.645 15.3392 115.358 14.9896C116.071 14.6261 116.84 14.4444 117.665 14.4444C118.49 14.4444 119.238 14.6121 119.909 14.9477C120.594 15.2832 121.132 15.7586 121.524 16.3738C121.929 16.975 122.132 17.6531 122.132 18.4081V19.6454C122.132 19.925 122.027 20.1627 121.817 20.3584C121.608 20.5542 121.342 20.652 121.02 20.652H115.316V21.2602C115.316 21.9034 115.512 22.4207 115.903 22.8121C116.308 23.2036 116.896 23.3994 117.665 23.3994C118.42 23.3994 118.986 23.2386 119.364 22.917C119.741 22.5815 119.93 22.141 119.93 21.5958C120.014 21.5818 120.14 21.5748 120.307 21.5748C120.783 21.5748 121.16 21.6866 121.44 21.9104C121.733 22.1201 121.88 22.4207 121.88 22.8121C121.88 23.2316 121.691 23.637 121.314 24.0285C120.936 24.406 120.419 24.7136 119.762 24.9513C119.119 25.1889 118.413 25.3078 117.644 25.3078ZM119.972 18.9114V18.4081C119.972 17.7789 119.755 17.2756 119.322 16.8981C118.902 16.5066 118.343 16.3109 117.644 16.3109C116.945 16.3109 116.378 16.5066 115.945 16.8981C115.526 17.2756 115.316 17.7789 115.316 18.4081V18.9114H119.972Z" fill="#333333"/>
</g>
</g>
<defs>
<linearGradient id="paint0_linear_5809_16893" x1="0.028462" y1="59.0644" x2="45.3273" y2="58.2569" gradientUnits="userSpaceOnUse">
<stop stop-color="#2F8848"/>
<stop offset="1" stop-color="#D0E355"/>
</linearGradient>
<clipPath id="clip0_5809_16893">
<rect width="205" height="72.8772" fill="white"/>
</clipPath>
<clipPath id="clip1_5809_16893">
<rect width="205" height="72.8772" fill="white"/>
</clipPath>
</defs>
</svg>
