<svg width="212" height="68" viewBox="0 0 212 68" fill="none" xmlns="http://www.w3.org/2000/svg">
<g clip-path="url(#clip0_5809_16676)">
<path d="M18.6649 2.11108L0 34L18.6649 65.8889L37.3297 34L18.6649 2.11108ZM33.8572 34L20.1841 57.3579V33.1434L25.3243 27.9385L23.1791 25.7677L20.1841 28.7951V14.6927H17.1456V21.6731L13.0906 17.5724L18.6649 8.0461L33.8572 34ZM11.4923 20.3009L17.1456 26.0217V37.9021L14.1254 34.846L11.9802 37.0193L17.1491 42.2498V57.3598L3.47252 34L11.4923 20.3009Z" fill="url(#paint0_linear_5809_16676)"/>
<path d="M57.7717 27.5988H49.8888C49.8888 25.3009 50.9375 24.1519 53.0355 24.1519H69.515C69.515 25.2899 69.2446 26.1544 68.704 26.7453C68.185 27.3143 67.4064 27.5988 66.3683 27.5988H61.6645V44.4061C61.6645 45.3691 61.3292 46.1131 60.6589 46.6383C59.9883 47.1635 59.026 47.4261 57.7717 47.4261V27.5988ZM79.7049 47.4261C77.8018 47.4261 76.1474 47.1746 74.7416 46.6711C73.3358 46.1677 72.2546 45.4783 71.4976 44.603C70.7624 43.7277 70.3946 42.7209 70.3946 41.583C70.3946 39.8103 71.4976 38.924 73.7035 38.924C73.7468 40.6528 74.2874 41.9659 75.3255 42.8632C76.3851 43.7606 77.8667 44.2091 79.7698 44.2091C81.4351 44.2091 82.7218 43.9247 83.6302 43.3556C84.5385 42.7865 84.9926 41.9659 84.9926 40.8936C84.9926 40.2153 84.8196 39.668 84.4736 39.2523C84.1277 38.8145 83.5437 38.4316 82.7218 38.1033C81.8999 37.7533 80.7106 37.403 79.1534 37.0529C77.0773 36.5933 75.4337 36.0571 74.2225 35.4444C73.0332 34.8317 72.1679 34.0985 71.6273 33.245C71.0868 32.3915 70.8163 31.33 70.8163 30.0608C70.8163 28.8352 71.1732 27.7519 71.8869 26.8109C72.6005 25.87 73.6062 25.1477 74.9038 24.6443C76.2014 24.1191 77.7045 23.8565 79.413 23.8565C81.035 23.8565 82.4948 24.0863 83.7924 24.5459C85.09 24.9836 86.1065 25.6073 86.8417 26.417C87.577 27.2266 87.9447 28.1568 87.9447 29.2073C87.9447 30.7173 86.8957 31.5052 84.798 31.5708C84.6249 29.9951 84.1059 28.8462 83.2409 28.124C82.3974 27.4018 81.1214 27.0407 79.413 27.0407C77.8992 27.0407 76.7313 27.3033 75.9094 27.8285C75.0875 28.3538 74.6767 29.0978 74.6767 30.0608C74.6767 30.7173 74.828 31.2643 75.1309 31.7021C75.4553 32.1178 75.9852 32.49 76.7204 32.8182C77.4557 33.1247 78.5155 33.4309 79.8996 33.7374C82.1055 34.2408 83.8572 34.8096 85.1548 35.4444C86.4524 36.0571 87.3823 36.8013 87.9447 37.6766C88.5286 38.5301 88.8206 39.6023 88.8206 40.8936C88.8206 42.2285 88.4422 43.3885 87.6852 44.3733C86.9499 45.3581 85.8901 46.1131 84.506 46.6383C83.1436 47.1635 81.5431 47.4261 79.7049 47.4261ZM97.5298 27.5988H89.6469C89.6469 25.3009 90.6956 24.1519 92.7936 24.1519H109.273C109.273 25.2899 109.003 26.1544 108.462 26.7453C107.943 27.3143 107.165 27.5988 106.126 27.5988H101.423V44.4061C101.423 45.3691 101.087 46.1131 100.417 46.6383C99.7464 47.1635 98.7841 47.4261 97.5298 47.4261V27.5988ZM129.284 47.4261C127.38 47.4261 125.726 47.1746 124.32 46.6711C122.915 46.1677 121.833 45.4783 121.076 44.603C120.341 43.7277 119.973 42.7209 119.973 41.583C119.973 39.8103 121.076 38.924 123.282 38.924C123.325 40.6528 123.866 41.9659 124.904 42.8632C125.964 43.7606 127.445 44.2091 129.349 44.2091C131.014 44.2091 132.301 43.9247 133.209 43.3556C134.117 42.7865 134.571 41.9659 134.571 40.8936C134.571 40.2153 134.398 39.668 134.052 39.2523C133.706 38.8145 133.122 38.4316 132.301 38.1033C131.479 37.7533 130.289 37.403 128.732 37.0529C126.656 36.5933 125.012 36.0571 123.801 35.4444C122.612 34.8317 121.747 34.0985 121.206 33.245C120.665 32.3915 120.395 31.33 120.395 30.0608C120.395 28.8352 120.752 27.7519 121.466 26.8109C122.179 25.87 123.185 25.1477 124.483 24.6443C125.78 24.1191 127.283 23.8565 128.992 23.8565C130.614 23.8565 132.074 24.0863 133.371 24.5459C134.669 24.9836 135.685 25.6073 136.421 26.417C137.156 27.2266 137.524 28.1568 137.524 29.2073C137.524 30.7173 136.475 31.5052 134.377 31.5708C134.204 29.9951 133.685 28.8462 132.82 28.124C131.976 27.4018 130.7 27.0407 128.992 27.0407C127.478 27.0407 126.31 27.3033 125.488 27.8285C124.666 28.3538 124.256 29.0978 124.256 30.0608C124.256 30.7173 124.407 31.2643 124.71 31.7021C125.034 32.1178 125.564 32.49 126.299 32.8182C127.035 33.1247 128.094 33.4309 129.478 33.7374C131.684 34.2408 133.436 34.8096 134.734 35.4444C136.031 36.0571 136.961 36.8013 137.524 37.6766C138.107 38.5301 138.399 39.6023 138.399 40.8936C138.399 42.2285 138.021 43.3885 137.264 44.3733C136.529 45.3581 135.469 46.1131 134.085 46.6383C132.722 47.1635 131.122 47.4261 129.284 47.4261ZM148.339 47.4261C146.955 47.4261 145.7 47.1746 144.576 46.6711C143.473 46.1459 142.597 45.4347 141.948 44.5374C141.321 43.64 141.007 42.6224 141.007 41.4845V36.6261C141.007 35.4662 141.321 34.4157 141.948 33.4748C142.575 32.5338 143.44 31.7896 144.543 31.2425C145.668 30.6955 146.933 30.4219 148.339 30.4219C149.744 30.4219 150.999 30.6955 152.102 31.2425C153.226 31.7896 154.102 32.5338 154.73 33.4748C155.357 34.4157 155.67 35.4662 155.67 36.6261V41.4845C155.67 42.6224 155.346 43.64 154.697 44.5374C154.07 45.4347 153.194 46.1459 152.069 46.6711C150.966 47.1746 149.723 47.4261 148.339 47.4261ZM148.339 44.2419C149.485 44.2419 150.393 43.9793 151.064 43.4541C151.734 42.9071 152.069 42.1739 152.069 41.2547V36.7903C152.069 35.8273 151.734 35.0504 151.064 34.4596C150.393 33.8687 149.485 33.5732 148.339 33.5732C147.193 33.5732 146.284 33.8687 145.614 34.4596C144.943 35.0504 144.608 35.8273 144.608 36.7903V41.2547C144.608 42.1739 144.943 42.9071 145.614 43.4541C146.284 43.9793 147.193 44.2419 148.339 44.2419ZM165.198 47.4261C163.814 47.4261 162.581 47.1746 161.5 46.6711C160.44 46.1677 159.607 45.4676 159.002 44.5702C158.418 43.6511 158.126 42.6224 158.126 41.4845V36.6261C158.126 35.4226 158.418 34.3501 159.002 33.4091C159.607 32.4681 160.44 31.7349 161.5 31.2097C162.559 30.6845 163.77 30.4219 165.133 30.4219C166.409 30.4219 167.544 30.6078 168.539 30.9799C169.534 31.352 170.302 31.8773 170.842 32.5556C171.405 33.2121 171.686 33.9672 171.686 34.8207C171.686 35.499 171.405 36.0352 170.842 36.4292C170.302 36.8013 169.588 36.9544 168.701 36.8887C168.701 35.9257 168.377 35.1379 167.728 34.5252C167.079 33.9125 166.247 33.6061 165.23 33.6061C164.214 33.6061 163.381 33.9015 162.732 34.4924C162.083 35.0833 161.759 35.8493 161.759 36.7903V41.2547C161.759 42.13 162.083 42.8414 162.732 43.3884C163.403 43.9355 164.257 44.2091 165.295 44.2091C166.312 44.2091 167.144 43.9137 167.793 43.3228C168.442 42.7101 168.766 41.9331 168.766 40.9921L169.22 40.9593C169.977 40.9593 170.594 41.1562 171.069 41.5501C171.545 41.9223 171.783 42.4147 171.783 43.0274C171.783 43.8809 171.502 44.6469 170.94 45.3252C170.399 45.9818 169.62 46.496 168.604 46.8681C167.609 47.2402 166.474 47.4261 165.198 47.4261ZM177.61 28.5507C176.896 28.5507 176.302 28.332 175.826 27.8942C175.35 27.4346 175.112 26.8656 175.112 26.1872C175.112 25.5088 175.35 24.9507 175.826 24.513C176.302 24.0753 176.896 23.8565 177.61 23.8565C178.324 23.8565 178.918 24.0753 179.394 24.513C179.87 24.9507 180.108 25.5088 180.108 26.1872C180.108 26.8656 179.87 27.4346 179.394 27.8942C178.918 28.332 178.324 28.5507 177.61 28.5507ZM175.793 32.7854C175.793 31.9537 176.096 31.352 176.702 30.9799C177.307 30.6078 178.216 30.4219 179.427 30.4219V45.0626C179.427 45.8943 179.124 46.496 178.518 46.8681C177.913 47.2402 177.004 47.4261 175.793 47.4261V32.7854ZM189.589 47.4261C188.443 47.4261 187.405 47.2074 186.475 46.7696C185.545 46.3318 184.81 45.6973 184.269 44.8657C183.728 44.034 183.458 43.0602 183.458 41.9441C183.458 40.8062 183.739 39.8214 184.302 38.9897C184.886 38.1362 185.675 37.4906 186.67 37.0529C187.665 36.5933 188.778 36.3635 190.011 36.3635C191.979 36.3635 193.633 37.0419 194.974 38.3988L195.137 38.2346C194.747 37.8407 194.434 37.5563 194.196 37.3811V36.462C194.196 35.499 193.871 34.744 193.223 34.1969C192.574 33.6279 191.666 33.3435 190.498 33.3435C189.46 33.3435 188.551 33.5514 187.773 33.9672C186.994 34.3611 186.367 34.952 185.891 35.7398C185.459 35.5867 185.091 35.3459 184.788 35.0176C184.507 34.6893 184.367 34.3393 184.367 33.9672C184.367 33.3324 184.658 32.7415 185.242 32.1945C185.826 31.6475 186.605 31.2207 187.578 30.9143C188.573 30.586 189.643 30.4219 190.79 30.4219C192.996 30.4219 194.704 30.9581 195.915 32.0304C197.148 33.0808 197.764 34.5252 197.764 36.3635V44.8657C197.764 45.763 197.494 46.4195 196.953 46.8353C196.412 47.2292 195.547 47.4261 194.358 47.4261V46.0146C194.747 45.6207 195.007 45.3363 195.137 45.1611L194.974 45.0298C194.282 45.8176 193.504 46.4195 192.639 46.8353C191.795 47.2292 190.779 47.4261 189.589 47.4261ZM190.433 44.6687C191.622 44.6687 192.552 44.4279 193.223 43.9465C193.915 43.4651 194.261 42.7865 194.261 41.9112C194.261 41.0359 193.915 40.3574 193.223 39.876C192.552 39.3726 191.633 39.121 190.465 39.121C189.405 39.121 188.562 39.3726 187.935 39.876C187.329 40.3574 187.027 41.0359 187.027 41.9112C187.027 42.8086 187.329 43.498 187.935 43.9793C188.54 44.4389 189.373 44.6687 190.433 44.6687ZM206.784 47.4261C205.054 47.4261 203.757 46.9337 202.892 45.9489C202.027 44.9641 201.594 43.6949 201.594 42.141V26.22C201.594 25.3884 201.886 24.7866 202.47 24.4146C203.076 24.0425 203.995 23.8565 205.227 23.8565V42.0097C205.227 42.7976 205.39 43.3666 205.714 43.7167C206.06 44.045 206.612 44.2091 207.368 44.2091C208.212 44.2091 208.98 44.0011 209.672 43.5854C209.866 43.7606 210.018 43.9904 210.126 44.2748C210.234 44.5374 210.288 44.8 210.288 45.0626C210.288 45.6753 209.974 46.2226 209.347 46.704C208.742 47.1853 207.887 47.4261 206.784 47.4261Z" fill="#333333"/>
</g>
<defs>
<linearGradient id="paint0_linear_5809_16676" x1="0" y1="34" x2="37.3297" y2="34" gradientUnits="userSpaceOnUse">
<stop stop-color="#308848"/>
<stop offset="1" stop-color="#C8DE55"/>
</linearGradient>
<clipPath id="clip0_5809_16676">
<rect width="211.556" height="63.7778" fill="white" transform="translate(0 2.11108)"/>
</clipPath>
</defs>
</svg>
