<svg width="78" height="78" viewBox="0 0 78 78" fill="none" xmlns="http://www.w3.org/2000/svg">
<path d="M13.2395 26.0871C14.9948 26.969 16.7498 28.036 18.2223 29.5121C18.9478 30.2516 19.5852 31.0725 20.122 31.9585C20.6441 32.8303 21.0877 33.7467 21.4474 34.6971C22.1931 36.6949 22.5978 38.7615 22.9118 40.7866C22.994 41.2891 23.0682 41.7913 23.1381 42.2918L23.3391 43.7906L21.5077 44.0186C21.214 41.6611 20.984 39.2387 21.1855 36.7811C21.3774 34.3345 22.0205 31.8414 23.3249 29.6577C23.6523 29.1086 24.0208 28.5851 24.4271 28.0917C24.8345 27.589 25.2873 27.1249 25.7796 26.7051C25.8995 26.5948 26.0299 26.499 26.1574 26.3991C26.2866 26.3018 26.411 26.1963 26.5449 26.1064C26.812 25.9253 27.0769 25.7385 27.3565 25.5812C27.9049 25.2548 28.4766 24.9691 29.0668 24.7265C29.6465 24.4868 30.239 24.2794 30.8416 24.1054C31.4384 23.9387 32.0375 23.7847 32.6351 23.664C33.8315 23.4099 35.0202 23.2386 36.1924 23.0702L36.308 25.2916L35.2634 25.2692C34.1285 25.2479 32.9832 25.1871 31.8291 25.0938C30.6478 25.0089 29.4745 24.8355 28.3191 24.5749C27.1011 24.3028 25.9339 23.8391 24.8612 23.2012C24.307 22.8589 23.7946 22.4532 23.3344 21.9921C22.8762 21.5285 22.4773 21.0098 22.1469 20.4478C21.4944 19.3499 21.0942 18.2012 20.7521 17.0963C20.4067 15.9845 20.119 14.8556 19.8902 13.7141C19.6557 12.5746 19.4882 11.4222 19.3886 10.2631C19.3406 9.68374 19.3032 9.10373 19.2851 8.52311L19.2718 8.08775C19.2684 7.94267 19.2721 7.79728 19.2599 7.65241C19.2432 7.36243 19.2396 7.07199 19.2289 6.78156L21.1982 6.87479C21.0327 8.99381 20.8556 11.1491 20.4472 13.3148C20.3915 13.5851 20.3406 13.8565 20.2805 14.126L20.0785 14.9335L19.8478 15.7378L19.5853 16.5368C19.2135 17.61 18.7388 18.6447 18.1679 19.6266C17.0639 21.4826 15.5498 23.0614 13.7414 24.2419C13.0423 24.712 12.2775 25.076 11.4717 25.322C11.1775 25.4063 10.877 25.467 10.5732 25.5035C10.4378 25.5182 10.3101 25.5278 10.1903 25.5323L10.1018 25.5349L10.0302 25.5259C9.97996 25.519 9.93147 25.5124 9.88475 25.5061C9.30538 25.4214 8.98371 25.3206 9.43008 24.8817C9.49465 24.8209 9.56293 24.764 9.63453 24.7116C9.67197 24.6825 9.72487 24.6495 9.75861 24.6219C9.78998 24.5957 9.82274 24.5683 9.85689 24.5398C9.99339 24.4266 10.1583 24.316 10.3404 24.185C10.5209 24.051 10.7307 23.9235 10.9511 23.766C11.0629 23.6914 11.1798 23.6134 11.3016 23.5321C11.4211 23.4475 11.5462 23.3615 11.6769 23.2743C12.3531 22.8105 12.9982 22.3029 13.6081 21.7548C14.2311 21.2039 14.8106 20.6058 15.3415 19.9658C16.0652 19.0832 16.6735 18.112 17.1517 17.0756C17.6351 16.0171 18.0197 14.9163 18.3006 13.7871C18.9036 11.5113 19.1762 9.11747 19.4321 6.70471L19.4322 6.70334C19.4535 6.50345 19.5504 6.31925 19.7031 6.18848C19.8558 6.05771 20.0527 5.99026 20.2534 5.99994C20.4542 6.00962 20.6437 6.09571 20.7831 6.24056C20.9225 6.38542 21.0012 6.57808 21.0032 6.7791C21.0067 7.17051 20.9938 7.56268 21.0212 7.95378C21.046 8.34473 21.0754 8.73519 21.1151 9.12465C21.1907 9.90387 21.3031 10.6784 21.4315 11.4489C21.6854 12.9889 22.0576 14.5071 22.5447 15.9899C22.8563 17.0039 23.261 17.987 23.7537 18.9265C23.9855 19.3511 24.2587 19.7517 24.5693 20.1226C24.8724 20.471 25.2082 20.7896 25.5721 21.074C25.9136 21.3296 26.2762 21.5557 26.656 21.75C27.0532 21.9455 27.4633 22.114 27.8833 22.2541C28.7623 22.5347 29.6656 22.7324 30.5814 22.8446C32.4571 23.0887 34.4066 23.1244 36.3673 23.1968L36.3788 23.1972C36.6245 23.2062 36.8577 23.3073 37.0323 23.4803C37.207 23.6533 37.3102 23.8856 37.3215 24.1311C37.3328 24.3767 37.2515 24.6175 37.0935 24.8058C36.9356 24.9942 36.7126 25.1163 36.4689 25.1479C34.9802 25.3412 33.5155 25.5433 32.1078 25.8713C30.7059 26.2063 29.3484 26.6455 28.1496 27.3348C27.6383 27.6269 27.1554 27.9662 26.7074 28.3484C26.2622 28.7393 25.8544 29.1708 25.4892 29.6372C24.7601 30.6019 24.187 31.675 23.7907 32.8173C23.385 33.9765 23.1234 35.1811 23.0116 36.404C22.8953 37.6471 22.8695 38.897 22.9343 40.1439C22.9863 41.3577 23.1098 42.5787 23.253 43.804L23.2539 43.8122C23.2795 44.0319 23.217 44.2529 23.08 44.4266C22.943 44.6003 22.7426 44.7126 22.523 44.7389C22.3033 44.7651 22.0821 44.7032 21.908 44.5667C21.7339 44.4302 21.6211 44.2302 21.5942 44.0106C21.3536 42.0425 21.0997 40.0913 20.6448 38.2104C20.431 37.2742 20.1579 36.3526 19.8271 35.4512C19.4969 34.5657 19.084 33.7132 18.594 32.9051C18.4654 32.7098 18.346 32.5071 18.2107 32.3168L17.7926 31.7551C17.4986 31.3936 17.1859 31.0478 16.8558 30.7189C16.1726 30.0642 15.4239 29.4814 14.6215 28.9798C14.2175 28.7233 13.801 28.4814 13.3755 28.2509C13.1628 28.1357 12.9481 28.0231 12.7312 27.9131L12.4047 27.7498L12.2414 27.6698L12.0863 27.6003C11.884 27.503 11.662 27.4243 11.4463 27.339C11.2219 27.2659 11.0026 27.1828 10.7722 27.1198C10.3188 26.9788 9.85054 26.8718 9.38262 26.7704C8.47506 26.5812 7.55425 26.4623 6.62839 26.4148C5.73102 26.3706 4.84552 26.4234 4.10955 26.6783L3.89802 25.8367L3.89733 25.7811H3.89817H3.90335H3.91028H3.92415L3.95187 25.7813C3.96986 25.7816 3.98828 25.782 4.01418 25.7808L4.15738 25.7761L4.44867 25.764C4.64404 25.7553 4.8383 25.7466 5.03145 25.738C5.41926 25.7226 5.80233 25.7073 6.18066 25.6922C6.93857 25.6649 7.67851 25.6484 8.40146 25.6332C8.64743 25.6239 8.89376 25.6335 9.13826 25.6619C9.23309 25.6695 9.28977 25.6981 9.37722 25.6978C9.43415 25.6962 9.49022 25.712 9.5379 25.7432L9.68142 25.5757C9.66114 25.6521 9.63306 25.6858 9.64645 25.6927C9.65559 25.6995 9.70542 25.6779 9.75097 25.6048C9.75648 25.596 9.75997 25.5861 9.76121 25.5758C9.76244 25.5655 9.76138 25.5551 9.75811 25.5452C9.75483 25.5354 9.74942 25.5264 9.74226 25.5189C9.7351 25.5114 9.72637 25.5055 9.71669 25.5018C9.70702 25.4981 9.69663 25.4965 9.68629 25.4973C9.67594 25.498 9.66589 25.501 9.65685 25.5061C9.64781 25.5112 9.64001 25.5182 9.634 25.5267C9.62799 25.5351 9.62392 25.5448 9.6221 25.555L9.57739 25.8076C9.56907 25.8543 9.506 25.9256 9.38892 26.0049C9.30765 26.0712 9.21913 26.128 9.12506 26.1743C8.83515 26.3161 8.52938 26.4228 8.21421 26.4923C7.53148 26.6493 6.84388 26.7881 6.14606 26.9201C5.79736 26.9859 5.44623 27.0491 5.09268 27.1099L4.5576 27.1986L4.28262 27.2407L4.13949 27.261C4.08572 27.2681 4.00533 27.2753 3.93925 27.281C3.70252 27.3013 3.46612 27.2383 3.27101 27.1027C3.07589 26.9671 2.93436 26.7675 2.87093 26.5385C2.8075 26.3095 2.82617 26.0656 2.9237 25.8489C3.02124 25.6323 3.19149 25.4565 3.40497 25.3522L3.47322 25.3194C4.02309 25.0634 4.60718 24.8887 5.20723 24.8005C5.48518 24.7668 5.76869 24.7233 6.04124 24.7134C6.17852 24.7058 6.3172 24.6946 6.45355 24.6911L6.86054 24.6878C7.9405 24.6985 9.01626 24.8242 10.0696 25.0628C10.6018 25.1777 11.128 25.3191 11.646 25.4865L12.039 25.6177L12.4337 25.7679C12.5642 25.8145 12.6986 25.8779 12.8313 25.9355L13.0305 26.0238L13.208 26.1093C13.2182 26.1016 13.2278 26.0945 13.2395 26.0871Z" fill="#FE7239"/>
<path d="M59.9028 30.6408C60.818 31.7381 61.556 32.9718 62.0902 34.2971C62.1556 34.463 62.2261 34.6266 62.2864 34.7944L62.4471 35.3056C62.4981 35.4766 62.558 35.6446 62.6008 35.818L62.7186 36.3412C62.7545 36.5163 62.8032 36.6882 62.8275 36.8656L62.9003 37.3974L62.9359 37.6631C62.9482 37.7508 62.9601 37.8394 62.9662 37.9369C62.9806 38.128 62.988 38.3255 62.983 38.5311C62.9781 38.9007 62.918 39.2674 62.8047 39.6192C62.7344 39.8242 62.6402 40.0202 62.5242 40.2033C62.395 40.3984 62.2385 40.574 62.0593 40.7246L62.0466 40.7353C61.8983 40.8598 61.7158 40.9365 61.5231 40.9554C61.3305 40.9743 61.1365 40.9345 60.9669 40.8412C60.7972 40.7479 60.6598 40.6054 60.5725 40.4326C60.4853 40.2597 60.4524 40.0645 60.4781 39.8726C60.5981 38.9836 60.7686 38.1021 60.9887 37.2324C61.3467 35.7784 61.9014 34.38 62.6376 33.0759C63.3919 31.7427 64.3777 30.5545 65.5487 29.567C66.7477 28.5764 68.1325 27.8353 69.6217 27.3872C71.1516 26.9323 72.7691 26.8563 74.3349 27.1656C74.5648 27.2131 74.7744 27.3308 74.9346 27.5026C75.0947 27.6743 75.1976 27.8916 75.2289 28.1243C75.2603 28.357 75.2186 28.5937 75.1095 28.8017C75.0005 29.0097 74.8296 29.1787 74.6203 29.2853L74.5996 29.2957C74.09 29.5475 73.544 29.7175 72.9815 29.7995C72.4644 29.872 71.9413 29.8929 71.42 29.8617C70.9204 29.837 70.4445 29.7777 69.987 29.7121C69.5308 29.645 69.0954 29.5798 68.6228 29.4934C67.9431 29.3791 67.2778 29.1909 66.6389 28.9323C66.2892 28.7855 65.9548 28.6046 65.6405 28.3923C65.3196 28.1733 65.0235 27.9202 64.7571 27.6374C64.2626 27.0955 63.8585 26.4776 63.5605 25.8072C63.2843 25.188 63.0676 24.5439 62.9132 23.8837C62.2898 21.3254 62.3425 18.649 63.066 16.1171L63.067 16.1134C63.1304 15.8928 63.2568 15.6954 63.4309 15.5458C63.605 15.3961 63.819 15.3006 64.0466 15.271C64.2743 15.2415 64.5056 15.2791 64.7121 15.3794C64.9187 15.4797 65.0913 15.6382 65.2089 15.8353C65.5775 16.4758 65.7771 17.1995 65.7887 17.9384C65.8007 18.5861 65.7205 19.2322 65.5506 19.8573C65.4755 20.159 65.3782 20.4379 65.2854 20.7197C65.1818 20.9977 65.0808 21.2772 64.9578 21.5468C64.7232 22.0903 64.448 22.6153 64.1346 23.1174C62.8889 25.1455 61.0833 26.77 58.9354 27.7952C57.5689 28.4357 56.085 28.7876 54.5764 28.8289C53.9845 28.8495 53.3935 28.7683 52.829 28.589C52.7145 28.5506 52.6075 28.5111 52.5076 28.4694C52.4081 28.4236 52.3156 28.3769 52.2303 28.3292C52.0741 28.2457 51.9288 28.1432 51.7976 28.0241C51.4526 27.7133 51.5182 27.4631 51.8608 27.2995C52.2048 27.1394 52.8263 27.0548 53.6707 26.9701L54.0753 26.9264L54.4846 26.8717C54.7585 26.8299 55.0361 26.7951 55.3125 26.7433C55.8644 26.6457 56.4099 26.5153 56.9462 26.3527C57.9812 26.0308 58.9529 25.5327 59.8185 24.8804C61.5677 23.5656 62.8381 21.7141 63.4357 19.609C63.5784 19.1294 63.6508 18.6316 63.6506 18.1312C63.657 17.7182 63.5461 17.3119 63.3308 16.9594L65.1708 16.7174C64.9834 17.4622 64.8662 18.2229 64.8209 18.9895C64.7333 20.405 64.9263 21.8604 65.17 23.1978C65.3389 24.1509 65.6346 25.0531 66.1151 25.7467C66.3415 26.0802 66.6283 26.3684 66.9607 26.5964C67.3232 26.8268 67.7181 27.0019 68.1323 27.1159C68.6047 27.2464 69.0845 27.3483 69.5691 27.4212C70.0855 27.5047 70.5994 27.5885 71.0831 27.6378C72.056 27.7425 72.9521 27.7028 73.6372 27.3671L73.8739 29.2715L73.5343 29.207L73.3647 29.1735L73.1924 29.1532L72.8478 29.1114L72.4998 29.0939C71.7086 29.0639 70.9175 29.1566 70.1546 29.3687C69.3779 29.5867 68.6332 29.9057 67.9397 30.3177C67.2417 30.7304 66.5975 31.2278 66.0217 31.7986C65.4402 32.3781 64.9238 33.0193 64.4815 33.7109C63.2672 35.5871 62.551 37.8088 62.2536 40.0794L60.91 39.3555C60.9902 39.288 61.0508 39.2003 61.0855 39.1014C61.1415 38.9475 61.1733 38.7859 61.1801 38.6223C61.1907 38.419 61.1853 38.2152 61.164 38.0127L61.0674 37.3354C61.0343 37.1092 60.9885 36.885 60.9303 36.6639L60.8534 36.329C60.83 36.2167 60.7861 36.1099 60.7536 35.9999C60.6809 35.7823 60.6188 35.5606 60.5383 35.3452L60.2745 34.7065C59.8923 33.8625 59.417 33.0637 58.8576 32.3252C58.2848 31.5915 57.6366 30.92 56.9236 30.3218C56.0231 29.5856 55.0431 28.9525 54.0017 28.4345C53.9391 28.4017 53.8776 28.3664 53.8145 28.3353L53.6225 28.2508L53.2408 28.0781C52.9901 27.9507 52.7291 27.8663 52.4732 27.7633L52.0898 27.6102C51.9643 27.5651 51.8399 27.5244 51.7147 27.4927C51.4675 27.4158 51.2029 27.4147 50.955 27.4895C50.8944 27.5127 50.8392 27.5412 50.7956 27.5609C50.7947 27.5613 50.7939 27.5619 50.7932 27.5626C50.7926 27.5633 50.792 27.5642 50.7917 27.5651L50.7867 27.5791C50.7703 27.6302 50.7738 27.6855 50.7965 27.7341C50.817 27.7786 50.8464 27.8185 50.8829 27.8512C50.9489 27.9102 51.0314 27.9473 51.1192 27.9576C51.1607 27.9632 51.203 27.96 51.2432 27.9481C51.2791 27.9411 51.3144 27.9316 51.349 27.9195C51.4072 27.8975 51.4496 27.8837 51.4737 27.8991C51.497 27.9137 51.5039 27.9594 51.4695 28.0375C51.4444 28.0852 51.4109 28.128 51.3707 28.164C51.3225 28.2217 51.2596 28.2655 51.1887 28.2907C51.0187 28.3596 50.8297 28.3657 50.6556 28.308C50.5269 28.2654 50.4113 28.1901 50.3202 28.0896C50.2549 28.0167 50.2033 27.9325 50.168 27.8411C50.1275 27.7328 50.1092 27.6174 50.1141 27.5019C50.1174 27.4142 50.1459 27.3294 50.1962 27.2575L50.3225 27.0766C50.3886 26.9815 50.4661 26.8948 50.5533 26.8185C50.6019 26.776 50.6535 26.7371 50.7078 26.7021C50.7656 26.6696 50.8256 26.6411 50.8873 26.6168C51.1791 26.5059 51.4895 26.4522 51.8015 26.4586C52.0453 26.4597 52.2887 26.481 52.5289 26.5225L53.1896 26.6276L53.3558 26.6562L53.5187 26.6974L53.8455 26.7816C54.7267 27.0107 55.5777 27.3433 56.3807 27.7723C57.7071 28.5149 58.8885 29.4908 59.8683 30.6531C59.8794 30.649 59.8898 30.6453 59.9028 30.6408Z" fill="#FE7239"/>
<path d="M39.3325 54.218L40.0284 54.6076L40.698 55.0419L40.8646 55.1514L41.0245 55.2712L41.3437 55.5113C41.4495 55.5921 41.5572 55.6702 41.661 55.7534L41.9633 56.0152C42.3678 56.3627 42.7524 56.7325 43.1154 57.123L43.6373 57.7286C43.8082 57.9325 43.9588 58.152 44.1196 58.3633C44.7363 59.2235 45.2592 60.1473 45.6793 61.1188C46.0858 62.0891 46.3938 63.0978 46.5988 64.1296C46.6455 64.4039 46.7024 64.6765 46.7378 64.9526L46.8297 65.7827L46.8703 66.6173C46.8846 66.8953 46.8663 67.1746 46.8655 67.4529C46.8292 68.5685 46.6703 69.6766 46.3917 70.7574L46.1738 71.5178C46.1111 71.7363 45.9716 71.9248 45.781 72.0486C45.5903 72.1724 45.3614 72.2232 45.1363 72.1916C44.9112 72.16 44.7051 72.0482 44.5559 71.8767C44.4068 71.7052 44.3246 71.4855 44.3245 71.2582L44.3248 71.2142C44.3269 68.7601 44.3216 66.2295 44.7933 63.6876C45.0251 62.4011 45.4044 61.1455 45.9235 59.9458C46.4539 58.7127 47.181 57.574 48.0765 56.5741C48.9949 55.5838 50.074 54.7557 51.2681 54.1246C52.4271 53.5196 53.6463 53.0377 54.9057 52.687C55.5248 52.5102 56.1456 52.3591 56.7686 52.2254C57.3931 52.0934 58.0328 51.977 58.6935 51.9049C59.3689 51.8251 60.05 51.8049 60.7289 51.8446C61.4411 51.8866 62.145 52.0197 62.8233 52.2407C63.0469 52.3136 63.2424 52.4537 63.3834 52.6418C63.5243 52.83 63.6038 53.0571 63.6108 53.2921C63.6179 53.5271 63.5523 53.7586 63.4229 53.9549C63.2935 54.1512 63.1067 54.3028 62.888 54.389L62.8635 54.3985C61.7954 54.7961 60.666 55.0038 59.5264 55.0125C58.3171 55.0198 57.1095 54.9238 55.9165 54.7254C54.7338 54.5613 53.5628 54.3214 52.4108 54.0073C51.8155 53.8424 51.2308 53.6413 50.6599 53.4051C50.072 53.1665 49.5047 52.88 48.9637 52.5483C48.4089 52.2097 47.8881 51.8181 47.4088 51.379C46.9319 50.9374 46.5002 50.4494 46.1201 49.9223C45.3974 48.9033 44.8106 47.7945 44.3746 46.6238C43.5176 44.3748 42.9881 42.0144 42.8026 39.6148C42.7809 39.3155 42.7622 39.0159 42.7519 38.716C42.7452 38.5661 42.7404 38.4162 42.7385 38.2661C42.7362 38.1148 42.7307 37.9747 42.7338 37.7907C42.7337 37.3865 42.7935 36.9845 42.9112 36.5978C42.9918 36.3422 43.1122 36.101 43.268 35.883C43.4541 35.6252 43.6947 35.4115 43.9726 35.2571L43.9844 35.2507C44.1204 35.1765 44.2697 35.1299 44.4238 35.1134C44.5778 35.0969 44.7336 35.1109 44.8822 35.1547C45.0309 35.1984 45.1694 35.271 45.29 35.3682C45.4106 35.4655 45.5108 35.5856 45.585 35.7216C45.6646 35.869 45.7125 36.0314 45.7257 36.1984C46.0737 40.9793 44.8397 45.742 42.2138 49.7524C41.6024 50.6842 40.8777 51.5365 40.0564 52.2897C39.6358 52.6699 39.1852 53.0155 38.709 53.3233C38.2309 53.6325 37.725 53.8967 37.198 54.1124C36.3622 54.4672 35.457 54.6287 34.55 54.5849C33.9686 54.5634 33.4009 54.4023 32.8947 54.1153C32.3503 53.7686 32.4581 53.5293 32.9323 53.4177C33.1734 53.3481 33.5102 53.305 33.9334 53.2243C34.4447 53.129 34.9493 53.0005 35.4439 52.8397C36.2032 52.583 36.9211 52.2171 37.5749 51.7534C38.2551 51.2663 38.8765 50.7018 39.4266 50.0714C40.2208 49.1496 40.9025 48.1368 41.4576 47.0541C42.0328 45.9671 42.5 44.8264 42.8526 43.6482C43.5627 41.2915 43.8169 38.821 43.6015 36.369L45.0043 37.1222C45.0047 37.123 45.0067 37.1259 45.0047 37.1226L44.9993 37.115C45.0003 37.1166 45.0013 37.118 45.0024 37.1194C45.0053 37.1232 45.0081 37.1258 45.0066 37.1238V37.1267C44.9986 37.1382 44.9918 37.1505 44.9865 37.1634C44.95 37.2496 44.9264 37.3408 44.9164 37.434C44.8979 37.58 44.8905 37.7273 44.8944 37.8745L44.9151 38.4321C44.9538 39.1903 45.0341 39.9455 45.1439 40.6953C45.3697 42.1928 45.7472 43.6634 46.2708 45.0844C46.6323 46.0937 47.104 47.06 47.6773 47.9658C47.951 48.3917 48.2579 48.7953 48.595 49.1729C48.7573 49.3547 48.9286 49.5282 49.1083 49.6928C49.199 49.7731 49.2835 49.8593 49.3766 49.9366L49.6557 50.1678C50.4921 50.8087 51.4294 51.3058 52.4292 51.6386C53.4869 51.9962 54.5727 52.2645 55.6752 52.4406C56.7799 52.646 57.8976 52.7742 59.0202 52.8244C60.0628 52.8749 61.1054 52.7237 62.0907 52.3791L62.1262 54.2876C61.1507 53.9558 60.0489 53.9015 58.9172 54.0155C58.3511 54.069 57.7764 54.1627 57.1958 54.2744C56.6144 54.3879 56.0367 54.5157 55.469 54.6627C54.2526 54.9623 53.079 55.4145 51.976 56.0084C50.904 56.5836 49.953 57.3602 49.1753 58.2957C48.4046 59.2564 47.7957 60.3363 47.3727 61.4929C46.9367 62.6772 46.6323 63.9059 46.4648 65.1567C46.1836 67.1269 46.1536 69.1619 46.1275 71.2243L44.4624 70.9509C45.5716 67.6814 45.1847 63.9129 43.5247 60.8477C43.4162 60.659 43.3199 60.4622 43.2018 60.2792L42.8468 59.7304C42.7261 59.549 42.5878 59.3807 42.4594 59.2048C42.393 59.1187 42.3315 59.0282 42.2609 58.9455L42.0467 58.6996C41.7624 58.37 41.4617 58.0548 41.1458 57.7554C40.8143 57.4724 40.493 57.176 40.1338 56.9253C39.9616 56.7903 39.7827 56.6642 39.5977 56.5474C39.4125 56.4307 39.2317 56.3065 39.0431 56.195L38.4672 55.8767C38.2766 55.7676 38.0717 55.6861 37.8748 55.589C37.0762 55.2175 36.2412 54.93 35.3832 54.7312C33.3386 54.2511 31.2155 54.2099 29.1538 54.6101L29.1323 53.7919C30.3669 54.1673 31.6627 54.2987 32.9476 54.1789C33.6768 54.1102 34.047 54.0906 34.044 54.2475C34.0391 54.3168 33.9427 54.4369 33.7351 54.5737C33.6091 54.6566 33.4773 54.7302 33.3406 54.794C33.2608 54.8329 33.1737 54.8723 33.0785 54.9089C33.031 54.9271 32.9821 54.9482 32.9305 54.9647C32.8785 54.9799 32.8248 54.9948 32.7693 55.0094C31.4807 55.3479 30.1345 55.4062 28.8215 55.1803C28.6042 55.1422 28.4059 55.0324 28.2581 54.8685C28.1104 54.7047 28.0218 54.4961 28.0063 54.276C27.9909 54.0559 28.0495 53.837 28.1729 53.6541C28.2963 53.4712 28.4774 53.3348 28.6872 53.2667L28.7705 53.24C30.0749 52.8242 31.4359 52.6132 32.805 52.6147C33.9292 52.6115 35.0491 52.7547 36.1364 53.0407C37.2311 53.324 38.2917 53.7258 39.2994 54.2388C39.31 54.2315 39.3202 54.2248 39.3325 54.218Z" fill="#FE7239"/>
</svg>
