<svg width="155" height="155" viewBox="0 0 155 155" fill="none" xmlns="http://www.w3.org/2000/svg">
<mask id="mask0_5809_16903" style="mask-type:alpha" maskUnits="userSpaceOnUse" x="0" y="0" width="155" height="155">
<path d="M75.4634 1.39325C75.7694 -0.46442 78.4405 -0.464417 78.7465 1.39326L89.0277 63.8111C89.1436 64.5148 89.6951 65.0663 90.3988 65.1822L152.817 75.4634C154.674 75.7694 154.674 78.4405 152.817 78.7465L90.3988 89.0277C89.6951 89.1436 89.1436 89.6951 89.0277 90.3988L78.7465 152.817C78.4405 154.674 75.7694 154.674 75.4634 152.817L65.1822 90.3988C65.0663 89.6951 64.5148 89.1436 63.8111 89.0277L1.39325 78.7465C-0.46442 78.4405 -0.464417 75.7694 1.39326 75.4634L63.8111 65.1822C64.5148 65.0663 65.0663 64.5148 65.1822 63.8111L75.4634 1.39325Z" fill="#F5F5EF"/>
</mask>
<g mask="url(#mask0_5809_16903)">
<rect width="190.449" height="190.449" fill="#F5F5EF"/>
</g>
</svg>
