<svg width="230" height="230" viewBox="0 0 230 230" fill="none" xmlns="http://www.w3.org/2000/svg">
<path d="M39.039 76.9235C44.2151 79.5239 49.3901 82.6703 53.7321 87.023C55.8712 89.2035 57.7508 91.6241 59.3336 94.2366C60.8733 96.8072 62.1813 99.5097 63.242 102.312C65.4408 108.203 66.6341 114.297 67.5599 120.268C67.8025 121.75 68.0213 123.231 68.2272 124.707L68.82 129.126L63.4196 129.799C62.5538 122.847 61.8755 115.704 62.4698 108.457C63.0356 101.243 64.9317 93.8912 68.7782 87.4522C69.7436 85.8332 70.8301 84.2896 72.0283 82.8344C73.2296 81.3523 74.5646 79.9837 76.0165 78.746C76.37 78.4205 76.7543 78.1381 77.1303 77.8435C77.5115 77.5567 77.8783 77.2455 78.2731 76.9805C79.0606 76.4465 79.8417 75.8957 80.6661 75.4316C82.2833 74.4692 83.9689 73.6269 85.7095 72.9115C87.4187 72.2047 89.1657 71.5933 90.9426 71.0799C92.7025 70.5885 94.4693 70.1343 96.2313 69.7785C99.759 69.0293 103.264 68.524 106.721 68.0276L107.062 74.578L103.981 74.5117C100.635 74.4489 97.2578 74.2696 93.8547 73.9945C90.3713 73.7443 86.9116 73.2328 83.5047 72.4646C79.913 71.6622 76.4713 70.2949 73.3081 68.4139C71.674 67.4046 70.1631 66.208 68.8063 64.8486C67.455 63.4816 66.2787 61.952 65.3046 60.2949C63.3804 57.0575 62.2003 53.6703 61.1916 50.4121C60.173 47.1338 59.3248 43.805 58.6501 40.4391C57.9586 37.0788 57.4648 33.681 57.171 30.2629C57.0295 28.5546 56.9193 26.8444 56.866 25.1323L56.8267 23.8485C56.8166 23.4207 56.8274 22.992 56.7915 22.5648C56.7423 21.7097 56.7317 20.8533 56.7003 19.9969L62.5071 20.2718C62.019 26.5202 61.4968 32.8755 60.2927 39.2617C60.1285 40.0585 59.9782 40.8589 59.801 41.6537L59.2053 44.0348L58.525 46.4063L57.7512 48.7623C56.6547 51.9269 55.2549 54.978 53.5715 57.8733C50.3162 63.3463 45.8514 68.0016 40.5192 71.4826C38.4577 72.8687 36.2024 73.942 33.8265 74.6675C32.9589 74.916 32.0729 75.0949 31.1769 75.2026C30.7776 75.2461 30.4013 75.2744 30.048 75.2876L29.7871 75.2952L29.5759 75.2687C29.4277 75.2485 29.2847 75.229 29.1469 75.2102C27.4385 74.9606 26.49 74.6632 27.8062 73.3693C27.9966 73.1897 28.198 73.0222 28.4091 72.8675C28.5195 72.7817 28.6755 72.6845 28.775 72.6032C28.8675 72.5258 28.9641 72.445 29.0648 72.3609C29.4673 72.0272 29.9536 71.7009 30.4904 71.3149C31.0227 70.9196 31.6415 70.5438 32.2913 70.0792C32.621 69.8592 32.9655 69.6293 33.3247 69.3896C33.6772 69.1399 34.046 68.8865 34.4314 68.6293C36.4254 67.2617 38.3277 65.765 40.1262 64.1489C41.963 62.5244 43.6718 60.7608 45.2374 58.8736C47.3714 56.271 49.1651 53.4071 50.5752 50.3511C52.0006 47.2301 53.1347 43.984 53.963 40.6543C55.7409 33.9435 56.5448 26.8849 57.2993 19.7703L57.2998 19.7663C57.3625 19.1769 57.6482 18.6337 58.0984 18.2481C58.5486 17.8625 59.1292 17.6636 59.7213 17.6922C60.3133 17.7207 60.8721 17.9745 61.2831 18.4017C61.6941 18.8288 61.9262 19.3969 61.9319 19.9897C61.9425 21.1439 61.9044 22.3002 61.9852 23.4535C62.0584 24.6063 62.1451 25.7577 62.2619 26.906C62.485 29.2037 62.8165 31.4876 63.1949 33.7596C63.9438 38.3006 65.0412 42.7772 66.4776 47.1497C67.3964 50.1399 68.5898 53.0386 70.0426 55.8089C70.726 57.061 71.5315 58.2423 72.4475 59.3358C73.3414 60.3631 74.3315 61.3026 75.4045 62.1412C76.4115 62.8949 77.4807 63.5617 78.6005 64.1345C79.7719 64.7112 80.981 65.2079 82.2196 65.6212C84.8114 66.4484 87.475 67.0313 90.1754 67.3624C95.7065 68.0821 101.455 68.1872 107.237 68.4007L107.27 68.4019C107.995 68.4286 108.683 68.7266 109.198 69.2367C109.712 69.7468 110.017 70.4319 110.05 71.1559C110.084 71.8799 109.844 72.5901 109.378 73.1455C108.912 73.7009 108.255 74.0609 107.536 74.1542C103.146 74.724 98.8272 75.32 94.6764 76.2871C90.5427 77.2751 86.5397 78.57 83.0048 80.6025C81.497 81.4638 80.0733 82.4645 78.7523 83.5916C77.4395 84.7441 76.2368 86.0164 75.1599 87.3919C73.0102 90.2364 71.3202 93.4006 70.1516 96.7691C68.9555 100.187 68.1839 103.739 67.8542 107.345C67.5114 111.011 67.4352 114.696 67.6262 118.373C67.7797 121.952 68.1437 125.553 68.566 129.166L68.5687 129.19C68.6444 129.838 68.4599 130.489 68.0559 131.002C67.6519 131.514 67.0612 131.845 66.4134 131.922C65.7656 132 65.1136 131.817 64.6002 131.415C64.0868 131.012 63.754 130.422 63.6747 129.775C62.9654 123.972 62.2168 118.218 60.8752 112.672C60.245 109.911 59.4397 107.194 58.4642 104.535C57.4903 101.924 56.2729 99.4109 54.828 97.0279C54.4489 96.4519 54.0966 95.8544 53.6978 95.2933L52.465 93.6367C51.5979 92.5709 50.6758 91.5511 49.7025 90.5814C47.688 88.6508 45.4803 86.9324 43.1143 85.4534C41.9229 84.697 40.6947 83.9837 39.4402 83.304C38.813 82.9642 38.1798 82.6322 37.5404 82.308L36.5774 81.8264L36.0961 81.5903L35.6388 81.3855C35.0422 81.0986 34.3876 80.8665 33.7516 80.6151C33.0899 80.3995 32.4431 80.1545 31.7638 79.9688C30.4267 79.5529 29.0461 79.2374 27.6663 78.9384C24.9901 78.3804 22.2749 78.0299 19.5448 77.8898C16.8987 77.7595 14.2876 77.9153 12.1175 78.6667L11.4937 76.1852L11.4917 76.0212H11.4942H11.5095H11.5299H11.5708L11.6525 76.0218C11.7056 76.0227 11.7599 76.024 11.8363 76.0202L12.2585 76.0064L13.1174 75.9709C13.6936 75.9451 14.2664 75.9195 14.8359 75.8941C15.9794 75.8486 17.109 75.8036 18.2246 75.7592C20.4595 75.6785 22.6413 75.6301 24.7731 75.585C25.4984 75.5577 26.2248 75.5861 26.9457 75.6698C27.2254 75.6923 27.3925 75.7765 27.6504 75.7756C27.8182 75.7709 27.9835 75.8176 28.1242 75.9094L28.5474 75.4155C28.4876 75.6409 28.4048 75.7403 28.4442 75.7605C28.4712 75.7807 28.6181 75.7169 28.7524 75.5014C28.7687 75.4754 28.779 75.4463 28.7826 75.4159C28.7863 75.3855 28.7831 75.3547 28.7735 75.3257C28.7638 75.2967 28.7479 75.2701 28.7268 75.248C28.7056 75.2259 28.6799 75.2087 28.6514 75.1977C28.6228 75.1866 28.5922 75.1821 28.5617 75.1843C28.5312 75.1865 28.5016 75.1954 28.4749 75.2104C28.4482 75.2254 28.4252 75.2461 28.4075 75.271C28.3898 75.296 28.3778 75.3245 28.3724 75.3546L28.2406 76.0992C28.2161 76.2369 28.0301 76.4473 27.6849 76.6812C27.4452 76.8766 27.1842 77.0442 26.9068 77.1808C26.052 77.5988 25.1503 77.9135 24.221 78.1182C22.2078 78.5812 20.1802 78.9906 18.1226 79.3798C17.0943 79.5737 16.059 79.7603 15.0165 79.9395L13.4387 80.201L12.6278 80.3252L12.2058 80.385C12.0472 80.4059 11.8102 80.4271 11.6153 80.4439C10.9173 80.504 10.2202 80.318 9.64486 79.9182C9.06952 79.5183 8.65218 78.9299 8.46514 78.2547C8.2781 77.5795 8.33315 76.8601 8.62075 76.2212C8.90835 75.5823 9.41038 75.0642 10.0399 74.7566L10.2411 74.6596C11.8625 73.9051 13.5848 73.3897 15.3542 73.1296C16.1738 73.0302 17.0098 72.9021 17.8135 72.8727C18.2183 72.8505 18.6272 72.8175 19.0293 72.8071L20.2294 72.7974C23.4139 72.8289 26.586 73.1996 29.6919 73.9033C31.2613 74.2419 32.8128 74.6589 34.3405 75.1526L35.4992 75.5394L36.663 75.9822C37.048 76.1198 37.4442 76.3066 37.8355 76.4766L38.4228 76.7368L38.9462 76.9891C38.9763 76.9663 39.0046 76.9452 39.039 76.9235Z" fill="#FE7239"/>
<path d="M176.636 90.351C179.335 93.5866 181.511 97.2243 183.086 101.132C183.279 101.622 183.487 102.104 183.664 102.599L184.138 104.106C184.289 104.61 184.465 105.106 184.592 105.617L184.939 107.16C185.045 107.676 185.188 108.183 185.26 108.706L185.475 110.274L185.58 111.058C185.616 111.316 185.651 111.577 185.669 111.865C185.711 112.429 185.733 113.011 185.718 113.617C185.704 114.707 185.527 115.788 185.193 116.826C184.985 117.43 184.708 118.008 184.366 118.548C183.985 119.123 183.523 119.641 182.995 120.085L182.957 120.117C182.52 120.484 181.982 120.71 181.414 120.766C180.846 120.822 180.274 120.704 179.774 120.429C179.273 120.154 178.868 119.734 178.611 119.224C178.353 118.714 178.256 118.139 178.332 117.573C178.686 114.951 179.189 112.352 179.838 109.788C180.893 105.5 182.529 101.377 184.7 97.5315C186.924 93.6003 189.831 90.0966 193.284 87.1846C196.819 84.2637 200.903 82.0784 205.294 80.7569C209.805 79.4157 214.575 79.1915 219.192 80.1037C219.87 80.2437 220.488 80.5909 220.96 81.0972C221.433 81.6036 221.736 82.2442 221.828 82.9305C221.921 83.6167 221.798 84.3147 221.476 84.928C221.155 85.5413 220.651 86.0396 220.034 86.354L219.973 86.3847C218.47 87.1272 216.86 87.6285 215.201 87.8702C213.676 88.0841 212.134 88.1455 210.597 88.0536C209.124 87.9807 207.72 87.806 206.371 87.6125C205.026 87.4147 203.742 87.2223 202.349 86.9678C200.344 86.6306 198.383 86.0758 196.499 85.3131C195.467 84.8803 194.481 84.3469 193.555 83.7208C192.609 83.075 191.735 82.3287 190.95 81.4948C189.492 79.897 188.3 78.0747 187.421 76.0981C186.607 74.2721 185.968 72.373 185.513 70.4263C183.674 62.8825 183.83 54.9905 185.963 47.5248L185.966 47.5139C186.153 46.8632 186.526 46.2814 187.039 45.84C187.552 45.3986 188.184 45.117 188.855 45.0299C189.526 44.9427 190.208 45.0538 190.817 45.3495C191.426 45.6451 191.935 46.1124 192.282 46.6939C193.369 48.5823 193.957 50.7164 193.992 52.8951C194.027 54.805 193.791 56.7102 193.29 58.5536C193.068 59.4431 192.781 60.2654 192.508 61.0965C192.202 61.9164 191.904 62.7404 191.542 63.5354C190.85 65.1379 190.038 66.686 189.114 68.1667C185.441 74.1469 180.117 78.9372 173.783 81.9601C169.754 83.8488 165.378 84.8865 160.93 85.0083C159.184 85.0688 157.442 84.8295 155.777 84.3007C155.44 84.1876 155.124 84.071 154.83 83.9481C154.536 83.8132 154.263 83.6753 154.012 83.5346C153.551 83.2884 153.123 82.9863 152.736 82.6352C151.719 81.7186 151.912 80.9808 152.922 80.4984C153.937 80.0264 155.769 79.777 158.259 79.5271L159.452 79.3983L160.659 79.237C161.467 79.1138 162.285 79.0112 163.1 78.8584C164.728 78.5707 166.336 78.1861 167.918 77.7067C170.97 76.7575 173.835 75.2887 176.387 73.3651C181.545 69.4881 185.291 64.0286 187.053 57.8213C187.474 56.4071 187.687 54.9392 187.687 53.4637C187.706 52.2459 187.379 51.0478 186.744 50.0084L192.17 49.2949C191.617 51.491 191.272 53.7341 191.138 55.9946C190.88 60.1684 191.449 64.4602 192.167 68.4037C192.665 71.214 193.537 73.8743 194.954 75.9196C195.622 76.9031 196.467 77.7529 197.447 78.4251C198.517 79.1047 199.681 79.621 200.902 79.9569C202.295 80.3418 203.71 80.6424 205.139 80.8573C206.662 81.1034 208.177 81.3505 209.603 81.496C212.472 81.8049 215.115 81.6877 217.135 80.6977L217.833 86.3132L216.831 86.123L216.331 86.0242L215.823 85.9644L214.807 85.8413L213.781 85.7897C211.448 85.7011 209.115 85.9744 206.865 86.6C204.575 87.2427 202.379 88.1835 200.334 89.3983C198.276 90.6152 196.377 92.0819 194.679 93.7651C192.964 95.4738 191.441 97.3646 190.137 99.4038C186.557 104.936 184.445 111.487 183.568 118.183L179.606 116.048C179.842 115.849 180.021 115.59 180.123 115.299C180.288 114.845 180.382 114.369 180.402 113.886C180.433 113.287 180.418 112.686 180.355 112.089L180.07 110.091C179.972 109.424 179.837 108.763 179.666 108.111L179.439 107.124C179.37 106.793 179.24 106.478 179.145 106.153C178.93 105.512 178.747 104.858 178.51 104.223L177.732 102.339C176.605 99.8507 175.203 97.4956 173.554 95.3177C171.865 93.1543 169.953 91.1743 167.851 89.4103C165.196 87.2394 162.306 85.3727 159.235 83.8451C159.051 83.7485 158.869 83.6443 158.683 83.5528L158.117 83.3037L156.991 82.7942C156.252 82.4188 155.483 82.1697 154.728 81.8661L153.597 81.4147C153.227 81.2816 152.86 81.1617 152.491 81.0682C151.762 80.8413 150.982 80.838 150.251 81.0587C150.072 81.127 149.91 81.211 149.781 81.2691C149.779 81.2703 149.776 81.272 149.774 81.2742C149.772 81.2763 149.771 81.2788 149.77 81.2816L149.755 81.323C149.707 81.4735 149.717 81.6367 149.784 81.7798C149.844 81.9112 149.931 82.0288 150.039 82.1254C150.233 82.2991 150.477 82.4087 150.736 82.4391C150.858 82.4555 150.982 82.4459 151.101 82.4109C151.207 82.3904 151.311 82.3623 151.413 82.3267C151.585 82.2619 151.71 82.2209 151.781 82.2666C151.849 82.3094 151.87 82.4444 151.769 82.6745C151.694 82.8152 151.596 82.9416 151.477 83.0476C151.335 83.2179 151.149 83.3469 150.94 83.4213C150.439 83.6242 149.882 83.6423 149.369 83.4723C148.989 83.3465 148.648 83.1246 148.38 82.8283C148.187 82.6132 148.035 82.3649 147.931 82.0955C147.811 81.7761 147.757 81.4359 147.772 81.0952C147.781 80.8367 147.866 80.5865 148.014 80.3745L148.386 79.8412C148.581 79.5607 148.81 79.3051 149.067 79.0801C149.21 78.9547 149.362 78.84 149.522 78.7368C149.693 78.6409 149.87 78.5569 150.052 78.4853C150.912 78.1585 151.827 78.0001 152.747 78.0189C153.466 78.022 154.184 78.085 154.892 78.2072L156.84 78.5173L157.331 78.6015L157.811 78.7229L158.775 78.9713C161.373 79.6468 163.882 80.6274 166.25 81.8927C170.161 84.0823 173.645 86.9599 176.534 90.3872C176.567 90.3752 176.597 90.3644 176.636 90.351Z" fill="#FE7239"/>
<path d="M115.98 159.874L118.032 161.023L120.007 162.303L120.498 162.626L120.969 162.98L121.911 163.688C122.222 163.926 122.54 164.156 122.846 164.401L123.738 165.173C124.93 166.198 126.064 167.288 127.135 168.44L128.674 170.226C129.178 170.827 129.622 171.474 130.096 172.097C131.914 174.634 133.456 177.358 134.695 180.222C135.893 183.084 136.802 186.058 137.406 189.1C137.544 189.909 137.712 190.713 137.816 191.527L138.087 193.975L138.207 196.436C138.249 197.256 138.195 198.079 138.193 198.9C138.086 202.189 137.617 205.457 136.796 208.644L136.153 210.886C135.968 211.53 135.557 212.086 134.995 212.451C134.433 212.816 133.758 212.966 133.094 212.873C132.43 212.78 131.822 212.45 131.382 211.944C130.943 211.439 130.7 210.791 130.7 210.121L130.701 209.991C130.707 202.755 130.692 195.293 132.082 187.797C132.766 184.004 133.884 180.301 135.415 176.764C136.979 173.128 139.123 169.77 141.763 166.821C144.472 163.901 147.654 161.459 151.175 159.599C154.592 157.814 158.187 156.394 161.901 155.359C163.727 154.838 165.557 154.392 167.394 153.998C169.236 153.609 171.122 153.266 173.07 153.053C175.062 152.818 177.07 152.758 179.072 152.875C181.172 152.999 183.248 153.392 185.248 154.043C185.907 154.258 186.484 154.671 186.899 155.226C187.315 155.781 187.549 156.451 187.57 157.144C187.591 157.837 187.397 158.519 187.016 159.098C186.634 159.677 186.084 160.124 185.439 160.378L185.366 160.406C182.217 161.578 178.887 162.191 175.526 162.217C171.96 162.238 168.399 161.955 164.882 161.37C161.394 160.886 157.941 160.179 154.544 159.253C152.789 158.766 151.065 158.173 149.381 157.477C147.648 156.773 145.975 155.928 144.38 154.95C142.744 153.952 141.208 152.797 139.795 151.502C138.388 150.2 137.116 148.761 135.995 147.207C133.864 144.202 132.133 140.933 130.848 137.481C128.321 130.849 126.759 123.889 126.212 116.813C126.148 115.931 126.093 115.047 126.063 114.163C126.043 113.721 126.029 113.279 126.023 112.836C126.016 112.39 126 111.977 126.01 111.434C126.009 110.242 126.186 109.057 126.533 107.917C126.77 107.163 127.125 106.452 127.585 105.809C128.133 105.049 128.843 104.419 129.662 103.964L129.697 103.945C130.098 103.726 130.539 103.588 130.993 103.54C131.447 103.491 131.906 103.533 132.345 103.661C132.783 103.79 133.191 104.004 133.547 104.291C133.903 104.578 134.198 104.932 134.417 105.333C134.652 105.768 134.793 106.247 134.832 106.739C135.858 120.837 132.219 134.881 124.476 146.706C122.673 149.454 120.537 151.967 118.114 154.188C116.874 155.309 115.546 156.328 114.142 157.236C112.732 158.147 111.24 158.926 109.686 159.562C107.221 160.609 104.552 161.085 101.878 160.956C100.163 160.892 98.4893 160.417 96.9969 159.571C95.3915 158.549 95.7094 157.843 97.1076 157.514C97.8185 157.309 98.8118 157.182 100.059 156.944C101.567 156.663 103.055 156.284 104.514 155.81C106.753 155.053 108.869 153.974 110.797 152.607C112.803 151.17 114.635 149.506 116.257 147.647C118.599 144.929 120.61 141.942 122.246 138.75C123.942 135.544 125.32 132.181 126.36 128.707C128.454 121.757 129.203 114.472 128.568 107.242L132.705 109.463C132.706 109.466 132.712 109.474 132.706 109.464L132.69 109.442C132.693 109.447 132.696 109.451 132.699 109.455C132.708 109.466 132.716 109.474 132.711 109.468V109.476C132.688 109.51 132.668 109.547 132.652 109.585C132.544 109.839 132.475 110.108 132.445 110.382C132.391 110.813 132.369 111.247 132.381 111.682L132.442 113.326C132.556 115.561 132.792 117.788 133.116 119.999C133.782 124.415 134.895 128.751 136.439 132.942C137.505 135.918 138.896 138.767 140.586 141.438C141.394 142.694 142.298 143.884 143.293 144.997C143.771 145.533 144.276 146.045 144.806 146.53C145.073 146.767 145.323 147.021 145.597 147.249L146.42 147.931C148.886 149.821 151.65 151.287 154.599 152.268C157.717 153.322 160.919 154.114 164.17 154.633C167.427 155.238 170.723 155.617 174.033 155.765C177.108 155.913 180.182 155.467 183.088 154.451L183.192 160.079C180.316 159.101 177.067 158.941 173.73 159.277C172.061 159.434 170.366 159.711 168.654 160.04C166.939 160.375 165.236 160.752 163.562 161.185C159.975 162.069 156.515 163.402 153.262 165.153C150.101 166.849 147.297 169.139 145.004 171.898C142.731 174.731 140.936 177.915 139.688 181.325C138.403 184.818 137.505 188.441 137.011 192.129C136.182 197.938 136.093 203.939 136.017 210.021L131.107 209.214C134.377 199.574 133.236 188.461 128.342 179.423C128.022 178.866 127.738 178.286 127.39 177.747L126.343 176.128C125.987 175.594 125.579 175.097 125.2 174.578C125.004 174.325 124.823 174.058 124.615 173.814L123.983 173.089C123.145 172.117 122.259 171.188 121.327 170.305C120.349 169.47 119.402 168.596 118.343 167.857C117.835 167.459 117.307 167.087 116.762 166.743C116.216 166.399 115.683 166.032 115.127 165.704L113.428 164.765C112.867 164.443 112.262 164.203 111.682 163.917C109.327 162.821 106.865 161.973 104.335 161.387C98.3057 159.972 92.0453 159.85 85.966 161.03L85.9024 158.617C89.5429 159.724 93.364 160.112 97.1526 159.758C99.303 159.556 100.395 159.498 100.386 159.961C100.371 160.165 100.087 160.519 99.4749 160.923C99.1034 161.167 98.7146 161.384 98.3116 161.572C98.0762 161.687 97.8194 161.803 97.5388 161.911C97.3986 161.965 97.2544 162.027 97.1024 162.076C96.949 162.12 96.7905 162.164 96.6269 162.208C92.8272 163.206 88.8577 163.377 84.9861 162.711C84.3453 162.599 83.7605 162.275 83.3249 161.792C82.8893 161.309 82.6279 160.694 82.5823 160.045C82.5368 159.396 82.7097 158.75 83.0736 158.211C83.4374 157.672 83.9713 157.27 84.5901 157.069L84.8356 156.99C88.6819 155.764 92.6952 155.142 96.7322 155.146C100.047 155.137 103.35 155.559 106.555 156.402C109.784 157.238 112.911 158.422 115.882 159.935C115.914 159.914 115.944 159.894 115.98 159.874Z" fill="#FE7239"/>
</svg>
