<svg width="78" height="78" viewBox="0 0 78 78" fill="none" xmlns="http://www.w3.org/2000/svg">
<mask id="mask0_5809_16906" style="mask-type:alpha" maskUnits="userSpaceOnUse" x="0" y="0" width="78" height="78">
<path d="M37.7317 0.696627C37.8847 -0.23221 39.2202 -0.232209 39.3732 0.696629L44.5138 31.9056C44.5718 32.2574 44.8476 32.5332 45.1994 32.5911L76.4083 37.7317C77.3372 37.8847 77.3372 39.2202 76.4083 39.3732L45.1994 44.5138C44.8476 44.5718 44.5718 44.8476 44.5138 45.1994L39.3732 76.4083C39.2202 77.3372 37.8847 77.3372 37.7317 76.4083L32.5911 45.1994C32.5332 44.8476 32.2574 44.5718 31.9056 44.5138L0.696627 39.3732C-0.23221 39.2202 -0.232209 37.8847 0.696629 37.7317L31.9056 32.5911C32.2574 32.5332 32.5332 32.2574 32.5911 31.9056L37.7317 0.696627Z" fill="#F5F5EF"/>
</mask>
<g mask="url(#mask0_5809_16906)">
<rect width="95.2246" height="95.2246" fill="#F5F5EF"/>
</g>
</svg>
