<svg width="230" height="230" viewBox="0 0 230 230" fill="none" xmlns="http://www.w3.org/2000/svg">
<path d="M68.1804 114.539C69.9272 118.036 73.3592 124.358 72.4118 128.377C71.5617 131.983 67.5001 130 64.8947 122.5C64.0262 120 63.6753 115.275 64.8947 110.511C69.8645 91.0925 78.3957 76.4572 97.3069 70.5C99.5938 69.7796 104.094 69.563 107.5 70.5C109.982 71.1827 107.5 74 97.3069 73.6522C95.0478 73.5752 93.6548 72.9106 92.5592 72.5257C75.5734 66.559 64.2159 55.8934 62.1002 38.1419C61.6115 34.0419 58.7219 22.8483 62.9646 21.5992C65 21 65 23.8663 65 25.9998C65.0001 29.6644 63.7486 32.958 62.3922 36.2167C54.7929 54.4734 45 79.9999 19.3637 74.9102C18.0802 74.6554 14 74.1765 13.0001 71.9999C11.4906 68.7142 16 67.9999 22.5 68.948C29.2642 69.9347 38.5302 76.0672 43.5001 80.5C53.8103 89.6961 62.0135 102.194 68.1804 114.539Z" stroke="#FE7239" stroke-width="5" stroke-linecap="round"/>
<path d="M131.2 119.636C129.493 116.366 126.149 110.459 126.976 106.651C127.717 103.235 131.583 105.037 134.167 112.07C135.028 114.414 135.438 118.866 134.368 123.382C130.005 141.786 122.202 155.737 104.459 161.675C102.314 162.393 98.0717 162.673 94.8424 161.846C92.4896 161.244 94.7836 158.544 104.406 158.701C106.539 158.736 107.865 159.339 108.905 159.684C125.031 165.028 135.925 174.901 138.22 191.613C138.75 195.473 141.664 205.986 137.682 207.236C135.772 207.835 135.723 205.131 135.688 203.118C135.626 199.66 136.751 196.532 137.976 193.435C144.84 176.082 153.651 151.834 177.923 156.205C179.139 156.424 182.996 156.808 183.976 158.844C185.456 161.919 181.213 162.669 175.064 161.883C168.666 161.066 159.821 155.436 155.057 151.337C145.175 142.834 137.226 131.18 131.2 119.636Z" stroke="#FE7239" stroke-width="5" stroke-linecap="round"/>
<path d="M183.635 107.955C182.522 110.209 180.334 114.283 180.938 116.874C181.48 119.198 184.069 117.92 185.73 113.086C186.284 111.474 186.507 108.429 185.73 105.358C182.562 92.8427 177.123 83.4098 165.067 79.5701C163.609 79.1058 160.74 78.9662 158.568 79.5701C156.986 80.0102 158.568 81.826 165.067 81.6019C166.507 81.5522 167.395 81.1238 168.093 80.8758C178.922 77.03 186.163 70.1557 187.512 58.7143C187.823 56.0717 189.665 48.8571 186.96 48.052C185.663 47.6658 185.663 49.5132 185.663 50.8883C185.663 53.2502 186.461 55.3731 187.325 57.4734C192.17 69.2405 198.413 85.6931 214.757 82.4127C215.575 82.2484 218.176 81.9398 218.814 80.5369C219.776 78.4191 216.901 77.9587 212.757 78.5698C208.445 79.2057 202.538 83.1584 199.369 86.0155C192.796 91.9426 187.567 99.9978 183.635 107.955Z" stroke="#FE7239" stroke-width="5" stroke-linecap="round"/>
</svg>
